<svg width="15" height="15" viewBox="0 0 15 15" fill="none" xmlns="http://www.w3.org/2000/svg">
<path fill-rule="evenodd" clip-rule="evenodd" d="M2.73194 8.50777C2.64573 8.60571 2.56681 8.70307 2.48722 8.8085L2.36636 8.97375C2.33126 9.02311 2.15747 9.27414 2.1138 9.33405C1.87461 9.66219 1.74927 9.73059 1.24888 9.73059C0.875396 9.73059 0.572632 10.0127 0.572632 10.3607C0.572632 12.3877 2.68815 14.1107 4.60732 14.1107C6.96005 14.1107 8.42607 13.1037 8.66139 10.9209C9.03014 7.50047 4.81296 6.14346 2.73194 8.50777ZM7.31602 10.7949C7.15663 12.2735 6.31661 12.8505 4.60766 12.8505L4.49354 12.847C3.49873 12.787 2.36616 11.9581 2.0267 10.9547L2.01292 10.9096L2.0888 10.891C2.56994 10.7562 2.91307 10.4809 3.23298 10.042L3.49417 9.66975C3.5941 9.52921 3.6813 9.41678 3.77807 9.30683C5.04509 7.86733 7.54492 8.67172 7.31602 10.7949Z" fill="#F54B64"/>
<path fill-rule="evenodd" clip-rule="evenodd" d="M11.3298 1.41822C12.0806 0.654308 13.354 0.602125 14.1739 1.30167L14.2507 1.37079C15.024 2.10447 15.0796 3.2551 14.4006 4.04879L14.3118 4.14609L8.51948 10.1128C8.26909 10.3707 7.84169 10.3907 7.56485 10.1574C7.30931 9.9421 7.27138 9.58624 7.46399 9.3299L7.51696 9.26803L13.3093 3.3013C13.5798 3.02272 13.5903 2.60663 13.3469 2.31752L13.2738 2.24167L13.261 2.23047C13.0124 2.01835 12.6368 2.01664 12.3865 2.21501L12.3267 2.26876L6.46852 8.22894C6.21643 8.48543 5.7889 8.50295 5.51362 8.26808C5.2595 8.05127 5.22393 7.6952 5.41824 7.43997L5.47161 7.37841L11.3298 1.41822Z" fill="#F54B64"/>
</svg>
