<svg width="16" height="15" viewBox="0 0 16 15" fill="none" xmlns="http://www.w3.org/2000/svg">
<path d="M7.77889 1.02632C7.87269 0.848532 8.12731 0.84853 8.22111 1.02632L9.85805 4.12889C10.1113 4.60882 10.5728 4.94414 11.1075 5.03665L14.564 5.63473C14.7621 5.669 14.8408 5.91115 14.7007 6.0553L12.2558 8.57087C11.8776 8.96 11.7013 9.50255 11.7786 10.0397L12.2779 13.5119C12.3065 13.7108 12.1005 13.8605 11.9201 13.7718L8.77218 12.2239C8.28524 11.9845 7.71476 11.9845 7.22781 12.2239L4.07986 13.7718C3.89947 13.8605 3.69348 13.7108 3.72209 13.5119L4.22143 10.0397C4.29867 9.50255 4.12238 8.96 3.74419 8.57087L1.29931 6.05531C1.15921 5.91115 1.23789 5.669 1.43596 5.63472L4.89253 5.03665C5.42722 4.94414 5.88874 4.60882 6.14195 4.12889L7.77889 1.02632Z" stroke="#F54B64" stroke-width="1.5"/>
</svg>
