<?xml version="1.0" encoding="UTF-8" standalone="no"?>
<svg
   width="17"
   height="16"
   viewBox="0 0 17 16"
   fill="none"
   version="1.1"
   id="svg627"
   sodipodi:docname="copy.svg"
   inkscape:version="1.1 (c4e8f9e, 2021-05-24)"
   xmlns:inkscape="http://www.inkscape.org/namespaces/inkscape"
   xmlns:sodipodi="http://sodipodi.sourceforge.net/DTD/sodipodi-0.dtd"
   xmlns="http://www.w3.org/2000/svg"
   xmlns:svg="http://www.w3.org/2000/svg">
  <defs
     id="defs631" />
  <sodipodi:namedview
     id="namedview629"
     pagecolor="#ffffff"
     bordercolor="#666666"
     borderopacity="1.0"
     inkscape:pageshadow="2"
     inkscape:pageopacity="0.0"
     inkscape:pagecheckerboard="0"
     showgrid="false"
     inkscape:zoom="22.391626"
     inkscape:cx="8.7756021"
     inkscape:cy="8.1503684"
     inkscape:window-width="1296"
     inkscape:window-height="809"
     inkscape:window-x="0"
     inkscape:window-y="23"
     inkscape:window-maximized="0"
     inkscape:current-layer="svg627" />
  <path
     style="color:#000000;fill:#f54b64;-inkscape-stroke:none"
     d="M 13.1827,12.7204 H 6.24429 c -0.63866,0 -1.1564,-0.5177 -1.1564,-1.1564 V 2.3128 c 0,-0.63866 0.51774,-1.1564 1.1564,-1.1564 h 4.04741 c 0.0063,2.8e-4 0.0125,0.00144 0.0185,0.00347 0.0056,0.00175 0.0115,0.00291 0.0173,0.00347 0.051,0.00327 0.1014,0.01318 0.1498,0.02949 l 0.0162,0.0052 c 0.0131,0.00444 0.0258,0.00986 0.0381,0.01619 0.063,0.028 0.1204,0.06718 0.1695,0.11564 l 3.4692,3.46921 c 0.0484,0.04902 0.0876,0.10642 0.1156,0.16941 0.0058,0.01272 0.0098,0.02602 0.0145,0.03932 l 0.0052,0.01503 c 0.0161,0.04822 0.0256,0.0984 0.0283,0.14917 9e-4,0.00532 0.0022,0.01054 0.004,0.01562 0.0011,0.00533 0.0015,0.01076 0.0013,0.01619 V 11.564 c 0,0.6387 -0.5178,1.1564 -1.1565,1.1564 z M 6.24429,2.3128 V 11.564 H 13.1827 V 5.78201 h -2.891 c -0.31934,0 -0.57821,-0.25887 -0.57821,-0.5782 V 2.3128 Z m 4.62561,0.81758 v 1.49523 h 1.4952 z"
     id="path623" />
  <path
     style="color:#000000;fill:#f54b64;-inkscape-stroke:none"
     d="M 10.4078,14.8019 H 3.46939 c -0.63866,0 -1.1564,-0.5177 -1.1564,-1.1564 V 4.39433 c 0,-0.63866 0.51774,-1.1564 1.1564,-1.1564 h 4.0474 c 0.0063,2.7e-4 0.01253,0.00144 0.0185,0.00347 0.00565,0.00174 0.01146,0.00291 0.01735,0.00347 0.05099,0.00327 0.10133,0.01318 0.14975,0.02949 l 0.01619,0.0052 c 0.01311,0.00444 0.02586,0.00985 0.03816,0.01619 0.063,0.028 0.12039,0.06718 0.16942,0.11564 l 3.46924,3.4692 c 0.0484,0.04903 0.0876,0.10642 0.1156,0.16942 0.0058,0.01272 0.0098,0.02602 0.0145,0.03931 l 0.0052,0.01504 c 0.0161,0.04821 0.0256,0.0984 0.0283,0.14917 9e-4,0.00531 0.0022,0.01054 0.004,0.01561 0.0011,0.00534 0.0014,0.01077 0.0013,0.01619 v 6.36017 c 0,0.6387 -0.5178,1.1564 -1.1565,1.1564 z M 3.46939,4.39433 V 13.6455 H 10.4078 V 7.86353 H 7.51679 c -0.31933,0 -0.5782,-0.25887 -0.5782,-0.5782 v -2.891 z m 4.6256,0.81758 v 1.49522 h 1.49523 z"
     id="path625" />
</svg>
