<svg width="17" height="16" viewBox="0 0 17 16" fill="none" xmlns="http://www.w3.org/2000/svg">
<path d="M7.92333 15.8677C7.67959 15.8638 7.43632 15.8462 7.19483 15.8152C5.49277 15.6453 3.8942 14.9708 2.63448 13.8909C1.37475 12.811 0.520424 11.3827 0.197276 9.81644C-0.479088 6.69827 1.13573 3.42123 4.12301 1.84573C6.25637 0.720557 8.84628 0.560381 11.2276 1.40459C13.4315 2.19234 15.097 3.73633 15.7973 5.6545C16.3145 7.07114 16.2454 8.4904 15.6043 9.65364C15.3258 10.1552 14.9409 10.5988 14.473 10.9576C14.005 11.3165 13.4637 11.583 12.8819 11.7412C12.4369 11.8536 11.9817 11.9274 11.5221 11.9617C11.3235 11.9814 11.1361 12.0011 10.9486 12.0274L10.4738 12.093L10.4498 11.9617C10.2567 11.9523 10.0632 11.9563 9.87069 11.9736C9.74068 11.9853 9.61599 12.0276 9.50829 12.0965C9.4006 12.1654 9.31342 12.2586 9.25492 12.3674C9.20543 12.4634 9.18382 12.5698 9.19222 12.676C9.20063 12.7822 9.23876 12.8845 9.30283 12.9727C9.66919 13.5057 10.1708 14.237 9.5621 15.0931C9.11683 15.7272 8.50106 15.8677 7.92333 15.8677ZM8.15301 1.79715C6.91311 1.79131 5.69254 2.08342 4.60914 2.64529C3.32567 3.33053 2.30382 4.37201 1.6862 5.6244C1.06857 6.87679 0.885979 8.27759 1.16391 9.63132C1.44809 11.0071 2.1988 12.2616 3.30555 13.2101C4.4123 14.1586 5.81661 14.751 7.31178 14.9001C8.09101 14.9867 8.4616 14.9828 8.7406 14.5902C8.96042 14.2804 8.88151 14.065 8.47287 13.4729C8.32 13.2535 8.22969 13.0014 8.21045 12.7405C8.19122 12.4795 8.24371 12.2183 8.36296 11.9814C8.49141 11.7312 8.68608 11.5156 8.92864 11.3548C9.17121 11.194 9.45369 11.0934 9.74951 11.0624C10.0154 11.0376 10.2831 11.0324 10.5499 11.0466C10.6541 11.0466 10.7598 11.0532 10.8655 11.0532H11.2784V11.0611L11.4193 11.0466C11.8181 11.0177 12.2133 10.9553 12.6001 10.8602C13.0548 10.7397 13.4782 10.5334 13.8439 10.2543C14.2096 9.97519 14.51 9.62909 14.7264 9.23745C15.245 8.29871 15.2901 7.13678 14.8673 5.95516C14.2614 4.29694 12.8087 2.95252 10.8782 2.26717C10.008 1.95766 9.08449 1.79839 8.15301 1.79715ZM3.47764 8.8265H3.44382C2.98336 8.81086 2.54802 8.62691 2.23201 8.31447C1.9112 8.0062 1.73396 7.5924 1.73882 7.16304C1.75987 6.72715 1.96561 6.31685 2.31091 6.02211C2.47237 5.87566 2.66328 5.76037 2.87269 5.68286C3.0821 5.60535 3.30589 5.56716 3.53119 5.57047C3.98935 5.59243 4.42078 5.77813 4.73573 6.08894C5.05068 6.39976 5.22488 6.81174 5.2221 7.23919C5.20584 7.66191 5.01559 8.06259 4.6908 8.35812C4.366 8.65366 3.93159 8.82138 3.47764 8.8265ZM3.46355 7.90746C3.6617 7.9048 3.85144 7.8324 3.99466 7.70479C4.13789 7.57718 4.22401 7.40382 4.23573 7.21949C4.23212 7.03371 4.15433 6.85584 4.01754 6.72063C3.88076 6.58541 3.69479 6.50254 3.49596 6.4882C3.30413 6.49221 3.12137 6.56512 2.98587 6.6917C2.83332 6.81836 2.7398 6.99546 2.72519 7.18536C2.72515 7.27727 2.74454 7.36829 2.78225 7.45322C2.81997 7.53815 2.87527 7.61532 2.94501 7.68033C3.0794 7.81622 3.2655 7.89774 3.46355 7.90746ZM12.7001 8.8265H12.672C12.4447 8.81988 12.2211 8.7716 12.0139 8.68442C11.8067 8.59724 11.62 8.47286 11.4644 8.31841C11.1415 8.00903 10.9632 7.5932 10.9684 7.16173C10.9874 6.72703 11.19 6.31694 11.532 6.0208C11.8589 5.72519 12.2982 5.56232 12.7537 5.56785C13.6738 5.5941 14.4869 6.39104 14.4601 7.2405C14.4379 7.66337 14.2435 8.06243 13.9165 8.35639C13.5895 8.65034 13.1545 8.81706 12.7001 8.82257V8.8265ZM12.7001 6.48951C12.5134 6.49648 12.3364 6.56866 12.2041 6.6917C12.0524 6.81946 11.9608 6.99775 11.9491 7.18798C11.9491 7.37462 12.0287 7.55361 12.1703 7.68558C12.236 7.75215 12.3151 7.80601 12.4031 7.84409C12.4911 7.88216 12.5863 7.90369 12.6832 7.90746C12.8823 7.90232 13.0723 7.82907 13.2171 7.70169C13.3619 7.57432 13.4512 7.40173 13.4681 7.21687C13.4794 6.8742 13.0933 6.50133 12.7171 6.49083L12.7001 6.48951ZM5.9971 5.69257H5.98583C5.75175 5.68798 5.52098 5.64011 5.30691 5.55177C5.09284 5.46342 4.89973 5.33634 4.73878 5.17791C4.57899 5.02785 4.45275 4.84973 4.36737 4.65389C4.28199 4.45805 4.23916 4.24836 4.24137 4.03698C4.26966 3.6233 4.46066 3.23386 4.77783 2.94318C5.095 2.65251 5.51607 2.481 5.96046 2.46148C6.19062 2.45758 6.41931 2.49644 6.63318 2.57578C6.84705 2.65513 7.04181 2.77338 7.2061 2.92363C7.37294 3.07254 7.50623 3.25095 7.59817 3.44843C7.69011 3.64592 7.73885 3.8585 7.74155 4.07375C7.74115 4.2875 7.69509 4.49905 7.60607 4.69605C7.51704 4.89306 7.38683 5.07159 7.22301 5.22124C7.06197 5.37105 6.8708 5.4898 6.66044 5.57068C6.45008 5.65155 6.22466 5.69298 5.9971 5.69257ZM6.00837 3.37396H5.99005C5.79645 3.38743 5.61407 3.46382 5.47474 3.5898C5.33542 3.71578 5.248 3.88334 5.22773 4.06324C5.23055 4.24293 5.30958 4.41427 5.44755 4.53983C5.58901 4.68186 5.78508 4.76589 5.99287 4.77353C6.09256 4.7735 6.19122 4.75477 6.28297 4.71845C6.37472 4.68214 6.45768 4.62898 6.52692 4.56215C6.59839 4.49822 6.6554 4.4216 6.69461 4.33682C6.73381 4.25204 6.75441 4.16081 6.75519 4.06849C6.75292 3.976 6.73095 3.88484 6.69055 3.80032C6.65015 3.7158 6.59214 3.6396 6.51987 3.57615C6.38402 3.44926 6.20069 3.37632 6.00837 3.37265V3.37396ZM10.1976 5.69257C9.7338 5.68917 9.29 5.51613 8.96183 5.21073C8.79937 5.06178 8.67035 4.88419 8.58229 4.68831C8.49423 4.49243 8.44889 4.28218 8.44892 4.06981C8.46192 3.65351 8.6419 3.25688 8.95337 2.95816C9.26483 2.65945 9.68515 2.48036 10.1314 2.45623C10.3611 2.45125 10.5897 2.48857 10.8039 2.56608C11.0182 2.64358 11.2139 2.75974 11.3798 2.90788C11.5498 3.05354 11.6871 3.22912 11.7838 3.4245C11.8806 3.61987 11.9348 3.83116 11.9435 4.04618C11.9457 4.25814 11.9029 4.46842 11.8175 4.66491C11.7322 4.8614 11.6059 5.04021 11.4461 5.19104C11.285 5.3466 11.0925 5.47099 10.8798 5.55706C10.667 5.64312 10.438 5.68918 10.2061 5.69257H10.1976ZM10.1976 3.37396H10.1736C9.98179 3.38952 9.80222 3.46846 9.66734 3.59654C9.53246 3.72462 9.45116 3.89341 9.4381 4.07243C9.43875 4.16324 9.45891 4.25301 9.49739 4.33644C9.53586 4.41987 9.59189 4.49528 9.66215 4.55821C9.7325 4.62565 9.81661 4.67932 9.90952 4.71607C10.0024 4.75282 10.1023 4.77191 10.2032 4.77222C10.3041 4.76969 10.4034 4.74868 10.4955 4.71038C10.5876 4.67208 10.6707 4.61725 10.7401 4.54902C10.8091 4.48576 10.864 4.41036 10.9014 4.32719C10.9389 4.24403 10.9583 4.15476 10.9585 4.06456C10.9533 3.97176 10.9285 3.88084 10.8854 3.79703C10.8424 3.71321 10.782 3.63814 10.7077 3.57615C10.5709 3.44945 10.3876 3.37579 10.1948 3.37002L10.1976 3.37396Z" fill="#FF4A65"/>
</svg>
