<?xml version="1.0" encoding="UTF-8" standalone="no"?>
<svg
   width="15"
   height="15"
   viewBox="0 0 15 15"
   fill="none"
   version="1.1"
   id="svg577"
   sodipodi:docname="delete.svg"
   inkscape:version="1.1 (c4e8f9e, 2021-05-24)"
   xmlns:inkscape="http://www.inkscape.org/namespaces/inkscape"
   xmlns:sodipodi="http://sodipodi.sourceforge.net/DTD/sodipodi-0.dtd"
   xmlns="http://www.w3.org/2000/svg"
   xmlns:svg="http://www.w3.org/2000/svg">
  <defs
     id="defs581" />
  <sodipodi:namedview
     id="namedview579"
     pagecolor="#ffffff"
     bordercolor="#666666"
     borderopacity="1.0"
     inkscape:pageshadow="2"
     inkscape:pageopacity="0.0"
     inkscape:pagecheckerboard="0"
     showgrid="false"
     inkscape:zoom="26.664434"
     inkscape:cx="7.4443733"
     inkscape:cy="8.0069204"
     inkscape:window-width="1296"
     inkscape:window-height="809"
     inkscape:window-x="0"
     inkscape:window-y="23"
     inkscape:window-maximized="0"
     inkscape:current-layer="svg577" />
  <path
     style="color:#000000;fill:#ffffff;-inkscape-stroke:none"
     d="m 10.625,13.75 h -6.25 c -0.69036,0 -1.25,-0.5596 -1.25,-1.25 V 4.375 h -1.25 v -1.25 h 2.5 V 2.5 c 0,-0.69036 0.55964,-1.25 1.25,-1.25 h 3.75 c 0.6904,0 1.25,0.55964 1.25,1.25 v 0.625 h 2.5 v 1.25 h -1.25 V 12.5 c 0,0.6904 -0.5596,1.25 -1.25,1.25 z M 4.375,4.375 V 12.5 h 6.25 V 4.375 Z M 5.625,2.5 v 0.625 h 3.75 V 2.5 Z m 3.75,8.75 H 8.125 V 5.625 h 1.25 z m -2.5,0 H 5.625 V 5.625 h 1.25 z"
     id="path575" />
</svg>
