<svg width="17" height="15" viewBox="0 0 17 15" fill="none" xmlns="http://www.w3.org/2000/svg">
<path fill-rule="evenodd" clip-rule="evenodd" d="M6.66989 6.37185L4.66701 6.80635L4.58668 6.82827C4.12126 6.98274 3.95839 7.53839 4.30116 7.89241L5.84238 9.48437L5.4832 11.4205L5.47399 11.4909C5.43561 12.0015 6.02674 12.368 6.52494 12.1114L8.37313 11.1586L10.2211 12.1114L10.2896 12.1426C10.7947 12.3435 11.36 11.9431 11.2629 11.4205L10.9032 9.48437L12.4451 7.89241L12.4976 7.83164C12.7848 7.45708 12.5776 6.91437 12.0792 6.80635L10.0764 6.37185L8.98884 4.59855C8.71664 4.15457 8.02958 4.15457 7.7574 4.59855L6.66989 6.37185ZM8.37253 6.25821L8.99843 7.27807L9.04437 7.34366C9.144 7.46898 9.2887 7.55816 9.45349 7.59388L10.5863 7.83924L9.61945 8.83825L9.56205 8.90594C9.45753 9.04727 9.41543 9.22213 9.44726 9.39347L9.61273 10.2878L8.71629 9.82635L8.63427 9.79027C8.43874 9.7181 8.21698 9.73013 8.03018 9.82634L7.13304 10.2878L7.29921 9.39351L7.30902 9.30771C7.31653 9.13622 7.25203 8.96737 7.12702 8.83825L6.15945 7.83924L7.29298 7.59388C7.48523 7.55221 7.65015 7.43777 7.74805 7.27807L8.37253 6.25821Z" fill="#F54B64"/>
<path fill-rule="evenodd" clip-rule="evenodd" d="M13.6455 2.18439H3.09975C2.42632 2.18439 2.07288 2.24129 1.70116 2.40702C1.34626 2.56525 1.05885 2.80486 0.862493 3.11094C0.647926 3.44541 0.572632 3.77046 0.572632 4.36071V12.5612C0.572632 13.1514 0.647926 13.4765 0.862493 13.811C1.05885 14.117 1.34626 14.3567 1.70116 14.5149C2.07288 14.6806 2.42632 14.7375 3.09975 14.7375H13.6455C14.3189 14.7375 14.6724 14.6806 15.0441 14.5149C15.399 14.3567 15.6864 14.117 15.8828 13.811C16.0973 13.4765 16.1726 13.1514 16.1726 12.5612V4.36071C16.1726 3.77046 16.0973 3.44541 15.8828 3.11094C15.6864 2.80486 15.399 2.56525 15.0441 2.40702C14.6724 2.24129 14.3189 2.18439 13.6455 2.18439ZM2.97675 3.5064L13.6454 3.50577C14.1247 3.50577 14.2783 3.53049 14.4318 3.59896C14.5392 3.64681 14.6145 3.70962 14.6654 3.78888C14.7251 3.88199 14.7494 3.97038 14.7536 4.2574L14.7543 12.5612C14.7543 12.9319 14.7317 13.0296 14.6654 13.133C14.6145 13.2123 14.5392 13.2751 14.4318 13.3229C14.2922 13.3852 14.1526 13.4113 13.7683 13.4155L3.09963 13.4161C2.62034 13.4161 2.46677 13.3914 2.31319 13.3229C2.20586 13.2751 2.13052 13.2123 2.07968 13.133C2.01995 13.0399 1.99566 12.9515 1.9914 12.6645L1.9907 4.3607C1.9907 3.98997 2.01331 3.89234 2.07968 3.78888C2.13052 3.70962 2.20586 3.64681 2.31319 3.59896C2.4528 3.53672 2.59242 3.51062 2.97675 3.5064Z" fill="#F54B64"/>
<path fill-rule="evenodd" clip-rule="evenodd" d="M11.918 0.202332C12.2816 0.202332 12.5813 0.457383 12.6223 0.785969L12.627 0.863019V2.84508C12.627 3.20997 12.3096 3.50577 11.918 3.50577C11.5543 3.50577 11.2546 3.25072 11.2136 2.92213L11.2089 2.84508V0.863019C11.2089 0.498131 11.5263 0.202332 11.918 0.202332Z" fill="#F54B64"/>
<path fill-rule="evenodd" clip-rule="evenodd" d="M4.82701 0.202332C5.19066 0.202332 5.49037 0.457383 5.53134 0.785969L5.53611 0.863019V2.84508C5.53611 3.20997 5.21863 3.50577 4.82701 3.50577C4.46336 3.50577 4.16365 3.25072 4.12269 2.92213L4.11792 2.84508V0.863019C4.11792 0.498131 4.43539 0.202332 4.82701 0.202332Z" fill="#F54B64"/>
</svg>
