<?xml version="1.0" encoding="UTF-8" standalone="no"?>
<svg
   width="20"
   height="12"
   viewBox="0 0 20 12"
   fill="none"
   version="1.1"
   id="svg443"
   sodipodi:docname="fashion.svg"
   inkscape:version="1.1 (c4e8f9e, 2021-05-24)"
   xmlns:inkscape="http://www.inkscape.org/namespaces/inkscape"
   xmlns:sodipodi="http://sodipodi.sourceforge.net/DTD/sodipodi-0.dtd"
   xmlns="http://www.w3.org/2000/svg"
   xmlns:svg="http://www.w3.org/2000/svg">
  <defs
     id="defs447" />
  <sodipodi:namedview
     id="namedview445"
     pagecolor="#ffffff"
     bordercolor="#666666"
     borderopacity="1.0"
     inkscape:pageshadow="2"
     inkscape:pageopacity="0.0"
     inkscape:pagecheckerboard="0"
     showgrid="false"
     inkscape:zoom="12.357774"
     inkscape:cx="5.947673"
     inkscape:cy="5.8667522"
     inkscape:window-width="1296"
     inkscape:window-height="809"
     inkscape:window-x="0"
     inkscape:window-y="23"
     inkscape:window-maximized="0"
     inkscape:current-layer="svg443" />
  <path
     style="color:#000000;fill:#f54b64;-inkscape-stroke:none"
     d="M 19.0647,10.8742 C 18.8649,10.3451 18.6651,9.84542 18.2761,9.51229 17.7082,9.0224 16.9721,8.67947 16.4674,8.46392 16.0047,8.26796 15.5105,8.1014 15.0478,7.93483 14.5325,7.75847 14.0067,7.57231 13.502,7.35676 12.9867,7.13141 12.5135,6.77868 12.0508,6.43576 L 11.9141,6.32798 C 11.5461,6.06344 11.1991,5.7597 10.831,5.44617 10.6838,5.3188 10.5366,5.19142 10.3788,5.06405 10.4314,4.95627 10.505,4.77991 10.6102,4.65254 10.7679,4.46638 10.9467,4.30961 11.136,4.13325 11.2516,4.03527 11.3673,3.9275 11.4725,3.81972 12.1244,3.16326 12.3137,2.41862 12.0298,1.5956 11.6723,0.566822 10.4945,-0.11903 9.3483,0.0377361 8.2021,0.194502 7.26621,1.1253 7.22415,2.16388 7.21363,2.41862 7.26621,2.60478 7.3924,2.72236 7.45549,2.78114 7.58168,2.84973 7.77096,2.83993 7.98127,2.82034 8.12849,2.62438 8.26519,2.44802 8.28623,2.41862 8.30726,2.38923 8.3388,2.35983 8.4019,2.28145 8.4019,2.18347 8.41241,2.11489 c 0,-0.0294 0,-0.06859 0.01052,-0.08818 0.15773,-0.54868 0.673,-0.921 1.27239,-0.921 0.59938,0 1.11468,0.37232 1.27238,0.921 0.1262,0.42131 0,0.78383 -0.3996,1.13655 C 9.90563,3.74134 9.33779,4.29002 9.15902,5.10324 9.14851,5.12284 9.0749,5.17183 9.03284,5.20122 9.0118,5.22082 8.99077,5.23062 8.96974,5.24041 8.83304,5.33839 8.6753,5.43637 8.52808,5.53435 8.2021,5.74011 7.8656,5.95566 7.60271,6.23 7.0559,6.78848 6.5196,7.151 5.89918,7.38615 5.68887,7.46453 5.46804,7.54292 5.25773,7.6115 4.92123,7.72908 4.57421,7.84665 4.23771,7.98382 4.11152,8.03281 3.97482,8.0916 3.84863,8.14059 3.12305,8.43452 2.36593,8.72846 1.66138,9.08118 1.00941,9.40451 0.567756,9.9238 0.36796,10.5901 c -0.094641,0.3135 -0.147219,0.6368 0.021031,0.8524 0.178765,0.2155 0.525781,0.2449 0.841249,0.2449 3.99594,0 7.98136,0 11.97726,0 h 3.7436 c 0.1472,0 0.2944,0 0.4311,0 0.326,0 0.652,0 0.978,0 0.0105,0 0.021,0 0.0315,0 0.284,0 0.5048,-0.0882 0.6205,-0.2449 0.1156,-0.147 0.1367,-0.343 0.0525,-0.5683 z M 17.8029,10.5901 H 1.62983 C 1.65087,10.5607 1.6719,10.5411 1.69293,10.5117 1.85066,10.3255 1.98737,10.159 2.15562,10.0708 2.84965,9.69845 3.57523,9.39472 4.25874,9.13017 4.64782,8.97341 5.05793,8.84604 5.45752,8.71866 5.62577,8.65988 5.80454,8.61089 5.97279,8.5521 7.03487,8.19937 7.8656,7.65069 8.49654,6.88646 8.57015,6.79828 8.65427,6.7101 8.75943,6.61212 9.09593,6.29859 9.44294,6.14182 9.77944,6.16141 c 0.29446,0.0196 0.55736,0.16657 0.78866,0.44091 1.1042,1.32271 2.5974,1.92039 4.059,2.37109 0.7361,0.22535 1.5038,0.53888 2.3345,0.94059 0.2419,0.1176 0.4417,0.3037 0.652,0.5095 0.0631,0.049 0.1262,0.1078 0.1893,0.1666 z"
     id="path441" />
</svg>
