<svg width="17" height="17" viewBox="0 0 17 17" fill="none" xmlns="http://www.w3.org/2000/svg">
<path d="M3.63377 2.13047C3.886 1.68908 4.3554 1.41667 4.86378 1.41667H12.1369C12.6453 1.41667 13.1147 1.68908 13.3669 2.13048L14.1764 3.54714C14.6354 4.35033 14.2108 5.32034 13.4045 5.59252C13.4074 5.65011 13.4069 5.70854 13.4027 5.7676L12.7955 14.2676C12.7426 15.009 12.1257 15.5833 11.3825 15.5833H5.61821C4.87497 15.5833 4.25809 15.009 4.20514 14.2676L3.598 5.7676C3.59378 5.70854 3.59323 5.6501 3.59616 5.59252C2.78985 5.32033 2.36529 4.35032 2.82425 3.54714L3.63377 2.13047ZM5.01106 5.66667L5.16285 7.79167H11.8378L11.9896 5.66667H5.01106ZM5.46642 12.0417L5.61821 14.1667H11.3825L11.5342 12.0417H5.46642ZM12.9464 4.25001L12.1369 2.83334L4.86378 2.83334L4.05426 4.25001H12.9464Z" fill="#FF4A65"/>
</svg>
