<svg width="15" height="12" viewBox="0 0 15 12" fill="none" xmlns="http://www.w3.org/2000/svg">
<path fill-rule="evenodd" clip-rule="evenodd" d="M10.3226 0.600281H2.52263C1.44568 0.600281 0.572632 1.41374 0.572632 2.41718V9.68479C0.572632 10.6882 1.44568 11.5017 2.52263 11.5017H10.3226C11.3996 11.5017 12.2726 10.6882 12.2726 9.68479V2.41718C12.2726 1.41374 11.3996 0.600281 10.3226 0.600281ZM2.52263 1.81155H10.3226C10.6816 1.81155 10.9726 2.08271 10.9726 2.41719V9.68479C10.9726 10.0193 10.6816 10.2904 10.3226 10.2904H2.52263C2.16365 10.2904 1.87263 10.0193 1.87263 9.68479V2.41719C1.87263 2.08271 2.16365 1.81155 2.52263 1.81155Z" fill="#F54B64"/>
<path fill-rule="evenodd" clip-rule="evenodd" d="M13.3067 2.88299L11.2286 4.35799C11.0673 4.47254 10.9725 4.65073 10.9725 4.83976V7.2623C10.9725 7.45454 11.0705 7.63537 11.2365 7.74955L13.3185 9.18157C13.4862 9.29691 13.6891 9.35915 13.8975 9.35915C14.436 9.35915 14.8725 8.95242 14.8725 8.45069V3.60564C14.8725 3.40675 14.8025 3.21335 14.6731 3.05513C14.3468 2.65602 13.735 2.57896 13.3067 2.88299ZM13.5725 4.21655V7.85095L12.2725 6.95643V5.13893L13.5725 4.21655Z" fill="#F54B64"/>
</svg>
