<?xml version="1.0" encoding="UTF-8" standalone="no"?>
<svg
   width="15"
   height="15"
   viewBox="0 0 15 15"
   fill="none"
   version="1.1"
   id="svg372"
   sodipodi:docname="music.svg"
   inkscape:version="1.1 (c4e8f9e, 2021-05-24)"
   xmlns:inkscape="http://www.inkscape.org/namespaces/inkscape"
   xmlns:sodipodi="http://sodipodi.sourceforge.net/DTD/sodipodi-0.dtd"
   xmlns="http://www.w3.org/2000/svg"
   xmlns:svg="http://www.w3.org/2000/svg">
  <defs
     id="defs376" />
  <sodipodi:namedview
     id="namedview374"
     pagecolor="#ffffff"
     bordercolor="#666666"
     borderopacity="1.0"
     inkscape:pageshadow="2"
     inkscape:pageopacity="0.0"
     inkscape:pagecheckerboard="0"
     showgrid="false"
     inkscape:zoom="21.643157"
     inkscape:cx="8.6632464"
     inkscape:cy="10.187978"
     inkscape:window-width="1296"
     inkscape:window-height="809"
     inkscape:window-x="0"
     inkscape:window-y="23"
     inkscape:window-maximized="0"
     inkscape:current-layer="svg372" />
  <path
     style="color:#000000;clip-rule:evenodd;fill:#f54b64;fill-rule:evenodd;-inkscape-stroke:none"
     d="m 3.19774,8.86951 c -1.61545,0 -2.925035,1.22019 -2.925035,2.72539 0,1.5052 1.309585,2.7254 2.925035,2.7254 1.61545,0 2.92504,-1.2202 2.92504,-2.7254 0,-1.5052 -1.30959,-2.72539 -2.92504,-2.72539 z m -2e-5,1.21129 c 0.89748,0 1.62502,0.6779 1.62502,1.5141 0,0.8362 -0.72754,1.5141 -1.62502,1.5141 -0.89747,0 -1.62502,-0.6779 -1.62502,-1.5141 0,-0.8362 0.72755,-1.5141 1.62502,-1.5141 z"
     id="path364" />
  <path
     style="color:#000000;clip-rule:evenodd;fill:#f54b64;fill-rule:evenodd;-inkscape-stroke:none"
     d="m 11.6477,7.65814 c -1.6155,0 -2.92504,1.2202 -2.92504,2.72536 0,1.5052 1.30954,2.7254 2.92504,2.7254 1.6154,0 2.925,-1.2202 2.925,-2.7254 0,-1.50516 -1.3096,-2.72536 -2.925,-2.72536 z m 0,1.21128 c 0.8974,0 1.625,0.67788 1.625,1.51408 0,0.8362 -0.7276,1.5141 -1.625,1.5141 -0.8975,0 -1.625,-0.6779 -1.625,-1.5141 0,-0.8362 0.7275,-1.51408 1.625,-1.51408 z"
     id="path366" />
  <path
     style="color:#000000;clip-rule:evenodd;fill:#f54b64;fill-rule:evenodd;-inkscape-stroke:none"
     d="m 13.8115,1.00514 c 0.3727,-0.060566 0.716,0.18627 0.7574,0.52725 l 0.0042,0.06939 v 8.92312 c 0,0.3345 -0.291,0.6056 -0.65,0.6056 -0.3333,0 -0.6081,-0.2338 -0.6456,-0.535 L 13.2731,10.5249 V 2.32188 L 6.12301,3.4829 v 8.4148 c 0,0.3106 -0.25092,0.5666 -0.5742,0.6016 l -0.0758,0.004 c -0.33335,0 -0.60809,-0.2338 -0.64564,-0.535 L 4.823,11.8977 V 2.97456 c 0,-0.26982 0.19086,-0.50383 0.46239,-0.5799 L 5.36136,2.37792 Z"
     id="path368" />
  <path
     style="color:#000000;clip-rule:evenodd;fill:#f54b64;fill-rule:evenodd;-inkscape-stroke:none"
     d="m 13.8244,4.03142 c 0.3548,-0.05086 0.6867,0.17591 0.7413,0.50651 0.0506,0.30698 -0.1556,0.59554 -0.4694,0.67592 L 14.022,5.22861 5.57194,6.43989 C 5.21712,6.49075 4.88524,6.26398 4.83065,5.93339 4.77996,5.62641 4.9862,5.33785 5.3,5.25747 L 5.37426,5.2427 Z"
     id="path370" />
</svg>
