<?xml version="1.0" encoding="UTF-8" standalone="no"?>
<svg
   width="20"
   height="18"
   viewBox="0 0 20 18"
   fill="none"
   version="1.1"
   id="svg233"
   sodipodi:docname="new-videos.svg"
   inkscape:version="1.1 (c4e8f9e, 2021-05-24)"
   xmlns:inkscape="http://www.inkscape.org/namespaces/inkscape"
   xmlns:sodipodi="http://sodipodi.sourceforge.net/DTD/sodipodi-0.dtd"
   xmlns="http://www.w3.org/2000/svg"
   xmlns:svg="http://www.w3.org/2000/svg">
  <defs
     id="defs237" />
  <sodipodi:namedview
     id="namedview235"
     pagecolor="#ffffff"
     bordercolor="#666666"
     borderopacity="1.0"
     inkscape:pageshadow="2"
     inkscape:pageopacity="0.0"
     inkscape:pagecheckerboard="0"
     showgrid="false"
     inkscape:zoom="9.3062733"
     inkscape:cx="5.4264471"
     inkscape:cy="10.691713"
     inkscape:window-width="1296"
     inkscape:window-height="809"
     inkscape:window-x="0"
     inkscape:window-y="23"
     inkscape:window-maximized="0"
     inkscape:current-layer="svg233" />
  <path
     style="color:#000000;fill:#f54b64;stroke-linecap:round;stroke-linejoin:round;-inkscape-stroke:none;opacity:0.4"
     d="M 13.498047,7.1523437 A 0.53004998,0.53004998 0 0 0 13.138672,7.3417969 L 11.236328,9.6289063 9.0488281,8.0292969 A 0.53010298,0.53010298 0 0 0 8.328125,8.1191406 L 6.0585937,10.867188 A 0.53004998,0.53004998 0 0 0 6.1289062,11.613281 0.53004998,0.53004998 0 0 0 6.875,11.542969 L 8.8261719,9.1796875 11.011719,10.779297 a 0.53010298,0.53010298 0 0 0 0.720703,-0.08984 L 13.955078,8.0195313 A 0.53004998,0.53004998 0 0 0 13.886719,7.2714844 0.53004998,0.53004998 0 0 0 13.498047,7.1523437 Z"
     id="path227" />
  <path
     style="color:#000000;fill:#f54b64;stroke-linecap:round;stroke-linejoin:round;-inkscape-stroke:none"
     d="m 16.136719,1.8398437 c -1.071955,0 -1.988282,0.8311299 -1.988281,1.8886719 0,1.057542 0.916326,1.8886719 1.988281,1.8886719 1.071954,0 1.988281,-0.8311299 1.988281,-1.8886719 0,-1.057542 -0.916327,-1.8886719 -1.988281,-1.8886719 z m 0,1.0605469 c 0.538141,0 0.927734,0.3854753 0.927734,0.828125 0,0.4426497 -0.389593,0.828125 -0.927734,0.828125 -0.538142,0 -0.927735,-0.3854753 -0.927735,-0.828125 0,-0.4426497 0.389593,-0.828125 0.927735,-0.828125 z"
     id="ellipse229" />
  <path
     style="color:#000000;fill:#f54b64;stroke-linecap:round;stroke-linejoin:round;-inkscape-stroke:none"
     d="m 6.7792969,2.2148438 c -1.3068049,0 -2.4471332,0.4450777 -3.2382813,1.2402343 C 2.7498675,4.2502348 2.3300781,5.3693392 2.3300781,6.5996094 v 5.7109376 c 0,1.227007 0.4121501,2.345268 1.2011719,3.140625 0.7890218,0.795357 1.9300333,1.238281 3.2480469,1.238281 h 6.5253911 c 1.30611,0 2.444806,-0.44278 3.236328,-1.236328 0.791521,-0.793548 1.21289,-1.91231 1.21289,-3.142578 V 7.3378906 a 0.75,0.75 0 0 0 -0.75,-0.75 0.75,0.75 0 0 0 -0.75,0.75 v 4.9726564 c 0,0.89753 -0.287988,1.59338 -0.77539,2.082031 -0.487403,0.488651 -1.196241,0.796875 -2.173828,0.796875 H 6.7792969 c -0.9934341,0 -1.7006294,-0.30808 -2.1835938,-0.794922 -0.4829644,-0.486842 -0.765625,-1.183194 -0.765625,-2.083984 V 6.5996094 c 0,-0.8975278 0.28761,-1.5956855 0.7753906,-2.0859375 C 5.0932494,4.0234198 5.802424,3.7148438 6.7792969,3.7148438 h 5.5117191 a 0.75,0.75 0 0 0 0.75,-0.75 0.75,0.75 0 0 0 -0.75,-0.75 z"
     id="path231" />
</svg>
