<svg width="20" height="20" viewBox="0 0 20 20" fill="none" xmlns="http://www.w3.org/2000/svg">
<path d="M10 18.3334C7.78926 18.3353 5.66848 17.458 4.10525 15.8948C2.54201 14.3315 1.66468 12.2108 1.66667 10V9.83335C1.73482 6.49353 3.78983 3.51681 6.88864 2.26923C9.98744 1.02165 13.5317 1.74409 15.895 4.10502C18.2804 6.48842 18.9943 10.0745 17.7036 13.1897C16.4129 16.305 13.372 18.3353 10 18.3334ZM10 11.175L12.1583 13.3334L13.3333 12.1584L11.175 10L13.3333 7.84168L12.1583 6.66668L10 8.82502L7.84167 6.66668L6.66667 7.84168L8.82501 10L6.66667 12.1584L7.84167 13.3334L10 11.1759V11.175Z" fill="#F54B64"/>
</svg>
