<?xml version="1.0" encoding="UTF-8" standalone="no"?>
<svg
   width="17"
   height="11"
   viewBox="0 0 17 11"
   fill="none"
   version="1.1"
   id="svg824"
   sodipodi:docname="path.svg"
   inkscape:version="1.1 (c4e8f9e, 2021-05-24)"
   xmlns:inkscape="http://www.inkscape.org/namespaces/inkscape"
   xmlns:sodipodi="http://sodipodi.sourceforge.net/DTD/sodipodi-0.dtd"
   xmlns="http://www.w3.org/2000/svg"
   xmlns:svg="http://www.w3.org/2000/svg">
  <defs
     id="defs828" />
  <sodipodi:namedview
     id="namedview826"
     pagecolor="#ffffff"
     bordercolor="#666666"
     borderopacity="1.0"
     inkscape:pageshadow="2"
     inkscape:pageopacity="0.0"
     inkscape:pagecheckerboard="0"
     showgrid="false"
     inkscape:zoom="25.146675"
     inkscape:cx="8.2118213"
     inkscape:cy="5.2690863"
     inkscape:window-width="1296"
     inkscape:window-height="809"
     inkscape:window-x="0"
     inkscape:window-y="23"
     inkscape:window-maximized="0"
     inkscape:current-layer="svg824" />
  <path
     style="color:#000000;fill:#ffffff;stroke-linecap:round;stroke-linejoin:round;-inkscape-stroke:none"
     d="M 14.84375,0.92773438 A 1.083335,1.083335 0 0 0 14.130859,1.3535156 L 10.730469,5.9179687 6.8535156,2.7519531 A 1.0834434,1.0834434 0 0 0 5.296875,2.9453125 L 1.1289062,8.578125 A 1.083335,1.083335 0 0 0 1.3554687,10.09375 1.083335,1.083335 0 0 0 2.8710938,9.8671875 L 6.3632812,5.1484375 10.236328,8.3125 A 1.0834434,1.0834434 0 0 0 11.791016,8.1210938 L 15.869141,2.6464844 A 1.083335,1.083335 0 0 0 15.646484,1.1308594 1.083335,1.083335 0 0 0 14.84375,0.92773438 Z"
     id="path822" />
</svg>
