<svg width="15" height="15" viewBox="0 0 15 15" fill="none" xmlns="http://www.w3.org/2000/svg">
<path fill-rule="evenodd" clip-rule="evenodd" d="M6.67873 13.2501C3.04943 13.2501 0.1073 10.308 0.1073 6.67867C0.1073 3.04937 3.04943 0.107239 6.67873 0.107239C10.308 0.107239 13.2502 3.04937 13.2502 6.67867C13.2502 8.19726 12.735 9.59555 11.87 10.7083L14.6522 13.4905C14.973 13.8113 14.973 14.3314 14.6522 14.6522C14.3314 14.973 13.8113 14.973 13.4906 14.6522L10.7083 11.87C9.59557 12.735 8.1973 13.2501 6.67873 13.2501ZM6.67885 11.6073C9.40083 11.6073 11.6074 9.40072 11.6074 6.67875C11.6074 3.95677 9.40083 1.75018 6.67885 1.75018C3.95688 1.75018 1.75028 3.95677 1.75028 6.67875C1.75028 9.40072 3.95688 11.6073 6.67885 11.6073Z" fill="white"/>
</svg>
