<svg width="14" height="15" viewBox="0 0 14 15" fill="none" xmlns="http://www.w3.org/2000/svg">
<path fill-rule="evenodd" clip-rule="evenodd" d="M12.1974 0.180176H1.94821C1.75133 0.180176 1.55675 0.219563 1.37761 0.295675C0.686518 0.589309 0.381764 1.34936 0.696972 1.99326L1.11635 2.84035C3.68602 7.96815 5.52136 10.431 7.07282 10.431C8.7074 10.431 10.6571 7.69719 13.4487 1.99318C13.5304 1.82628 13.5727 1.64497 13.5727 1.46153C13.5727 0.753853 12.9569 0.180164 12.1974 0.180176ZM2.10994 1.79051L1.94817 1.46155L12.1974 1.46155L11.8758 2.11243C10.7102 4.44773 9.69642 6.21875 8.83971 7.42003C8.00592 8.58916 7.35535 9.14967 7.07279 9.14967C6.79024 9.14967 6.13967 8.58916 5.30588 7.42003C4.41023 6.16415 3.3429 4.28557 2.10994 1.79051Z" fill="#F54B64"/>
<path fill-rule="evenodd" clip-rule="evenodd" d="M8.44844 12.9937C8.8282 12.9937 9.13605 13.2806 9.13605 13.6344C9.13605 13.963 8.8706 14.2338 8.52863 14.2708L8.44844 14.2751H5.69799C5.31823 14.2751 5.01038 13.9882 5.01038 13.6344C5.01038 13.3058 5.27582 13.035 5.6178 12.998L5.69799 12.9937H8.44844Z" fill="#F54B64"/>
<path fill-rule="evenodd" clip-rule="evenodd" d="M7.07287 9.30701C7.4255 9.30701 7.71613 9.55433 7.75585 9.87297L7.76048 9.94768V13.6343C7.76048 13.9882 7.45262 14.275 7.07287 14.275C6.72023 14.275 6.4296 14.0277 6.38988 13.7091L6.38525 13.6343V9.94768C6.38525 9.59385 6.69311 9.30701 7.07287 9.30701Z" fill="#F54B64"/>
</svg>
