<svg width="18" height="18" viewBox="0 0 18 18" fill="none" xmlns="http://www.w3.org/2000/svg">
<path d="M8.13793 4.94547C8.2176 4.77597 8.30556 4.60775 8.40193 4.44144L8.42218 4.40673L8.43364 4.38729C8.60392 4.09965 8.79208 3.83065 8.99476 3.58161C9.78285 2.61329 10.7907 1.9468 11.822 1.65941C11.8257 1.65838 11.8294 1.65736 11.8331 1.65634C12.8104 1.38664 13.8081 1.45747 14.6596 1.93456L14.6832 1.94792C16.6672 3.08074 17.092 6.0105 15.6312 8.4972C14.3405 10.6943 12.0089 11.8114 10.1106 11.2678L12.75 15.7582L11.4418 16.5L9.00057 12.3468L6.5607 16.5L5.24997 15.7563L8.49469 10.233C7.82434 9.45344 7.50191 8.36878 7.56008 7.20308C7.59696 6.46408 7.7868 5.69252 8.13793 4.94547ZM13.3411 3.03657V8.97351C13.6971 8.65803 14.0336 8.25571 14.3266 7.75695C15.5439 5.68473 14.9192 3.80627 13.9155 3.23675C13.7482 3.14181 13.554 3.07401 13.3411 3.03657ZM12.5843 9.50547V3.02685C12.0991 3.09188 11.574 3.28992 11.0708 3.64579V9.90098C11.5376 9.90888 12.064 9.78581 12.5843 9.50547ZM9.57082 9.14773C9.68291 9.30112 9.80913 9.43234 9.94513 9.53811C10.0075 9.58658 10.0718 9.6297 10.1379 9.66716C10.1737 9.68752 10.2108 9.70663 10.2491 9.72446C10.2673 9.73296 10.2858 9.74116 10.3046 9.74907L10.3141 9.75304V4.33063C10.1055 4.56743 9.90784 4.83879 9.7268 5.14696L9.71541 5.16644L9.69847 5.19572C9.65331 5.27435 9.61078 5.35269 9.57082 5.43068C8.78761 6.95917 8.98913 8.35179 9.57082 9.14773Z" fill="#FF4A65"/>
<path d="M7.06683 3.7544C6.52046 3.32936 5.94013 3.09773 5.40805 3.02645V9.48189C5.78256 9.68373 6.1602 9.80386 6.51635 9.85218C6.579 9.99973 6.64817 10.1444 6.72393 10.2859L6.12482 11.3057C4.69962 11.0344 3.27523 10.0248 2.36709 8.47976C0.907152 5.99596 1.33428 3.06905 3.3211 1.94231C4.70269 1.15881 6.47466 1.4521 7.91692 2.53866C7.62376 2.88386 7.35898 3.25519 7.12885 3.64694C7.10788 3.68263 7.08721 3.71845 7.06683 3.7544ZM3.67188 7.73981C3.96359 8.23611 4.29846 8.63656 4.65278 8.95072V3.03626C4.44085 3.07359 4.24769 3.14105 4.0812 3.23547C3.08121 3.80256 2.45768 5.6741 3.67188 7.73981Z" fill="#FF4A65"/>
</svg>
