<svg width="14" height="13" viewBox="0 0 14 13" fill="none" xmlns="http://www.w3.org/2000/svg">
<path fill-rule="evenodd" clip-rule="evenodd" d="M12.5305 0.20459H1.61478C1.02369 0.20459 0.572632 0.674226 0.572632 1.22499V8.54399C0.572632 9.09476 1.02369 9.56439 1.61478 9.56439H12.5305C13.1216 9.56439 13.5726 9.09476 13.5726 8.54399V1.22499C13.5726 0.674226 13.1216 0.20459 12.5305 0.20459ZM12.3903 1.30579V8.46329H1.75393V1.30579H12.3903Z" fill="#F54B64"/>
<path fill-rule="evenodd" clip-rule="evenodd" d="M8.44345 8.46326H5.70202C5.45497 8.46326 5.234 8.60645 5.14803 8.82225L4.17008 11.2773C4.01236 11.6733 4.22485 12.1161 4.64964 12.267C4.7431 12.3002 4.84227 12.3173 4.9423 12.3173H9.20316C9.6601 12.3173 10.0272 11.9705 10.0272 11.5465C10.0272 11.4546 10.0097 11.3635 9.97539 11.2773L8.99743 8.82225C8.91147 8.60645 8.6905 8.46326 8.44345 8.46326ZM8.03236 9.56445L8.69064 11.2162H5.45423L6.1125 9.56445H8.03236Z" fill="#F54B64"/>
</svg>
