<svg width="19" height="18" viewBox="0 0 19 18" fill="none" xmlns="http://www.w3.org/2000/svg">
<path d="M9.36356 15.7436C8.217 15.7466 7.08494 15.5049 6.05419 15.037C5.67696 14.8661 5.31552 14.6664 4.97357 14.44L4.86968 14.3693C3.92921 13.7225 3.1603 12.8835 2.62198 11.9168C2.06516 10.9162 1.77637 9.80495 1.78019 8.67786C1.78019 4.77556 5.1754 1.61212 9.36356 1.61212C13.5517 1.61212 16.9469 4.77556 16.9469 8.67786C16.9507 9.80441 16.6622 10.9151 16.1059 11.9154C15.5683 12.8816 14.8005 13.7203 13.8612 14.3672C13.5069 14.6088 13.1309 14.8216 12.7374 15.0031L12.6767 15.0314C11.6453 15.5017 10.5119 15.7454 9.36356 15.7436ZM9.36356 12.2107C8.22718 12.2087 7.18537 12.8 6.66617 13.7419C8.36589 14.5263 10.3612 14.5263 12.061 13.7419V13.7383C11.5411 12.7975 10.4993 12.2075 9.36356 12.2107ZM9.36356 10.7976C11.0062 10.7996 12.5208 11.6243 13.3289 12.9569L13.3403 12.9477L13.3509 12.9392L13.338 12.9498L13.3304 12.9555C15.2482 11.4117 15.934 8.91974 15.05 6.70659C14.1661 4.49344 11.8987 3.02549 9.36432 3.02549C6.8299 3.02549 4.56255 4.49344 3.6786 6.70659C2.79466 8.91974 3.48041 11.4117 5.39824 12.9555C6.20682 11.6236 7.72128 10.7994 9.36356 10.7976ZM9.36356 10.091C7.6883 10.091 6.33023 8.82563 6.33023 7.26471C6.33023 5.70379 7.6883 4.43842 9.36356 4.43842C11.0388 4.43842 12.3969 5.70379 12.3969 7.26471C12.3969 8.01429 12.0773 8.73317 11.5085 9.2632C10.9396 9.79323 10.1681 10.091 9.36356 10.091ZM9.36356 5.85156C8.52593 5.85156 7.84689 6.48425 7.84689 7.26471C7.84689 8.04517 8.52593 8.67786 9.36356 8.67786C10.2012 8.67786 10.8802 8.04517 10.8802 7.26471C10.8802 6.48425 10.2012 5.85156 9.36356 5.85156Z" fill="#F54B64"/>
</svg>
