<svg width="13" height="17" viewBox="0 0 13 17" fill="none" xmlns="http://www.w3.org/2000/svg">
<path fill-rule="evenodd" clip-rule="evenodd" d="M11.7918 0.576111H1.65296C1.22223 0.576111 0.873047 0.901456 0.873047 1.30279V9.95688L0.878294 10.0416C0.923346 10.403 1.25299 10.6836 1.65296 10.6836L3.9927 10.6835V15.8364C3.9927 16.5627 5.01008 16.8397 5.42981 16.2277L10.8892 8.26722L10.9318 8.19718C11.1849 7.72455 10.8187 7.14926 10.232 7.14926L8.56533 7.14893L12.4418 1.70447C12.7856 1.22145 12.4139 0.576111 11.7918 0.576111ZM10.3379 2.02953L6.46221 7.47431L6.41791 7.54433C6.15431 8.01733 6.51967 8.60267 7.11214 8.60267L8.80767 8.60234L5.55232 13.349V9.95693L5.54707 9.87219C5.50202 9.51078 5.17237 9.23026 4.7724 9.23026L2.43267 9.23019V2.02953H10.3379Z" fill="#F54B64"/>
</svg>
