<svg width="1416" height="2081" viewBox="0 0 1416 2081" fill="none" xmlns="http://www.w3.org/2000/svg">
<g clip-path="url(#clip0_199_5525)">
<rect width="1416" height="2081" fill="white"/>
<g clip-path="url(#clip1_199_5525)">
<rect width="1416" height="2107" fill="url(#paint0_linear_199_5525)"/>
<g style="mix-blend-mode:luminosity" opacity="0.3">
<path d="M1209.73 860.781L1219.55 870.367L1231.7 863.987L1225.62 876.291L1235.44 885.877L1221.86 883.895L1215.78 896.2L1213.47 882.671L1199.89 880.689L1212.04 874.31L1209.73 860.781Z" fill="#FF4A65"/>
</g>
<g style="mix-blend-mode:luminosity" opacity="0.3">
<path d="M1381.73 659.781L1391.55 669.367L1403.7 662.987L1397.62 675.291L1407.44 684.877L1393.86 682.895L1387.78 695.2L1385.47 681.671L1371.89 679.689L1384.04 673.31L1381.73 659.781Z" fill="#FF4A65"/>
</g>
<g style="mix-blend-mode:luminosity" opacity="0.3">
<path d="M1389.73 445.781L1399.55 455.367L1411.7 448.987L1405.62 461.291L1415.44 470.877L1401.86 468.895L1395.78 481.2L1393.47 467.671L1379.89 465.689L1392.04 459.31L1389.73 445.781Z" fill="#FF4A65"/>
</g>
<g style="mix-blend-mode:luminosity" opacity="0.3">
<path d="M1391.73 1150.78L1401.55 1160.37L1413.7 1153.99L1407.62 1166.29L1417.44 1175.88L1403.86 1173.9L1397.78 1186.2L1395.47 1172.67L1381.89 1170.69L1394.04 1164.31L1391.73 1150.78Z" fill="#FF4A65"/>
</g>
</g>
<rect opacity="0.8" x="107" y="356" width="1237" height="163" fill="url(#paint1_linear_199_5525)"/>
<g opacity="0.4" clip-path="url(#clip2_199_5525)">
<path d="M945.248 2244C862.395 2244 779.543 2244 696.691 2244C695.485 2237.75 695.41 2231.2 691.87 2225.48C688.933 2231.42 686.146 2237.3 688.405 2244C659.558 2244 630.635 2244 601.787 2244C598.925 2236.32 596.289 2228.56 592.974 2221.03C590.715 2215.84 587.777 2210.94 584.765 2206.12C583.032 2203.26 580.095 2203.19 577.91 2205.75C573.617 2210.87 572.789 2217.27 573.015 2223.52C573.241 2230.37 574.596 2237.15 575.425 2243.92C550.795 2243.92 526.241 2243.92 501.611 2243.92C502.515 2233.61 503.343 2223.29 504.247 2212.9C504.699 2207.71 505.076 2202.43 505.528 2197.24C505.151 2197.16 504.699 2197.01 504.323 2196.94C503.268 2199.35 501.912 2201.76 501.159 2204.32C496.941 2217.49 492.949 2230.75 488.806 2243.92C460.938 2243.92 433.069 2243.92 405.201 2243.92C403.243 2241.89 401.284 2239.93 399.326 2237.9C399.025 2238.13 398.723 2238.28 398.422 2238.5C398.422 2240.31 398.422 2242.12 398.422 2244C295.007 2244 191.592 2244 88.1776 2244C88.1776 2243.4 88.2529 2242.8 88.2529 2242.12C87.6504 2229.17 86.9725 2216.14 86.5959 2203.19C86.4452 2197.99 87.8763 2192.42 86.5206 2187.68C85.0895 2182.48 85.5414 2177.43 85.0895 2172.31C85.0895 2171.94 85.0142 2171.56 85.0895 2171.18C85.5414 2167.87 84.7882 2164.78 82.0767 2162.75C76.051 2158.38 76.8796 2153.04 79.0639 2147.01C81.0975 2141.44 83.5078 2135.49 83.5831 2129.77C83.8844 2102.96 83.0558 2076.23 78.2353 2049.73C76.8796 2042.35 75.5991 2034.97 74.6953 2027.59C74.0174 2021.94 74.0174 2016.22 73.5655 2010.49C73.4148 2008.54 72.9629 2006.58 72.511 2004.62C71.6071 2000.63 70.176 1996.71 69.7994 1992.72C69.3475 1988.51 69.9501 1984.21 69.8748 1980C69.8748 1978.57 69.2722 1977.14 68.9709 1975.7C66.7113 1979.85 63.6985 1980.45 60.0078 1979.47C56.0158 1978.42 52.0992 1978.34 48.2578 1980.3C46.1489 1981.35 44.8684 1982.78 45.471 1985.34C47.58 1994.45 49.6889 2003.57 51.7226 2012.75C54.5847 2025.63 57.7482 2038.51 60.1584 2051.53C63.0959 2067.27 65.2049 2083.08 67.9918 2098.82C68.8956 2104.17 69.1216 2109.81 72.9629 2114.26C73.7914 2115.24 73.9421 2116.82 74.394 2118.17C72.511 2118.78 70.628 2119.91 68.745 2119.83C64.979 2119.75 61.1376 2119.15 56.9197 2118.7C58.0495 2125.25 59.3299 2130.97 59.9325 2136.77C60.8363 2145.51 62.4181 2144.68 54.886 2147.62C52.5511 2148.52 51.9485 2149.95 52.9277 2152.28C54.5847 2156.12 56.0912 2160.04 57.7482 2163.88C61.8155 2172.99 65.8828 2181.95 71.8331 2190.16C74.6953 2194 77.0302 2199.2 77.2562 2203.86C77.934 2217.42 79.1392 2230.75 81.926 2244C44.4918 2244 7.13294 2244 -30.3013 2244C-30.3013 2092.95 -30.3013 1941.82 -30.3013 1790.77C-27.1378 1791.37 -25.8574 1792.8 -26.3093 1796.49C-26.7612 1800.56 -25.9327 1804.77 -25.6314 1809.07C-21.4888 1809.14 -21.0369 1811.4 -21.7148 1814.64C-22.3173 1817.8 -22.6939 1821.04 -22.9199 1824.28C-23.2965 1828.57 -21.7901 1830.45 -17.6475 1831.66C-14.8606 1832.48 -12.1491 1833.39 -9.43754 1834.29C-6.12344 1835.5 -3.48723 1837.45 -2.35742 1840.99C-0.399096 1847.09 1.70987 1853.04 3.44224 1859.22C4.12012 1861.47 5.17461 1862.45 7.3589 1863.13C12.7066 1864.71 17.9791 1866.75 23.4021 1868.33C27.3188 1869.46 28.5992 1872.09 28.072 1875.71C27.5447 1879.47 26.4903 1883.24 31.9133 1884.67C30.181 1887.75 29.1265 1890.84 27.1681 1892.87C23.0255 1897.24 23.1008 1902.14 23.854 1907.48C24.5319 1912.68 25.2098 1913.28 30.3316 1911.85C31.0848 1911.62 31.7627 1910.95 32.4406 1910.49C35.604 1908.46 38.5415 1905.68 42.0062 1904.55C46.9021 1902.96 50.5928 1899.73 54.7354 1897.09C56.1665 1896.19 57.5222 1895.06 58.652 1893.85C60.8363 1891.52 62.87 1888.96 64.979 1886.55C65.4309 1886.02 66.1841 1885.57 66.41 1884.89C68.8956 1878.19 71.6825 1871.49 73.7161 1864.64C75.1472 1859.89 76.051 1854.92 76.4276 1849.95C76.6536 1847.39 75.2978 1844.76 74.4693 1842.2C73.7914 1839.94 72.9629 1837.68 71.9837 1835.57C71.3058 1834.14 69.9501 1833.01 69.1969 1831.66C66.3347 1826.16 63.4725 1820.59 60.761 1815.01C60.0831 1813.66 60.3091 1811.93 60.0831 1810.35C61.9661 1810.27 64.3764 1809.44 65.6568 1810.27C68.1424 1811.93 70.1761 1814.41 72.1344 1816.82C73.6408 1818.7 74.6953 1820.89 76.4276 1823.9C77.2562 1821.87 77.8587 1820.81 78.0094 1819.76C78.8379 1814.71 76.2017 1811.47 72.2097 1808.99C69.2722 1807.18 67.3892 1804.92 67.0126 1801.31C66.7113 1798.07 65.8075 1794.98 65.3556 1791.75C64.4517 1785.8 69.3475 1779.85 74.6953 1779.92C78.6872 1780 82.7545 1781.2 86.5959 1778.87C87.2738 1778.49 88.6295 1778.79 89.4581 1779.25C92.0943 1780.68 94.5798 1782.33 97.442 1784.07C95.8603 1779.17 94.2786 1774.95 93.2241 1770.66C92.9228 1769.31 93.45 1766.82 94.5045 1766.14C100.53 1762.38 105.125 1756.28 112.657 1754.92C113.109 1754.85 113.485 1754.4 113.787 1754.02C117.402 1749.95 119.812 1749.65 123.653 1753.57C129.453 1759.52 132.014 1767.2 133.52 1775.18C133.746 1776.46 132.918 1778.12 132.165 1779.32C126.968 1787.38 123.428 1796.11 121.319 1805.38C118.532 1817.42 117.854 1829.62 118.306 1841.97C118.532 1848.22 117.101 1854.02 115.293 1859.97C114.088 1864.03 114.464 1868.55 114.088 1873.37C118.08 1869.08 121.394 1865.62 124.708 1862.15C125.687 1861.17 126.968 1860.5 127.796 1859.44C132.541 1853.34 139.245 1852.66 146.174 1852.66C148.133 1852.66 150.166 1852.89 152.049 1853.34C154.836 1854.02 157.698 1854.92 160.334 1855.98C161.69 1856.5 162.669 1857.93 164.025 1858.46C170.729 1861.17 175.022 1865.99 177.432 1872.69C179.165 1877.74 180.897 1882.71 182.931 1888.73C184.663 1886.4 186.094 1884.67 187.299 1882.71C190.538 1877.29 193.4 1871.56 196.94 1866.29C199.727 1862.08 201.233 1862.15 205.225 1865.31C208.69 1862.38 211.025 1863.96 212.607 1867.2C214.565 1867.2 216.147 1867.2 218.03 1867.2C213.285 1858.61 212.306 1849.35 211.326 1840.01C210.724 1834.52 209.293 1829.09 207.862 1823.67C207.184 1821.04 205.527 1818.7 204.397 1816.22C200.631 1808.31 196.79 1800.48 188.655 1795.81C185.341 1793.93 181.499 1791.52 179.993 1788.36C176.754 1781.43 176.227 1773.75 177.884 1766.07C178.035 1765.32 178.788 1764.49 179.466 1764.19C183.157 1762.45 187.525 1763.06 191.065 1760.65C191.517 1760.35 192.496 1761.02 193.174 1761.02C194.078 1761.02 195.208 1761.1 195.961 1760.72C198.748 1759.07 200.857 1760.04 203.116 1761.78C204.773 1762.98 206.732 1763.81 208.615 1764.79C208.841 1764.49 209.142 1764.19 209.368 1763.88C207.937 1760.72 206.355 1757.71 205.225 1754.47C203.568 1749.95 202.062 1745.36 200.782 1740.69C200.556 1739.94 201.61 1738.13 202.288 1738.06C204.849 1737.6 204.322 1736.17 204.171 1734.44C203.493 1728.49 204.623 1726.69 209.519 1725.48C209.443 1724.73 209.067 1723.9 209.217 1723.3C209.745 1721.72 210.573 1720.21 211.251 1718.63C212.607 1719.61 214.565 1720.36 215.243 1721.72C216.448 1723.98 216.975 1726.61 217.578 1729.17C218.406 1732.48 219.009 1735.8 219.687 1739.11C219.988 1739.04 220.289 1739.04 220.591 1738.96C220.44 1737.3 220.214 1735.57 220.214 1733.92C220.139 1729.55 219.988 1725.18 220.214 1720.89C220.289 1719.83 221.57 1717.95 222.248 1717.95C223.453 1717.95 225.185 1718.93 225.713 1719.98C226.616 1721.87 226.918 1724.05 227.219 1726.16C228.273 1732.94 229.177 1739.79 230.307 1746.49C230.533 1747.77 231.738 1748.82 232.491 1749.95C233.094 1748.9 233.922 1747.85 234.299 1746.72C235.354 1743.7 236.031 1740.47 237.387 1737.6C237.839 1736.63 239.873 1736.48 241.153 1735.95C241.53 1737.08 242.132 1738.13 242.208 1739.26C242.509 1749.2 239.571 1758.46 236.182 1767.57C235.203 1770.21 234.224 1773.07 233.998 1775.86C233.169 1787.45 232.642 1799.13 231.889 1810.72C231.588 1815.16 233.169 1818.85 235.579 1822.62C240.325 1829.77 244.618 1837.15 248.987 1844.53C250.644 1847.39 251.849 1850.4 252.979 1852.74C259.23 1851.01 265.331 1852.66 271.281 1851.84C277.834 1850.93 283.257 1853.27 288.831 1857.18C289.584 1852.59 289.358 1848.45 289.584 1844.38C289.885 1840.16 290.639 1836.02 291.241 1831.81C291.543 1829.62 292.446 1827.51 292.296 1825.41C292.07 1821.94 291.015 1818.55 293.727 1815.39C294.254 1814.79 293.802 1813.28 293.651 1812.15C292.898 1806.96 291.919 1801.76 291.543 1796.57C291.467 1795.06 292.898 1792.42 294.179 1791.97C296.514 1791.22 296.89 1793.7 297.342 1795.51C298.02 1798.3 298.698 1801.01 299.451 1803.87C302.916 1802.82 305.703 1802.66 306.682 1805.68C308.791 1806.13 310.825 1805.98 311.879 1806.88C313.084 1807.94 313.461 1810.04 314.515 1812.3C317.754 1804.4 321.52 1797.39 321.068 1789.56C320.616 1782.86 318.884 1776.31 317.905 1769.68C317.679 1767.95 317.528 1765.84 318.206 1764.34C319.938 1760.5 322.123 1756.88 324.307 1753.27C325.286 1751.69 326.341 1749.73 327.847 1749.05C334.701 1745.89 341.706 1743.1 349.012 1740.01C348.334 1738.13 347.656 1735.65 346.602 1733.24C342.685 1724.2 345.321 1715.92 349.539 1707.94C350.066 1706.88 351.799 1705.9 353.079 1705.75C357.372 1705.3 361.666 1705.53 365.959 1705.15C373.416 1704.47 375.374 1706.13 375.525 1713.73C375.6 1718.4 374.997 1723.07 375.675 1727.59C376.278 1731.2 378.312 1734.59 379.969 1737.91C380.948 1739.94 383.057 1741.52 383.735 1743.55C385.09 1748 388.179 1751.23 391.568 1753.64C394.204 1755.53 395.033 1757.48 396.012 1760.35C396.765 1762.6 400.154 1763.96 401.36 1766.22C404.523 1772.54 405.427 1779.55 409.871 1785.65C415.294 1793.1 415.444 1802.82 414.013 1812.08C413.561 1815.16 414.089 1817.72 415.444 1820.66C419.738 1830.3 424.558 1839.94 427.27 1850.1C431.789 1866.82 434.877 1883.91 438.492 1900.93C440.451 1910.19 442.484 1919.53 443.916 1928.87C444.367 1932.11 445.045 1934.67 447.757 1936.25C451.071 1938.21 453.707 1941.67 458.678 1939.86C462.369 1938.51 465.081 1941.14 467.19 1943.93C468.395 1945.51 469.374 1947.24 470.805 1948.67C471.483 1949.35 473.215 1950.03 473.893 1949.65C474.646 1949.27 474.797 1947.62 475.098 1946.56C475.173 1946.34 474.948 1946.11 474.948 1945.81C473.893 1936.62 473.215 1927.29 465.231 1920.81C464.93 1920.58 464.704 1920.21 464.704 1919.83C464.177 1915.77 463.348 1911.7 463.348 1907.63C463.348 1902.21 464.327 1896.79 464.327 1891.37C464.327 1880.75 466.21 1871.19 476.153 1865.09C477.734 1864.11 479.316 1863.28 480.446 1862.6C479.467 1853.79 478.488 1845.51 477.734 1837.23C477.282 1832.18 476.153 1827.44 473.441 1823.07C470.428 1818.18 468.018 1812.98 465.231 1807.94C463.574 1805 461.842 1802.14 459.883 1799.43C458.151 1797.02 458.829 1794.46 461.616 1793.7C462.444 1793.48 463.273 1793.4 464.327 1793.25C462.821 1789.41 464.252 1787 467.566 1785.42C470.278 1784.07 472.989 1782.71 475.701 1781.35C475.625 1780.68 475.399 1779.25 475.249 1777.89C476.906 1777.66 479.015 1776.76 480.22 1777.44C482.404 1778.64 484.664 1780.45 485.718 1782.63C487.451 1786.32 488.204 1790.47 489.484 1794.38C490.087 1796.34 491.066 1798.22 491.819 1800.1C493.1 1797.62 493.25 1795.44 494.004 1793.4C494.23 1792.72 495.962 1792.57 497.016 1792.12C497.77 1795.13 500.858 1797.32 499.351 1801.16C497.468 1805.75 495.962 1810.57 494.531 1815.31C494.23 1816.22 494.907 1817.42 495.133 1818.48C497.996 1813.43 497.996 1813.43 504.096 1811.85C504.85 1811.63 505.528 1810.95 506.206 1810.42C508.691 1808.69 515.846 1807.94 517.805 1809.82C520.893 1812.83 523.906 1815.99 526.316 1819.53C528.5 1822.77 529.253 1827.21 531.739 1830.07C537.614 1836.85 544.092 1843.18 550.494 1849.5C552.753 1851.76 555.465 1853.49 557.423 1854.92C577.459 1835.42 597.343 1828.42 619.412 1852.44C619.412 1843.63 620.24 1835.95 619.186 1828.49C618.056 1820.44 617.077 1812.15 612.257 1805.07C611.654 1804.25 611.353 1802.89 611.428 1801.91C612.031 1796.79 612.784 1791.75 613.537 1786.63C609.696 1782.41 604.724 1778.12 601.184 1772.85C595.535 1764.34 594.255 1754.92 597.72 1744.91C600.281 1737.53 607.21 1734.82 613.612 1739.26C614.817 1740.09 616.173 1740.69 617.604 1741.07C622.801 1742.35 625.061 1744.91 624.986 1750.26C624.91 1752.97 624.383 1755.75 624.157 1758.46C624.082 1759.52 623.931 1760.87 624.458 1761.55C628.375 1766.29 630.409 1771.94 631.99 1777.66C632.744 1780.53 634.476 1781.28 637.639 1781.35C637.639 1774.2 637.715 1767.2 637.564 1760.2C637.489 1757.18 638.769 1756.2 641.631 1756.35C654.888 1757.03 668.219 1757.63 681.476 1758.24C702.867 1759.29 724.333 1760.35 745.724 1761.25C748.511 1761.4 749.415 1762.3 749.339 1765.01C749.189 1770.06 749.264 1775.18 749.264 1780.22C750.846 1778.94 752.051 1777.21 752.729 1775.26C753.557 1773.07 754.009 1770.66 754.386 1768.4C754.687 1766.52 754.763 1764.49 754.537 1762.6C753.859 1757.18 752.654 1751.76 752.352 1746.34C752.202 1743.1 752.955 1739.64 756.495 1737.76C758.077 1736.93 759.508 1735.72 761.09 1734.74C761.993 1734.22 763.048 1733.69 764.102 1733.46C768.094 1732.56 772.312 1732.18 776.154 1730.9C782.255 1728.95 784.363 1729.85 785.795 1736.32C789.335 1735.42 790.163 1736.7 789.561 1740.24C789.109 1742.65 789.937 1745.29 790.163 1747.24C794.456 1745.14 798.524 1742.88 802.817 1741.14C805.378 1740.09 808.315 1739.71 811.102 1739.26C813.889 1738.81 816.827 1738.13 819.613 1738.43C823.153 1738.81 826.392 1740.69 830.309 1739.26C831.74 1738.73 834 1740.47 835.807 1741.29C836.937 1741.82 837.841 1742.73 838.971 1743.1C841.607 1743.93 844.318 1744.53 847.03 1745.29C847.859 1743.1 847.708 1743.25 845.298 1740.09C844.469 1738.96 844.469 1737.23 844.168 1735.72C845.599 1735.65 847.256 1735.04 848.536 1735.5C853.583 1737.45 856.445 1742.57 855.767 1748.07C855.24 1752.14 855.315 1755.98 859.157 1758.54C864.354 1753.57 870.304 1756.51 876.782 1755.45C877.384 1753.19 877.987 1750.03 879.192 1747.02C879.719 1745.74 881.677 1743.85 882.506 1744.08C886.874 1745.14 889.435 1742.5 892.448 1740.32C895.461 1738.13 898.624 1736.17 902.014 1734.59C903.068 1734.14 905.027 1735.27 906.382 1736.02C907.889 1736.93 909.245 1738.06 910.525 1739.26C912.182 1740.84 913.99 1742.42 915.27 1744.38C916.174 1745.74 916.4 1747.54 916.626 1749.2C916.927 1751.54 917.831 1754.32 916.927 1756.13C915.647 1758.69 912.785 1760.27 909.094 1758.76C908.265 1762.53 907.286 1766.14 906.608 1769.83C904.725 1779.77 905.479 1789.79 906.684 1799.73C906.834 1800.86 907.889 1801.99 908.717 1802.97C909.922 1804.47 911.278 1805.75 912.408 1807.26C913.613 1808.91 914.517 1810.72 915.572 1812.38C921.221 1807.48 926.342 1803.04 931.765 1798.3C930.108 1796.04 928.602 1793.78 926.794 1791.75C923.405 1787.83 923.631 1786.02 927.397 1784.22C927.397 1781.81 926.719 1779.32 927.623 1777.74C928.225 1776.69 931.088 1776.91 932.895 1776.61C932.895 1776.69 932.82 1776.31 932.594 1776.08C930.334 1774.35 929.581 1772.32 931.765 1770.13C934.176 1767.73 936.285 1769.01 938.168 1771.04C938.996 1771.94 939.749 1773 940.503 1774.05C941.105 1772.39 941.105 1771.19 940.653 1770.06C939.147 1765.69 937.339 1761.48 935.908 1757.11C935.531 1755.98 936.059 1754.47 936.209 1753.19C937.64 1753.49 939.448 1753.42 940.503 1754.32C941.783 1755.38 942.687 1757.03 943.365 1758.61C945.7 1763.73 947.959 1768.85 950.068 1774.05C953.458 1782.18 956.696 1790.47 960.161 1798.6C960.538 1799.5 961.442 1800.33 962.27 1800.93C966.563 1804.25 971.309 1807.18 975.225 1810.95C979.97 1815.54 982.305 1821.49 981.778 1828.27C981.477 1832.26 980.573 1836.25 980.724 1840.16C980.799 1842.8 981.627 1845.96 983.209 1847.92C988.632 1854.4 994.733 1860.42 1000.31 1866.75C1002.49 1869.23 1004.07 1872.24 1005.96 1875.1C1010.1 1871.79 1010.7 1867.57 1010.1 1862.9C1009.5 1857.78 1008.59 1852.59 1008.67 1847.47C1008.82 1837.38 1013.11 1829.47 1022.6 1825.1C1024.86 1824.05 1027.35 1823.52 1029.53 1822.39C1030.43 1821.94 1031.34 1820.51 1031.41 1819.53C1031.49 1817.05 1031.19 1814.56 1030.89 1812.08C1030.44 1808.09 1030.06 1804.02 1029.38 1800.03C1029.08 1798.15 1028.4 1796.34 1030.96 1796.04C1033.6 1795.74 1033.9 1794 1034.5 1791.97C1035.1 1790.16 1036.08 1788.13 1037.52 1787C1040.98 1784.29 1041.96 1780.53 1039.4 1776.99C1036.84 1773.45 1034.2 1769.91 1031.87 1766.22C1031.11 1765.09 1031.34 1763.36 1031.04 1761.93C1032.69 1761.93 1034.73 1761.32 1035.78 1762.08C1038.04 1763.58 1039.93 1765.69 1041.66 1767.88C1044.9 1771.94 1047.98 1776.23 1051.75 1781.35C1054.46 1778.94 1056.87 1776.91 1059.21 1774.73C1060.86 1773.22 1061.99 1771.04 1063.88 1769.91C1067.42 1767.88 1070.88 1765.24 1075.63 1767.95C1077.96 1769.23 1080.67 1769.61 1082.71 1771.79C1083.91 1773.15 1085.95 1773.75 1088.06 1774.88C1089.11 1775.93 1091.22 1777.14 1091.07 1778.04C1090.62 1780.83 1089.71 1783.76 1088.28 1786.25C1085.64 1790.99 1085.95 1794 1090.54 1797.09C1094.61 1799.8 1098.83 1802.44 1103.04 1805C1105.15 1806.28 1106.58 1808.99 1109.9 1807.48C1112.31 1806.35 1115.17 1805.98 1117.58 1804.85C1120.74 1803.42 1123.68 1801.61 1127 1799.73C1126.62 1795.06 1132.34 1795.51 1134.38 1792.42C1135.21 1793.03 1136.03 1793.48 1136.79 1794.16C1137.54 1794.83 1138.14 1795.66 1139.27 1797.02C1139.27 1793.1 1139.2 1790.54 1139.27 1787.91C1139.65 1779.55 1139.88 1771.19 1140.63 1762.91C1140.93 1759.74 1142.36 1756.66 1143.72 1753.72C1144.17 1752.74 1146.05 1752.36 1147.26 1751.69C1147.78 1752.82 1148.46 1753.95 1148.76 1755.07C1148.91 1755.83 1148.46 1756.81 1148.39 1757.63C1147.86 1761.55 1147.41 1765.47 1146.96 1768.85C1150.95 1770.81 1153.43 1764.64 1157.2 1768.4C1159.46 1770.66 1162.25 1772.47 1165.11 1774.65C1165.48 1773.07 1165.86 1771.64 1166.16 1770.29C1166.92 1767.12 1167.22 1763.81 1168.5 1760.87C1169.18 1759.29 1171.36 1758.31 1172.87 1757.11C1173.32 1758.76 1174.3 1760.42 1174.22 1762C1174 1766.9 1173.17 1771.72 1173.02 1776.54C1172.94 1778.12 1173.54 1780.45 1174.67 1781.13C1180.17 1784.44 1179.34 1791.37 1183.26 1795.74C1185.22 1797.92 1186.42 1800.33 1189.36 1801.61C1191.02 1802.36 1192.9 1804.02 1193.5 1805.68C1195.99 1812.08 1195.24 1818.7 1193.88 1825.33C1192.68 1831.13 1196.29 1837.23 1202.54 1839.34C1201.94 1832.41 1201.64 1825.71 1200.81 1819.08C1200.36 1815.69 1199.23 1812.23 1197.72 1809.14C1193.96 1801.46 1188.98 1794.16 1191.7 1784.89C1192.52 1782.18 1193.43 1779.47 1194.48 1776.84C1195.16 1775.1 1196.14 1773.6 1197.04 1771.94C1198.4 1773.07 1199.76 1774.28 1201.11 1775.41C1201.26 1775.56 1201.56 1775.48 1202.17 1775.63C1202.69 1773.9 1203.22 1772.17 1203.82 1770.44C1205.93 1764.49 1207.81 1758.39 1210.38 1752.59C1210.98 1751.08 1213.69 1749.43 1215.2 1749.65C1218.13 1750.1 1217.68 1752.97 1217.23 1755.23C1216.33 1759.22 1215.5 1763.28 1214.22 1767.2C1213.16 1770.36 1212.11 1773.07 1216.55 1774.43C1217.23 1774.65 1217.46 1775.86 1218.06 1776.46C1219.04 1777.59 1220.17 1778.72 1221.22 1779.77C1225.29 1783.84 1231.16 1787 1230.11 1793.85C1229.36 1798.67 1227.85 1803.57 1225.74 1808.01C1224.31 1811.1 1223.03 1813.73 1224.23 1817.12C1224.61 1818.18 1224.69 1819.31 1224.84 1820.44C1226.72 1831.88 1228.68 1843.25 1230.64 1855.15C1234.25 1854.02 1236.89 1852.97 1239.67 1852.44C1243.37 1851.69 1244.72 1849.43 1245.1 1845.89C1245.63 1841.67 1246.23 1837.45 1247.43 1833.39C1249.84 1825.33 1254.59 1819.76 1263.63 1818.4C1270.33 1817.35 1276.88 1816.07 1284.34 1818.85C1284.34 1814.19 1284.34 1810.42 1284.34 1806.66C1284.34 1806.05 1284.19 1805.3 1284.49 1804.85C1287.28 1800.93 1289.99 1796.94 1293 1793.18C1293.75 1792.27 1295.64 1791.52 1296.84 1791.75C1300.76 1792.5 1303.17 1791.6 1304 1787.83C1304.75 1784.37 1304.6 1780.68 1305.2 1777.14C1305.43 1775.78 1306.86 1774.65 1307.69 1773.45C1308.74 1774.2 1309.87 1774.95 1310.85 1775.78C1311.23 1776.08 1311.38 1776.61 1311.38 1776.61C1313.26 1775.86 1315.3 1774.35 1316.65 1774.88C1317.86 1775.33 1318.38 1777.82 1318.99 1779.55C1319.59 1781.13 1319.44 1783.54 1320.49 1784.29C1323.43 1786.32 1322.38 1787.83 1320.72 1789.71C1320.04 1790.47 1319.51 1791.37 1319.14 1792.27C1316.58 1799.43 1313.79 1806.5 1311.61 1813.81C1310.55 1817.35 1310.1 1821.19 1310.02 1824.88C1309.95 1830.83 1313.19 1834.59 1318.99 1836.1C1321.77 1836.85 1324.49 1837.68 1327.2 1838.51C1330.96 1839.64 1333.45 1842.12 1335.48 1845.59C1339.7 1852.89 1339.85 1860.87 1340.6 1868.78C1340.75 1870.13 1340.98 1872.09 1341.96 1872.69C1344.67 1874.5 1347.76 1875.78 1350.92 1877.29C1353.11 1871.26 1355.22 1865.69 1357.1 1859.97C1357.7 1858.16 1357.93 1855.9 1357.33 1854.25C1355.07 1848.22 1352.35 1842.35 1349.79 1836.32C1349.12 1834.74 1348.36 1833.09 1347.91 1831.43C1347.16 1828.94 1348.44 1827.66 1350.77 1827.21C1354.31 1826.53 1356.04 1829.02 1357.63 1831.43C1358.91 1833.31 1359.89 1835.42 1361.24 1837.98C1362.15 1834.44 1362.9 1831.66 1363.58 1828.87C1357.4 1826.08 1355.97 1822.69 1357.4 1815.54C1357.7 1814.19 1357.85 1812.53 1357.4 1811.25C1355.67 1806.43 1355.82 1805.98 1359.36 1804.62C1360.79 1802.51 1361.54 1801.01 1362.67 1799.95C1362.9 1799.73 1364.63 1801.16 1365.69 1801.84C1367.57 1803.04 1369.53 1805.45 1371.18 1805.3C1376.16 1804.77 1381.65 1806.58 1385.95 1801.84C1388.51 1799.05 1392.05 1796.41 1395.66 1795.36C1400.48 1793.93 1402.89 1791.22 1403.27 1786.63C1403.8 1780.22 1403.95 1773.75 1404.4 1767.27C1404.63 1763.81 1404.25 1759.82 1405.83 1757.18C1408.09 1753.49 1411.93 1750.78 1415.1 1747.7C1415.1 1777.06 1415.1 1806.43 1415.1 1835.8C1413.36 1835.57 1411.71 1835.34 1409.82 1835.12C1408.62 1841.29 1407.49 1847.39 1406.28 1853.57C1406.58 1853.72 1406.89 1853.87 1407.19 1854.02C1409.82 1849.2 1412.46 1844.38 1415.02 1839.64C1415.02 1974.42 1415.02 2109.21 1415.02 2244C1260.39 2244 1105.76 2244 951.123 2244C946.829 2228.94 942.687 2213.8 938.243 2198.74C936.737 2193.62 934.402 2188.8 932.443 2183.84C931.841 2183.91 931.313 2183.99 930.711 2184.06C930.033 2188.73 927.623 2194 928.978 2197.99C935.155 2213.28 938.168 2229.32 945.248 2244ZM804.323 1835.5C807.487 1833.84 811.554 1830.3 816.073 1829.55C820.668 1828.79 825.79 1830.68 830.987 1831.43C831.137 1831.05 831.589 1830.3 831.815 1829.47C834.075 1822.24 836.334 1814.94 838.594 1807.71C839.272 1805.45 840.552 1803.34 841.004 1801.08C841.532 1797.92 840.929 1794.61 841.833 1791.6C843.189 1786.78 841.758 1783.24 838.519 1779.77C836.41 1777.51 834.527 1774.95 833.171 1772.24C832.117 1770.13 831.062 1769.46 828.802 1769.98C826.995 1770.44 825.112 1770.59 823.304 1770.51C820.216 1770.29 817.203 1769.76 814.19 1769.38C813.362 1774.35 813.286 1774.43 809.219 1773.07C801.612 1782.11 795.285 1791.75 793.477 1803.27C795.963 1805 798.222 1806.66 800.859 1808.46C801.988 1807.03 803.043 1805.53 804.323 1804.25C805.679 1802.82 807.487 1800.78 809.295 1802.82C810.5 1804.1 810.801 1806.5 810.801 1808.39C810.801 1809.82 809.52 1811.25 808.843 1812.68C809.294 1812.6 809.746 1812.6 810.198 1812.53C810.575 1813.96 811.629 1815.62 811.253 1816.75C808.993 1823.45 806.432 1830 804.323 1835.5ZM370.554 1855.37C370.328 1853.27 369.8 1850.86 369.951 1848.52C370.328 1840.69 370.554 1832.78 371.533 1825.03C373.114 1812.15 371.231 1799.58 368.896 1787C368.671 1785.87 367.767 1784.37 366.788 1784.07C362.419 1782.79 359.707 1779.62 356.921 1776.31C355.941 1775.1 354.36 1773.9 352.929 1773.67C352.251 1773.6 351.196 1775.71 350.066 1777.14C349.313 1777.21 348.033 1777.29 346.3 1777.44C344.191 1783.09 342.836 1789.26 339.672 1794.46C336.509 1799.73 336.283 1805.3 335.002 1810.87C334.852 1811.55 335.605 1812.91 336.283 1813.36C339.446 1815.54 342.836 1817.35 345.924 1819.68C353.983 1825.86 360.009 1833.16 357.975 1844.38C357.749 1845.59 357.297 1846.87 357.372 1848.07C357.448 1848.97 357.975 1850.25 358.653 1850.56C362.419 1852.21 366.26 1853.72 370.554 1855.37ZM497.016 1828.87C496.489 1829.32 495.962 1829.77 495.51 1830.22C496.489 1839.49 500.18 1847.92 504.172 1856.28C505.528 1859.14 507.561 1860.72 510.348 1862.23C517.504 1865.92 525.036 1869.38 527.822 1878.04C529.555 1883.46 529.253 1888.88 527.973 1894.31C527.747 1895.21 528.048 1896.34 528.274 1897.24C529.178 1900.25 530.459 1903.19 531.212 1906.2C531.965 1909.14 532.492 1911.85 536.183 1912.83C537.84 1913.28 539.045 1915.24 540.401 1916.59C542.736 1918.78 544.845 1921.26 547.481 1922.92C549.364 1924.05 551.699 1923.75 552.904 1920.81C554.185 1917.57 556.143 1914.64 557.8 1911.55C559.231 1908.91 559.005 1906.73 556.294 1904.92C555.164 1904.17 553.959 1902.74 553.808 1901.46C553.205 1897.92 553.205 1894.23 552.829 1890.62C552.753 1889.56 552.603 1888.36 552 1887.53C544.619 1877.44 537.388 1867.2 529.479 1857.56C525.337 1852.51 519.989 1848.45 514.867 1844.31C511.177 1841.37 506.808 1839.41 503.117 1836.47C500.782 1834.44 499.05 1831.43 497.016 1828.87ZM222.474 1880.07C219.988 1883.01 218.181 1885.42 216.072 1887.6C213.963 1889.86 211.929 1892.35 209.368 1893.93C203.041 1897.92 196.413 1901.46 189.935 1905.15C183.834 1908.69 182.78 1911.25 184.211 1918.02C184.512 1919.38 184.286 1920.96 184.06 1922.32C183.006 1927.21 181.876 1932.11 180.746 1937C187.45 1938.58 190.086 1937.68 194.756 1933.69C198.221 1930.75 200.104 1926.16 204.924 1924.73C205.828 1924.43 206.355 1922.84 207.033 1921.79C207.786 1920.66 208.54 1919.53 209.293 1918.48C210.498 1916.67 212.004 1914.94 212.983 1912.98C216.298 1905.83 218.708 1898.22 222.775 1891.59C225.336 1887.68 224.733 1884.82 222.474 1880.07ZM885.745 1842.8C886.046 1842.72 886.422 1842.65 886.724 1842.57C886.799 1841.37 887.1 1840.24 887.025 1839.03C886.648 1833.84 885.82 1828.64 885.669 1823.37C885.519 1815.84 881.451 1810.57 876.104 1804.4C875.501 1808.01 874.145 1810.95 874.823 1813.21C877.008 1820.89 879.87 1828.34 882.506 1835.8C883.56 1838.28 884.766 1840.54 885.745 1842.8ZM1086.32 1802.97C1084.67 1800.1 1083.31 1800.25 1081.5 1802.21C1079.47 1804.4 1076.98 1806.13 1074.87 1808.16C1071.41 1811.47 1068.4 1815.16 1067.79 1821.41C1073.07 1818.78 1078.79 1824.35 1083.01 1818.55C1080.07 1814.11 1080.37 1813.13 1085.04 1810.35C1082.78 1807.63 1083.76 1805.15 1086.32 1802.97ZM782.706 1765.84C776.907 1770.13 775.626 1775.78 775.325 1781.88C775.174 1784.29 775.174 1786.7 774.873 1789.04C774.421 1792.8 773.819 1796.49 773.291 1800.25C773.819 1800.33 774.346 1800.41 774.798 1800.41C781.351 1790.16 785.117 1779.1 782.706 1765.84ZM609.846 1922.77C620.316 1918.7 621.596 1915.99 618.433 1904.55C616.474 1905.75 613.688 1906.5 613.236 1908.01C611.654 1912.6 611.051 1917.35 609.846 1922.77ZM791.745 1847.84C797.846 1847.47 796.791 1840.39 800.934 1838.43C796.113 1841.44 787.376 1838.13 786.548 1847.39C788.205 1848.15 789.711 1848.82 791.368 1849.58C791.594 1848.82 791.67 1848.15 791.745 1847.84ZM737.213 1847.09C736.912 1846.64 736.61 1846.19 736.309 1845.74C732.167 1845.74 727.949 1845.74 723.429 1845.74C724.785 1848.9 726.066 1851.91 727.572 1855.45C731.112 1852.36 734.125 1849.73 737.213 1847.09ZM853.583 1852.21C852.302 1846.26 851.173 1840.92 849.892 1834.97C846.051 1842.57 846.729 1845.66 853.583 1852.21Z" fill="#090919"/>
</g>
<g style="mix-blend-mode:lighten">
<g style="mix-blend-mode:luminosity" opacity="0.3">
<path d="M47.8907 1651L52.1319 1664.05H65.8568L54.7531 1672.12L58.9943 1685.17L47.8907 1677.11L36.787 1685.17L41.0282 1672.12L29.9246 1664.05H43.6494L47.8907 1651Z" fill="#FF4A65"/>
</g>
<g style="mix-blend-mode:luminosity" opacity="0.3">
<path d="M230.913 1884L240.736 1893.58L252.888 1887.2L246.807 1899.51L256.629 1909.09L243.048 1907.11L236.967 1919.41L234.655 1905.89L221.074 1903.9L233.226 1897.52L230.913 1884Z" fill="#FF4A65"/>
</g>
<g style="mix-blend-mode:luminosity" opacity="0.3">
<path d="M915.726 1028.78L925.548 1038.37L937.7 1031.99L931.619 1044.29L941.442 1053.88L927.861 1051.9L921.78 1064.2L919.467 1050.67L905.886 1048.69L918.038 1042.31L915.726 1028.78Z" fill="#FF4A65"/>
</g>
<g style="mix-blend-mode:luminosity" opacity="0.3">
<path d="M72.7258 854.781L82.5485 864.367L94.7004 857.987L88.6192 870.291L98.4419 879.877L84.8608 877.895L78.7796 890.2L76.4673 876.671L62.8862 874.69L75.0381 868.31L72.7258 854.781Z" fill="#FF4A65"/>
</g>
<g style="mix-blend-mode:luminosity" opacity="0.3">
<path d="M1255.73 1608.78L1265.55 1618.37L1277.7 1611.99L1271.62 1624.29L1281.44 1633.88L1267.86 1631.9L1261.78 1644.2L1259.47 1630.67L1245.89 1628.69L1258.04 1622.31L1255.73 1608.78Z" fill="#FF4A65"/>
</g>
<g style="mix-blend-mode:luminosity" opacity="0.3">
<path d="M69.7258 1234.78L79.5485 1244.37L91.7004 1237.99L85.6192 1250.29L95.4419 1259.88L81.8608 1257.9L75.7796 1270.2L73.4673 1256.67L59.8862 1254.69L72.0381 1248.31L69.7258 1234.78Z" fill="#FF4A65"/>
</g>
<g style="mix-blend-mode:luminosity" opacity="0.3">
<path d="M1338.73 928.781L1348.55 938.367L1360.7 931.987L1354.62 944.291L1364.44 953.877L1350.86 951.895L1344.78 964.2L1342.47 950.671L1328.89 948.689L1341.04 942.31L1338.73 928.781Z" fill="#FF4A65"/>
</g>
<g style="mix-blend-mode:luminosity" opacity="0.3">
<path d="M294.726 995.781L304.548 1005.37L316.7 998.987L310.619 1011.29L320.442 1020.88L306.861 1018.9L300.78 1031.2L298.467 1017.67L284.886 1015.69L297.038 1009.31L294.726 995.781Z" fill="#FF4A65"/>
</g>
<g style="mix-blend-mode:luminosity" opacity="0.3">
<path d="M1346.73 1426.78L1356.55 1436.37L1368.7 1429.99L1362.62 1442.29L1372.44 1451.88L1358.86 1449.9L1352.78 1462.2L1350.47 1448.67L1336.89 1446.69L1349.04 1440.31L1346.73 1426.78Z" fill="#FF4A65"/>
</g>
<g style="mix-blend-mode:luminosity" opacity="0.3">
<path d="M230.913 1411.73L240.736 1421.31L252.888 1414.93L246.807 1427.24L256.629 1436.82L243.048 1434.84L236.967 1447.15L234.655 1433.62L221.074 1431.64L233.226 1425.26L230.913 1411.73Z" fill="#FF4A65"/>
</g>
<g style="mix-blend-mode:luminosity" opacity="0.3">
<path d="M1363.73 1695.78L1373.55 1705.37L1385.7 1698.99L1379.62 1711.29L1389.44 1720.88L1375.86 1718.9L1369.78 1731.2L1367.47 1717.67L1353.89 1715.69L1366.04 1709.31L1363.73 1695.78Z" fill="#FF4A65"/>
</g>
<g style="mix-blend-mode:luminosity" opacity="0.3">
<path d="M243.507 507.073L253.33 516.659L265.482 510.279L259.4 522.584L269.223 532.169L255.642 530.188L249.561 542.492L247.249 528.963L233.667 526.982L245.819 520.602L243.507 507.073Z" fill="#FF4A65"/>
</g>
<g style="mix-blend-mode:luminosity" opacity="0.3">
<path d="M293.882 -7.17214L303.705 2.41362L315.857 -3.96617L309.776 8.33794L319.598 17.9237L306.017 15.9423L299.936 28.2464L297.624 14.7177L284.043 12.7363L296.195 6.35654L293.882 -7.17214Z" fill="#FF4A65"/>
</g>
<g style="mix-blend-mode:luminosity" opacity="0.3">
<path d="M1104.08 9.61986L1113.9 19.2056L1126.06 12.8258L1119.98 25.1299L1129.8 34.7157L1116.22 32.7343L1110.14 45.0384L1107.82 31.5097L1094.24 29.5283L1106.39 23.1485L1104.08 9.61986Z" fill="#FF4A65"/>
</g>
<g style="mix-blend-mode:luminosity" opacity="0.3">
<path d="M1095.69 712.773L1105.51 722.358L1117.66 715.979L1111.58 728.283L1121.4 737.868L1107.82 735.887L1101.74 748.191L1099.43 734.662L1085.85 732.681L1098 726.301L1095.69 712.773Z" fill="#FF4A65"/>
</g>
</g>
</g>
<defs>
<linearGradient id="paint0_linear_199_5525" x1="734.55" y1="320.948" x2="737.495" y2="2971.9" gradientUnits="userSpaceOnUse">
<stop offset="0.155269" stop-color="#090919"/>
<stop offset="0.610101" stop-color="#F54B64"/>
<stop offset="0.837878" stop-color="#F44962"/>
<stop offset="1" stop-color="#EF3D57"/>
</linearGradient>
<linearGradient id="paint1_linear_199_5525" x1="786.525" y1="479.548" x2="786.719" y2="355.995" gradientUnits="userSpaceOnUse">
<stop stop-color="#090919"/>
<stop offset="1" stop-color="#090919" stop-opacity="0"/>
</linearGradient>
<clipPath id="clip0_199_5525">
<rect width="1416" height="2081" fill="white"/>
</clipPath>
<clipPath id="clip1_199_5525">
<rect width="1416" height="2107" fill="white"/>
</clipPath>
<clipPath id="clip2_199_5525">
<rect width="1446" height="539" fill="white" transform="translate(-30 1705)"/>
</clipPath>
</defs>
</svg>
