<svg width="375" height="841" viewBox="0 0 375 841" fill="none" xmlns="http://www.w3.org/2000/svg">
<g clip-path="url(#clip0_148_2096)">
<rect width="375" height="841" fill="url(#paint0_linear_148_2096)"/>
<g style="mix-blend-mode:lighten">
<g style="mix-blend-mode:luminosity" opacity="0.3">
<path d="M3 791L5.02063 797.219H11.5595L6.26944 801.062L8.29007 807.281L3 803.438L-2.29007 807.281L-0.269442 801.062L-5.55951 797.219H0.979374L3 791Z" fill="#FF4A65"/>
</g>
<g style="mix-blend-mode:luminosity" opacity="0.3">
<path d="M117.969 536.183L122.648 540.75L128.438 537.711L125.541 543.573L130.22 548.14L123.75 547.196L120.853 553.058L119.751 546.612L113.281 545.668L119.07 542.629L117.969 536.183Z" fill="#FF4A65"/>
</g>
<g style="mix-blend-mode:luminosity" opacity="0.3">
<path d="M19.9686 517.183L24.6484 521.75L30.4379 518.711L27.5406 524.573L32.2204 529.14L25.75 528.196L22.8528 534.058L21.7511 527.612L15.2807 526.668L21.0703 523.629L19.9686 517.183Z" fill="#FF4A65"/>
</g>
<g style="mix-blend-mode:luminosity" opacity="0.3">
<path d="M311.969 787.183L316.648 791.75L322.438 788.711L319.541 794.573L324.22 799.14L317.75 798.196L314.853 804.058L313.751 797.612L307.281 796.668L313.07 793.629L311.969 787.183Z" fill="#FF4A65"/>
</g>
<g style="mix-blend-mode:luminosity" opacity="0.3">
<path d="M1.96858 649.183L6.64837 653.75L12.4379 650.711L9.54064 656.573L14.2204 661.14L7.75004 660.196L4.8528 666.058L3.75112 659.612L-2.71926 658.668L3.07025 655.629L1.96858 649.183Z" fill="#FF4A65"/>
</g>
<g style="mix-blend-mode:luminosity" opacity="0.3">
<path d="M354.969 678.183L359.648 682.75L365.438 679.711L362.541 685.573L367.22 690.14L360.75 689.196L357.853 695.058L356.751 688.612L350.281 687.668L356.07 684.629L354.969 678.183Z" fill="#FF4A65"/>
</g>
<g style="mix-blend-mode:luminosity" opacity="0.3">
<path d="M342.969 586.183L347.648 590.75L353.438 587.711L350.541 593.573L355.22 598.14L348.75 597.196L345.853 603.058L344.751 596.612L338.281 595.668L344.07 592.629L342.969 586.183Z" fill="#FF4A65"/>
</g>
<g style="mix-blend-mode:luminosity" opacity="0.3">
<path d="M68.9686 615.183L73.6484 619.75L79.4379 616.711L76.5406 622.573L81.2204 627.14L74.75 626.196L71.8528 632.058L70.7511 625.612L64.2807 624.668L70.0703 621.629L68.9686 615.183Z" fill="#FF4A65"/>
</g>
<g style="mix-blend-mode:luminosity" opacity="0.3">
<path d="M194.969 728.183L199.648 732.75L205.438 729.711L202.541 735.573L207.22 740.14L200.75 739.196L197.853 745.058L196.751 738.612L190.281 737.668L196.07 734.629L194.969 728.183Z" fill="#FF4A65"/>
</g>
<g style="mix-blend-mode:luminosity" opacity="0.3">
<path d="M13.9686 742.183L18.6484 746.75L24.4379 743.711L21.5406 749.573L26.2204 754.14L19.75 753.196L16.8528 759.058L15.7511 752.612L9.28074 751.668L15.0703 748.629L13.9686 742.183Z" fill="#FF4A65"/>
</g>
<g style="mix-blend-mode:luminosity" opacity="0.3">
<path d="M19.9686 311.183L24.6484 315.75L30.4379 312.711L27.5406 318.573L32.2204 323.14L25.75 322.196L22.8528 328.058L21.7511 321.612L15.2807 320.668L21.0703 317.629L19.9686 311.183Z" fill="#FF4A65"/>
</g>
<g style="mix-blend-mode:luminosity" opacity="0.3">
<path d="M43.9686 66.1835L48.6484 70.7504L54.4379 67.7109L51.5406 73.5729L56.2204 78.1398L49.75 77.1958L46.8528 83.0578L45.7511 76.6124L39.2807 75.6684L45.0703 72.6289L43.9686 66.1835Z" fill="#FF4A65"/>
</g>
<g style="mix-blend-mode:luminosity" opacity="0.3">
<path d="M326.969 299.183L331.648 303.75L337.438 300.711L334.541 306.573L339.22 311.14L332.75 310.196L329.853 316.058L328.751 309.612L322.281 308.668L328.07 305.629L326.969 299.183Z" fill="#FF4A65"/>
</g>
<g style="mix-blend-mode:luminosity" opacity="0.3">
<path d="M117.969 179.183L122.648 183.75L128.438 180.711L125.541 186.573L130.22 191.14L123.75 190.196L120.853 196.058L119.751 189.612L113.281 188.668L119.07 185.629L117.969 179.183Z" fill="#FF4A65"/>
</g>
<g style="mix-blend-mode:luminosity" opacity="0.3">
<path d="M128.969 335.183L133.648 339.75L139.438 336.711L136.541 342.573L141.22 347.14L134.75 346.196L131.853 352.058L130.751 345.612L124.281 344.668L130.07 341.629L128.969 335.183Z" fill="#FF4A65"/>
</g>
<g style="mix-blend-mode:luminosity" opacity="0.3">
<path d="M247.969 275.183L252.648 279.75L258.438 276.711L255.541 282.573L260.22 287.14L253.75 286.196L250.853 292.058L249.751 285.612L243.281 284.668L249.07 281.629L247.969 275.183Z" fill="#FF4A65"/>
</g>
<g style="mix-blend-mode:luminosity" opacity="0.3">
<path d="M312.969 50.1835L317.648 54.7504L323.438 51.7109L320.541 57.5729L325.22 62.1398L318.75 61.1958L315.853 67.0578L314.751 60.6124L308.281 59.6684L314.07 56.6289L312.969 50.1835Z" fill="#FF4A65"/>
</g>
<g style="mix-blend-mode:luminosity" opacity="0.3">
<path d="M259.969 505.183L264.648 509.75L270.438 506.711L267.541 512.573L272.22 517.14L265.75 516.196L262.853 522.058L261.751 515.612L255.281 514.668L261.07 511.629L259.969 505.183Z" fill="#FF4A65"/>
</g>
<g style="mix-blend-mode:luminosity" opacity="0.3">
<path d="M359.969 453.183L364.648 457.75L370.438 454.711L367.541 460.573L372.22 465.14L365.75 464.196L362.853 470.058L361.751 463.612L355.281 462.668L361.07 459.629L359.969 453.183Z" fill="#FF4A65"/>
</g>
<g style="mix-blend-mode:luminosity" opacity="0.3">
<path d="M23.9686 417.183L28.6484 421.75L34.4379 418.711L31.5406 424.573L36.2204 429.14L29.75 428.196L26.8528 434.058L25.7511 427.612L19.2807 426.668L25.0703 423.629L23.9686 417.183Z" fill="#FF4A65"/>
</g>
<g style="mix-blend-mode:luminosity" opacity="0.3">
<path d="M346.969 155.184L351.648 159.75L357.438 156.711L354.541 162.573L359.22 167.14L352.75 166.196L349.853 172.058L348.751 165.612L342.281 164.668L348.07 161.629L346.969 155.184Z" fill="#FF4A65"/>
</g>
</g>
<g opacity="0.4">
<mask id="mask0_148_2096" style="mask-type:alpha" maskUnits="userSpaceOnUse" x="-237" y="383" width="333" height="291">
<path d="M-237 646.862C-235.07 646.921 -233.169 647.04 -231.238 647.04C-215.439 647.1 -199.669 647.13 -183.869 647.159C-183.543 647.159 -183.186 647.13 -182.86 647.1C-182.384 645.701 -181.998 644.302 -181.434 643.022C-179.504 638.587 -176.059 635.64 -171.841 633.497C-171.426 633.288 -170.891 632.782 -170.891 632.395C-170.832 628.525 -170.861 624.686 -170.861 620.637C-173.475 620.637 -176.059 620.637 -178.702 620.637C-178.702 617.542 -178.731 614.624 -178.702 611.707C-178.583 602.718 -178.434 593.758 -178.286 584.768C-178.286 584.024 -178.524 583.191 -177.365 582.893C-177.128 582.833 -177.009 581.97 -177.009 581.464C-176.771 567.682 -176.563 553.9 -176.326 540.088C-176.237 533.778 -176.118 527.497 -176.029 521.186C-176.029 520.71 -176.148 520.204 -176.296 519.758C-176.86 518.061 -175.91 516.9 -174.128 517.168C-168.753 517.972 -163.377 518.805 -158.002 519.609C-156.279 519.877 -154.587 520.115 -152.864 520.383C-150.934 520.68 -150.577 521.186 -151.082 523.032C-151.171 523.3 -151.201 523.627 -151.201 523.895C-151.32 531.188 -151.409 538.481 -151.498 545.774C-151.498 545.952 -151.468 546.161 -151.201 546.399C-150.132 541.339 -149.092 536.248 -148.023 531.069C-147.103 531.248 -146.093 531.456 -145.053 531.664C-145.588 533.927 -146.122 536.1 -146.568 538.273C-148.201 545.863 -149.894 553.483 -151.409 561.104C-151.795 562.979 -151.735 564.944 -151.765 566.878C-151.825 570.689 -151.765 574.499 -151.765 578.488C-151.32 578.517 -150.785 578.577 -150.28 578.577C-146.776 578.607 -143.242 578.547 -139.737 578.636C-138.995 578.666 -138.104 578.994 -137.54 579.5C-135.312 581.464 -133.233 583.607 -131.065 585.632C-129.818 586.792 -129.283 588.162 -129.283 589.858C-129.313 593.728 -129.283 597.568 -129.283 601.646C-124.769 601.646 -120.196 601.646 -115.592 601.646C-115.533 602.42 -115.474 602.986 -115.414 603.581C-115.295 603.611 -115.147 603.64 -115.028 603.67C-112.504 595.306 -110.009 586.941 -107.455 578.517C-108.405 578.458 -109.177 578.398 -110.098 578.339C-110.098 576.91 -110.098 575.541 -110.098 573.993C-119.513 573.784 -128.808 573.546 -138.252 573.338C-138.312 572.683 -138.341 572.058 -138.401 571.165C-139.44 571.165 -140.509 571.195 -141.579 571.165C-144.341 571.076 -147.103 570.927 -149.894 570.837C-150.845 570.808 -151.142 570.391 -151.112 569.438C-150.993 567.265 -150.904 565.063 -150.993 562.89C-151.052 561.52 -150.458 561.223 -149.271 561.193C-143.271 561.104 -137.302 560.895 -131.303 560.866C-126.254 560.836 -121.205 560.985 -116.157 561.074C-115.711 561.074 -115.295 561.163 -114.791 561.223C-114.791 564.348 -114.791 567.414 -114.791 570.57C-113.306 570.57 -111.791 570.57 -110.068 570.57C-110.068 568.903 -110.068 567.236 -110.068 565.42C-108.673 565.42 -107.455 565.42 -106 565.42C-106 563.336 -106 561.401 -106 559.496C-106 558.067 -105.94 556.609 -106 555.18C-106.029 554.376 -105.584 553.394 -106.712 552.888C-106.831 552.829 -106.831 552.442 -106.831 552.203C-106.831 548.423 -106.831 544.672 -106.831 540.803C-99.3473 540.803 -92.1008 540.803 -84.5871 540.803C-84.5871 539.017 -84.5871 537.261 -84.5871 535.475C-84.5871 532.736 -84.5871 532.736 -81.9142 532.706C-77.8455 532.676 -73.8065 532.676 -69.7378 532.587C-68.9062 532.557 -67.9856 532.319 -67.2431 531.932C-60.5313 528.122 -53.8491 524.252 -47.1372 520.442C-45.2365 519.341 -43.3655 518.388 -41.0787 517.942C-37.0694 517.168 -33.1789 515.709 -29.2884 514.459C-28.8132 514.31 -28.4865 513.685 -27.8332 512.971C-27.3877 512.971 -26.5264 512.971 -25.5761 512.971C-25.487 512.346 -25.3979 511.84 -25.3088 511.125C-22.9626 511.125 -20.6164 511.125 -18.0623 511.125C-18.0623 507.732 -18.0623 504.517 -18.0623 501.302C-18.0623 501.124 -18.1811 500.796 -18.2702 500.796C-20.3194 500.439 -19.3988 498.742 -19.8146 497.224C-21.2698 497.224 -22.8141 497.165 -24.3584 497.254C-24.6257 497.284 -24.9821 497.82 -25.1009 498.207C-26.5561 502.344 -29.3478 505.202 -33.4165 506.72C-37.7822 508.357 -42.0291 507.791 -45.8602 505.261C-50.7605 502.046 -52.8394 497.254 -52.78 491.658C-54.9182 491.539 -57.0269 491.598 -59.076 491.301C-62.4617 490.795 -65.1048 488.8 -67.0649 486.062C-72.1731 478.947 -71.0742 469.601 -65.6691 463.231C-64.8078 462.218 -63.709 461.445 -62.6399 460.492C-63.0853 460.313 -63.5308 460.254 -63.6793 460.046C-64.0357 459.48 -64.6 458.736 -64.4515 458.26C-64.303 457.813 -63.3526 457.396 -62.7587 457.367C-62.0459 457.337 -61.1549 457.545 -60.6797 457.992C-59.4918 459.093 -58.2445 458.587 -56.9971 458.379C-51.7702 457.486 -46.4245 459.867 -43.5734 464.332C-43.0388 465.195 -42.7715 466.416 -41.3757 466.445C-41.2272 466.445 -41.049 466.981 -40.9302 467.279C-40.6629 468.083 -40.4254 468.886 -40.1878 469.72C-39.2077 469.839 -37.901 469.154 -37.604 470.791C-37.604 470.881 -37.2476 470.91 -37.0694 470.94C-35.3172 471.149 -33.5353 471.357 -31.6643 471.595C-31.1891 469.035 -29.2884 470.285 -27.8035 470.017C-27.655 470.464 -27.5362 470.851 -27.2689 471.655C-26.8828 470.791 -26.5858 470.226 -26.467 469.928C-29.9715 467.1 -33.9214 464.124 -37.604 460.879C-42.1182 456.89 -45.5632 451.949 -48.6815 446.799C-49.2161 445.936 -48.5925 442.721 -47.6421 442.007C-45.9196 440.727 -44.9692 439.09 -44.7316 436.917C-44.6722 436.321 -44.0783 435.607 -43.5437 435.25C-41.7618 434.029 -39.9205 432.839 -38.0198 431.797C-37.4258 431.469 -36.5645 431.35 -35.8518 431.469C-34.7232 431.618 -33.6541 432.035 -32.5552 432.362C-29.6151 433.196 -27.8332 432.333 -26.5858 429.386C-25.0415 429.654 -23.2893 430.309 -22.1904 428.225C-24.6851 428.284 -25.9622 426.558 -27.4768 424.921C-28.9914 423.284 -30.8327 421.765 -32.8522 420.843C-35.7033 419.533 -38.7622 418.432 -41.8509 417.955C-43.9892 417.628 -46.3354 418.312 -48.5034 418.908C-49.9289 419.295 -51.0277 418.878 -52.186 418.372C-52.5424 418.223 -52.7502 417.419 -52.7502 416.913C-52.7502 416.199 -52.483 415.455 -52.3048 414.621C-55.8389 413.282 -59.9076 412.984 -62.4023 409.591C-62.729 409.591 -63.2041 409.68 -63.5902 409.561C-66.1146 408.817 -68.6093 408.043 -71.104 407.239C-71.9355 406.971 -72.2622 406.436 -72.0543 405.543C-70.8367 400.333 -69.7675 395.094 -68.3717 389.915C-68.045 388.695 -66.6492 387.831 -65.8473 386.7C-64.4812 384.706 -62.8774 384.349 -60.6797 385.361C-58.4821 386.343 -56.1062 386.938 -53.8491 387.802C-53.2848 388.01 -52.869 388.575 -52.186 389.111C-52.0078 388.754 -51.6811 388.129 -51.295 387.385C-49.8398 387.563 -48.2955 388.218 -46.8402 387.087C-46.662 386.938 -46.0978 387.236 -45.7414 387.385C-43.6031 388.248 -41.4648 389.141 -39.1483 390.123C-38.8216 388.516 -38.4949 386.938 -38.1683 385.361C-37.6634 382.95 -37.01 382.592 -34.6935 383.366C-27.2689 385.837 -19.874 388.308 -12.4493 390.778C-10.4595 391.433 -8.46973 392.088 -6.50963 392.773C-6.15324 392.892 -5.61865 393.07 -5.52956 393.308C-5.20287 394.32 -6.00475 395.333 -5.20288 396.523C-4.25253 397.952 -6.15323 398.22 -6.866 398.964C-6.9254 399.024 -6.95508 399.113 -7.01448 399.262C-6.53931 399.589 -6.06415 399.917 -5.35138 400.393C-5.97505 400.482 -6.36111 400.542 -6.7175 400.601C-6.74719 400.72 -6.80661 400.839 -6.8363 400.958C-6.39082 401.197 -5.94534 401.524 -5.47017 401.643C-4.51982 401.881 -4.13373 402.268 -4.46042 403.31C-4.78711 404.292 -5.2029 404.471 -6.21265 404.173C-7.1333 403.876 -8.17273 403.905 -9.59827 403.757C-9.034 404.53 -8.70731 405.007 -8.58852 405.126C-7.60846 405.066 -6.95509 405.037 -6.30173 405.007C-6.24232 405.185 -6.21265 405.334 -6.15324 405.513C-6.50963 405.751 -6.86601 405.989 -7.34119 406.287C-6.77692 407.001 -6.27203 407.864 -5.55927 408.46C-4.9059 409.025 -4.01494 409.323 -3.24278 409.502C-2.44092 409.502 -1.60936 409.561 -0.807495 409.472C-0.391708 409.412 0.0537567 409.174 0.380447 408.906C1.1526 408.162 1.98418 408.013 2.72664 408.757C3.82549 409.859 5.04312 409.263 6.20137 409.204C6.79533 409.174 7.41901 409.085 8.01297 409.025C8.10207 409.025 8.22086 409.115 8.30995 409.085C10.864 408.281 12.4677 410.543 14.5763 411.109C14.9921 411.228 15.5564 411.228 15.9128 411.049C17.6056 410.097 18.1996 410.186 19.3281 411.585C20.1003 411.526 20.8724 411.288 21.5258 411.436C25.0005 412.3 28.4753 413.222 31.9203 414.205C33.0488 414.532 34.0883 415.157 35.2168 415.455C36.3454 415.753 37.563 415.812 38.7509 415.991C39.2855 416.08 39.8201 416.11 40.3547 416.288C42.3445 416.913 44.2749 417.628 46.2647 418.223C49.5315 419.176 52.7984 420.098 56.0652 420.962C57.3423 421.319 60.1339 419.563 60.6685 418.193C61.2031 416.765 62.3613 416.318 63.7571 416.854C64.7669 417.241 65.836 417.509 66.9646 417.866C66.9646 418.283 66.9646 418.699 66.9646 419.503C68.8059 419.86 70.6769 420.307 72.5776 420.515C72.9637 420.545 73.4091 419.741 73.8843 419.235C76.9136 419.146 80.2101 419.057 83.477 418.908C86.3577 418.789 89.2979 418.938 92.0302 417.568C93.3369 416.913 94.1981 417.777 93.9011 419.265C91.5846 431.172 89.2385 443.078 86.922 455.015C86.6844 456.295 86.1201 456.98 84.8134 457.307C77.1215 459.391 69.489 461.593 61.8267 463.737C59.8072 464.302 59.7775 464.272 59.243 462.278C59.1539 461.921 58.8569 461.593 58.6193 461.296C57.0453 459.301 55.4415 457.367 53.9269 455.342C53.422 454.658 53.1844 453.794 52.6499 452.634C51.1649 451.83 49.2643 450.788 47.2744 449.687C46.829 450.907 45.938 450.877 44.7204 450.49C39.6716 448.883 34.6229 447.365 29.5444 445.817C29.0692 445.668 28.6237 445.549 28.0892 445.4C27.7031 446.442 27.9704 446.948 29.0395 447.246C31.8906 448.049 34.7119 448.972 37.563 449.836C39.5528 450.461 39.5825 450.431 39.1667 452.574C39.6419 452.753 40.1171 452.961 40.6517 453.199C40.6517 453.408 40.7111 453.675 40.6517 453.884C39.8795 456.176 40.2953 458.289 41.4535 460.373C42.2851 461.861 41.2753 464.63 39.9092 465.582C34.1477 469.601 27.7328 472.131 20.9615 473.768C19.833 474.036 19.5063 474.542 19.5063 475.673C19.4766 482.013 19.3281 488.383 19.3281 494.724C19.3281 496.153 18.8232 496.599 17.5759 496.778C15.3188 497.105 13.0914 497.581 10.864 498.058C10.5076 498.117 9.94337 498.564 9.97307 498.742C10.2107 500.26 9.23062 500.618 7.98328 500.796C7.98328 504.011 7.98328 507.196 7.98328 510.351C7.98328 510.589 8.01299 510.976 8.13177 511.036C9.58701 511.602 8.87422 512.882 9.05241 513.864C9.29001 515.174 8.66634 515.62 7.41899 515.65C0.736816 515.709 -5.94534 515.828 -12.5978 515.918C-15.2113 515.948 -17.8248 515.918 -20.6758 515.918C-20.6758 523.032 -20.6758 530.206 -20.6758 537.588C-22.1013 537.588 -23.3487 537.677 -24.5366 537.528C-24.893 537.499 -25.3979 536.874 -25.4276 536.516C-25.5464 535.207 -25.4573 533.867 -25.4573 532.498C-25.8137 532.409 -25.9919 532.319 -26.17 532.319C-28.5459 532.17 -28.7241 532.17 -28.4865 529.849C-28.3083 528.033 -29.4963 527.944 -30.5654 527.408C-31.7831 526.783 -32.1395 527.705 -32.674 528.36C-33.5947 529.462 -34.3371 530.771 -35.4063 531.664C-39.5344 535.177 -42.5934 539.582 -45.8602 543.809C-55.0667 555.627 -64.0654 567.563 -73.1531 579.47C-73.2719 579.619 -73.3313 579.797 -73.4798 580.035C-72.9453 580.393 -72.4701 580.72 -71.9652 581.018C-60.1155 588.459 -48.2361 595.901 -36.3864 603.402C-34.9905 604.295 -33.6244 604.742 -31.9613 604.682C-30.8921 604.652 -29.6151 604.117 -28.7835 605.456C-28.6944 605.635 -28.1302 605.516 -27.7738 605.516C-26.2294 605.516 -24.6851 605.635 -23.1705 605.486C-21.8341 605.337 -20.9728 606.081 -19.9928 606.706C-19.7552 606.855 -19.5473 607.272 -19.4879 607.57C-19.1909 608.939 -20.8243 611.201 -22.2201 611.439C-23.4675 611.648 -24.7445 611.826 -26.0215 612.273C-25.3979 612.392 -24.7445 612.511 -24.1208 612.66C-23.1111 612.898 -22.5765 613.612 -22.6953 614.624C-22.9329 617.006 -25.3979 619.179 -27.8332 619.179C-29.1102 619.179 -30.3575 619.179 -31.6346 619.179C-31.694 619.328 -31.7237 619.476 -31.7831 619.625C-31.397 619.834 -31.0109 620.131 -30.5951 620.25C-23.9427 621.917 -20.0818 626.233 -18.6563 632.812C-17.9733 635.937 -18.6266 639.033 -19.7255 641.98C-20.4085 643.826 -21.151 645.641 -21.9529 647.665C-18.983 647.665 -16.0132 647.665 -13.073 647.665C16.8631 647.725 46.7993 647.785 76.7651 647.874C82.8533 647.904 88.9415 647.993 95.0297 648.052C95.0297 650.642 95.0297 653.202 95.0297 655.792C72.6964 655.792 50.3631 655.792 27.9704 655.792C28.1486 657.161 28.3862 658.441 28.505 659.721C28.5644 660.674 28.9207 660.971 29.8711 660.971C51.5807 661.031 73.3201 661.09 95.0297 661.15C95.0297 664.127 95.0297 667.103 95.0297 670.08C73.3795 670.08 51.7292 670.08 29.9899 670.08C29.9899 671.39 29.9899 672.67 29.9899 673.95C27.2279 673.95 24.4362 673.95 21.6743 673.95C21.4367 672.61 21.1694 671.271 20.9021 669.842C20.4269 669.842 19.9221 669.842 19.4469 669.842C-13.9046 669.723 -47.256 669.633 -80.6075 669.455C-82.8052 669.455 -84.3792 669.871 -85.478 671.866C-85.8047 672.431 -86.369 673.295 -86.8442 673.295C-89.6358 673.444 -92.4275 673.354 -95.3677 673.354C-95.2786 671.896 -95.1895 670.705 -95.1004 669.455C-95.6053 669.455 -96.1992 669.455 -96.7932 669.455C-128.808 669.365 -160.823 669.276 -192.838 669.098C-195.095 669.098 -197.085 669.455 -198.956 670.794C-200.144 671.658 -201.451 672.729 -202.817 672.908C-205.52 673.235 -208.311 672.997 -211.311 672.997C-211.133 671.568 -210.984 670.378 -210.836 669.098C-210.598 669.157 -210.746 669.098 -210.895 669.098C-216.924 669.068 -222.953 669.008 -229.011 669.008C-229.486 669.008 -229.991 669.157 -230.407 669.395C-232.605 670.497 -234.802 671.658 -237 672.789C-237 668.621 -237 664.454 -237 660.287C-234.98 660.257 -232.961 660.227 -230.941 660.197C-229.249 660.168 -227.407 660.614 -225.922 660.048C-222.418 658.709 -219.062 656.863 -215.558 655.196C-215.766 655.018 -215.855 654.929 -215.914 654.929C-222.923 654.929 -229.961 654.929 -236.97 654.929C-237 652.22 -237 649.541 -237 646.862ZM-161.031 522.496C-161.031 523.211 -161.031 523.746 -161.031 524.282C-161.18 533.302 -161.328 542.321 -161.477 551.34C-161.625 561.104 -161.774 570.867 -161.863 580.631C-161.863 581.047 -161.506 581.464 -161.298 581.881C-161.091 581.494 -160.675 581.077 -160.675 580.69C-160.675 579.827 -160.289 579.5 -159.546 579.47C-158.447 579.44 -158.091 578.815 -157.913 577.803C-157.556 575.719 -157.022 573.636 -156.576 571.552C-156.042 568.843 -155.151 566.134 -155.091 563.396C-154.765 550.626 -154.646 537.826 -154.468 525.026C-154.468 524.491 -154.468 523.955 -154.468 523.359C-156.665 523.062 -158.715 522.794 -161.031 522.496ZM-72.8265 647.487C-68.4311 647.487 -64.4218 647.517 -60.4422 647.457C-60.0858 647.457 -59.5215 646.921 -59.4324 646.564C-58.4524 642.159 -55.631 638.795 -52.9581 635.372C-51.7108 633.794 -50.5526 632.127 -49.3646 630.52C-47.9985 628.645 -46.7808 626.65 -45.2365 624.953C-44.1377 623.733 -43.9001 622.542 -44.1971 620.965C-50.6416 620.965 -57.0565 620.965 -63.6199 620.965C-63.6199 623.346 -63.6793 625.668 -63.5902 627.99C-63.5605 629.061 -64.2733 630.49 -62.5805 631.085C-62.4617 631.145 -62.3726 631.532 -62.4023 631.77C-62.4617 634.479 -62.5211 637.217 -62.6102 639.926C-62.6398 640.73 -63.0556 641.027 -63.8575 640.998C-64.7485 640.938 -65.6394 640.938 -66.5304 640.998C-66.9462 641.027 -67.451 641.147 -67.7183 641.414C-69.3814 643.29 -70.9555 645.254 -72.8265 647.487ZM-82.3597 655.226C-86.6957 655.226 -90.5862 655.226 -94.4767 655.226C-110.365 655.197 -126.224 655.167 -142.113 655.137C-142.588 655.137 -143.242 655.137 -143.479 655.435C-144.786 656.983 -146.004 658.649 -147.251 660.287C-147.103 660.316 -146.984 660.406 -146.835 660.406C-127.145 660.465 -107.455 660.525 -87.7648 660.584C-87.3788 660.584 -86.8442 660.435 -86.6066 660.168C-85.2404 658.649 -83.9634 657.102 -82.3597 655.226ZM-45.6226 470.553C-44.1377 468.767 -45.2959 467.398 -46.1869 465.969C-49.3052 460.968 -56.1359 459.659 -60.8282 463.171C-66.5601 467.457 -68.7578 475.167 -65.9661 481.745C-65.4018 483.055 -64.4812 484.246 -63.8575 485.228C-61.6004 483.025 -59.5512 481.001 -57.4723 478.947C-58.6306 477.34 -59.1057 475.316 -57.7396 473.708C-56.6408 472.369 -54.9479 471.029 -53.3442 470.672C-50.9089 470.166 -48.2658 470.553 -45.6226 470.553ZM-26.467 660.793C-10.7565 660.793 4.77585 660.793 20.3973 660.793C20.2785 659.007 20.1597 657.369 20.0409 655.583C5.22131 655.583 -9.50917 655.583 -24.1208 655.583C-24.8633 657.28 -25.6058 658.947 -26.467 660.793ZM-167.773 581.881C-168.04 571.254 -168.307 560.866 -168.575 550.358C-168.842 550.477 -168.99 550.507 -169.079 550.596C-170 551.34 -170.95 551.4 -171.663 550.388C-172.406 549.346 -171.663 548.75 -170.891 547.947C-169.97 547.024 -168.961 545.685 -168.872 544.464C-168.604 540.922 -168.782 537.38 -168.782 533.778C-170.297 533.689 -171.337 533.599 -172.524 533.54C-172.762 549.733 -173.029 565.866 -173.267 581.851C-171.307 581.881 -169.644 581.881 -167.773 581.881ZM-55.631 603.73C-55.6013 603.64 -55.5716 603.551 -55.5716 603.462C-63.9763 598.818 -72.3513 594.204 -80.9936 589.442C-80.9936 594.413 -80.9936 599.027 -80.9936 603.73C-72.4998 603.73 -64.0654 603.73 -55.631 603.73ZM-11.3802 427.302C-8.41032 428.582 -5.55925 429.773 -2.76759 431.053C-2.17363 431.321 -1.72815 431.916 -1.19357 432.333C-0.926285 432.541 -0.629288 432.72 -0.332306 432.809C3.58791 434.029 7.50809 435.25 11.4283 436.411C11.7847 436.53 12.349 436.5 12.6162 436.292C13.8339 435.339 14.9624 434.267 16.0019 433.374C15.1703 432.868 14.1903 432.273 12.9726 431.559C12.2005 431.916 10.9234 431.856 10.5077 430.725C9.7058 428.403 7.5675 428.552 6.14197 428.642C3.85518 428.79 2.81573 427.123 1.4496 426.171C0.231964 425.337 -0.510498 424.028 -2.32211 424.147C-2.76759 424.177 -3.33188 423.194 -3.80705 422.629C-4.04465 422.331 -4.13373 421.825 -4.40102 421.587C-5.02469 421.051 -5.70776 420.575 -6.36113 420.098C-6.71751 419.86 -7.28177 419.95 -7.78665 419.831C-9.42007 419.444 -10.1625 419.86 -10.0437 421.527C-9.86555 423.611 -10.4001 425.457 -11.3802 427.302ZM-205.223 654.988C-204.955 656.357 -205.817 656.834 -206.797 657.31C-208.519 658.114 -210.182 659.036 -211.875 659.9C-208.4 660.257 -205.015 660.019 -201.659 660.316C-196.372 660.763 -191.591 659.781 -187.314 656.596C-186.869 656.268 -186.364 656.06 -185.889 655.792C-185.592 655.613 -185.325 655.375 -184.82 655.018C-191.799 654.988 -198.451 654.988 -205.223 654.988ZM-49.1567 495.557C-48.444 498.951 -46.6917 501.332 -44.0783 502.999C-41.7618 504.487 -39.1483 504.934 -36.416 504.458C-35.733 504.338 -34.8717 504.219 -35.3469 503.029C-35.9112 501.57 -36.416 500.052 -36.7427 498.534C-36.9803 497.522 -37.3961 497.165 -38.4059 497.135C-39.1483 497.105 -39.8611 496.688 -40.6035 496.421C-41.7618 495.944 -42.8903 495.111 -44.0783 495.051C-45.6523 494.932 -47.3154 495.349 -49.1567 495.557ZM-73.2422 655.316C-74.4896 657.34 -75.4696 658.888 -76.5091 660.584C-70.0942 660.584 -63.7684 660.584 -57.4426 660.584C-58.0069 659.185 -58.6603 657.846 -59.0463 656.447C-59.3136 655.524 -59.7591 655.316 -60.6203 655.345C-62.432 655.375 -64.2733 655.345 -66.0849 655.316C-68.639 655.316 -71.193 655.316 -73.2422 655.316ZM-99.9115 543.541C-100.713 547.113 -99.4066 550.596 -100.921 554.019C-101.575 555.508 -101.04 557.561 -101.04 559.347C-98.6642 555.895 -96.4962 552.412 -94.5064 548.84C-93.6748 547.351 -92.6354 546.22 -91.0911 545.506C-90.0516 545.03 -89.1013 544.375 -88.1212 543.779C-88.1509 543.69 -88.2103 543.601 -88.24 543.541C-92.1305 543.541 -96.0507 543.541 -99.9115 543.541ZM-35.9112 387.474C-36.1785 388.754 -36.416 389.796 -36.6833 390.987C-30.0309 393.16 -23.4972 395.303 -16.8744 397.476C-16.6071 396.226 -16.3695 395.184 -16.1319 394.023C-22.725 391.82 -29.229 389.677 -35.9112 387.474ZM-164.506 529.968C-164.506 527.527 -164.476 525.265 -164.536 523.002C-164.536 522.615 -165.011 522.02 -165.337 521.96C-167.565 521.603 -169.822 521.335 -172.227 521.038C-172.227 524.223 -172.227 527.289 -172.227 530.384C-169.733 530.265 -167.238 530.117 -164.506 529.968ZM-125.482 641.563C-125.423 641.712 -125.363 641.861 -125.274 642.01C-125.215 642.04 -125.185 642.069 -125.126 642.069C-112.207 642.099 -99.3176 642.159 -86.3987 642.159C-86.1017 642.159 -85.8047 641.772 -85.5077 641.534C-85.8344 641.325 -86.1314 640.968 -86.4581 640.968C-99.0206 640.908 -111.583 640.908 -124.146 640.908C-124.591 640.879 -125.036 641.325 -125.482 641.563ZM-157.408 628.287C-157.319 628.347 -157.2 628.436 -157.111 628.496C-154.408 624.328 -149.627 623.316 -145.41 620.727C-149.657 620.727 -153.488 620.727 -157.408 620.727C-157.408 623.316 -157.408 625.817 -157.408 628.287ZM5.99347 510.679C2.63753 507.94 -0.510498 505.351 -3.86644 502.642C-3.86644 505.47 -3.86644 507.97 -3.86644 510.679C-0.629303 510.679 2.54843 510.679 5.99347 510.679ZM6.55774 509.726C6.55774 506.571 6.55774 503.832 6.55774 500.975C3.55818 501.124 0.64772 501.243 -2.58942 501.392C0.528931 504.249 3.4097 506.839 6.55774 509.726ZM-16.5477 500.915C-16.5477 503.803 -16.5477 506.601 -16.5477 509.488C-13.8749 506.601 -11.2911 503.832 -8.94489 501.302C-11.0238 501.213 -13.7561 501.064 -16.5477 500.915ZM-36.9803 487.312C-37.604 486.984 -37.7525 486.836 -37.901 486.806C-39.6532 486.389 -41.5242 486.389 -42.9497 484.99C-43.1576 484.811 -43.9298 484.931 -44.2268 485.169C-46.0087 486.687 -47.7312 488.264 -49.424 489.902C-49.6913 490.14 -49.8398 490.676 -49.7804 491.033C-49.7507 491.241 -49.1864 491.539 -48.8894 491.539C-48.0579 491.509 -47.2263 491.36 -46.4245 491.182C-45.5929 491.003 -44.7613 490.795 -43.9892 490.467C-42.9497 489.991 -41.9994 489.306 -40.9599 488.83C-39.772 488.294 -38.5543 487.907 -36.9803 487.312ZM-6.33142 510.679C-6.33142 508.178 -6.33142 505.857 -6.33142 503.326C-9.59827 505.827 -12.7166 508.208 -15.924 510.679C-12.5087 510.679 -9.44977 510.679 -6.33142 510.679ZM-50.018 483.591C-51.5029 483.234 -52.9284 482.906 -54.354 482.579C-54.5322 482.549 -54.7697 482.46 -54.8588 482.549C-56.2547 483.829 -57.6505 485.109 -58.9572 486.478C-59.4621 487.014 -59.2839 487.729 -58.4821 487.997C-56.3735 488.622 -54.3243 488.383 -52.3048 487.58C-52.0672 487.49 -51.8296 487.223 -51.7108 486.984C-51.1465 485.883 -50.612 484.782 -50.018 483.591ZM-3.00519 437.423C-1.87665 437.78 -0.866898 438.078 0.113159 438.405C3.38 439.387 6.61713 440.429 9.88397 441.352C10.2404 441.441 10.7452 441.084 11.161 440.905C10.9531 440.608 10.8046 440.102 10.5373 440.012C6.32014 438.673 2.07326 437.393 -2.20334 436.083C-2.47063 436.53 -2.70821 436.917 -3.00519 437.423ZM-91.5959 603.64C-89.6952 603.64 -88.1212 603.64 -86.4878 603.64C-86.4878 601.438 -86.4878 599.354 -86.4878 596.913C-88.2697 599.294 -89.8734 601.378 -91.5959 603.64ZM-33.268 497.433C-32.6146 499.129 -32.0504 500.707 -31.4564 502.255C-31.2188 502.285 -31.0109 502.314 -30.7733 502.344C-29.7339 500.856 -28.6944 499.338 -27.655 497.849C-27.7738 497.73 -27.8926 497.581 -28.0114 497.462C-29.6151 497.433 -31.2188 497.433 -33.268 497.433ZM-8.46973 397.059C-8.46973 396.88 -8.46971 396.702 -8.4994 396.523C-10.1625 395.987 -11.8553 395.422 -13.9936 394.707C-13.756 396.017 -13.5779 396.97 -13.4294 397.863C-12.7166 397.684 -12.2117 397.535 -11.6772 397.476C-10.5783 397.327 -9.50917 397.208 -8.46973 397.059ZM-132.758 620.756C-132.788 620.846 -132.818 620.905 -132.847 620.994C-131.837 621.56 -130.828 622.126 -129.699 622.78C-129.699 621.977 -129.699 621.411 -129.699 620.756C-130.798 620.756 -131.778 620.756 -132.758 620.756ZM-165.248 537.886C-165.13 537.886 -165.011 537.886 -164.862 537.915C-164.862 536.516 -164.862 535.117 -164.862 533.718C-164.981 533.718 -165.1 533.718 -165.248 533.718C-165.248 535.088 -165.248 536.487 -165.248 537.886Z" fill="#963045"/>
</mask>
<g mask="url(#mask0_148_2096)">
<rect x="-99" y="364" width="214" height="181" fill="#191626"/>
</g>
</g>
<g opacity="0.4">
<mask id="mask1_148_2096" style="mask-type:alpha" maskUnits="userSpaceOnUse" x="283" y="383" width="251" height="291">
<path d="M533.97 646.862C532.511 646.921 531.074 647.04 529.615 647.04C517.673 647.1 505.753 647.13 493.81 647.159C493.564 647.159 493.294 647.13 493.047 647.1C492.688 645.701 492.396 644.302 491.97 643.022C490.511 638.587 487.907 635.64 484.719 633.497C484.405 633.288 484.001 632.782 484.001 632.395C483.956 628.525 483.978 624.686 483.978 620.637C485.954 620.637 487.907 620.637 489.904 620.637C489.904 617.542 489.927 614.624 489.904 611.707C489.815 602.718 489.702 593.758 489.59 584.768C489.59 584.024 489.77 583.191 488.894 582.893C488.715 582.833 488.625 581.97 488.625 581.464C488.445 567.682 488.288 553.9 488.109 540.088C488.041 533.778 487.952 527.497 487.884 521.186C487.884 520.71 487.974 520.204 488.086 519.758C488.513 518.061 487.794 516.9 486.447 517.168C482.384 517.972 478.321 518.805 474.258 519.609C472.956 519.877 471.677 520.115 470.375 520.383C468.915 520.68 468.646 521.186 469.028 523.032C469.095 523.3 469.118 523.627 469.118 523.895C469.207 531.188 469.275 538.481 469.342 545.774C469.342 545.952 469.32 546.161 469.118 546.399C468.309 541.339 467.524 536.248 466.716 531.069C466.02 531.248 465.256 531.456 464.471 531.664C464.875 533.927 465.279 536.1 465.616 538.273C466.85 545.863 468.13 553.483 469.275 561.104C469.566 562.979 469.522 564.944 469.544 566.878C469.589 570.689 469.544 574.499 469.544 578.488C469.207 578.517 468.803 578.577 468.422 578.577C465.773 578.607 463.101 578.547 460.453 578.636C459.891 578.666 459.218 578.994 458.791 579.5C457.108 581.464 455.536 583.607 453.898 585.632C452.955 586.792 452.551 588.162 452.551 589.858C452.573 593.728 452.551 597.568 452.551 601.646C449.139 601.646 445.682 601.646 442.202 601.646C442.157 602.42 442.112 602.986 442.067 603.581C441.978 603.611 441.865 603.64 441.776 603.67C439.868 595.306 437.982 586.941 436.051 578.517C436.77 578.458 437.353 578.398 438.049 578.339C438.049 576.91 438.049 575.541 438.049 573.993C445.165 573.784 452.192 573.546 459.33 573.338C459.375 572.683 459.397 572.058 459.442 571.165C460.228 571.165 461.036 571.195 461.844 571.165C463.932 571.076 466.02 570.927 468.13 570.837C468.848 570.808 469.073 570.391 469.05 569.438C468.96 567.265 468.893 565.063 468.96 562.89C469.005 561.52 468.556 561.223 467.658 561.193C463.124 561.104 458.612 560.895 454.077 560.866C450.261 560.836 446.445 560.985 442.629 561.074C442.292 561.074 441.978 561.163 441.596 561.223C441.596 564.348 441.596 567.414 441.596 570.57C440.474 570.57 439.329 570.57 438.027 570.57C438.027 568.903 438.027 567.236 438.027 565.42C436.972 565.42 436.051 565.42 434.951 565.42C434.951 563.336 434.951 561.401 434.951 559.496C434.951 558.067 434.907 556.609 434.951 555.18C434.974 554.376 434.637 553.394 435.49 552.888C435.58 552.829 435.58 552.442 435.58 552.203C435.58 548.423 435.58 544.672 435.58 540.803C429.923 540.803 424.446 540.803 418.766 540.803C418.766 539.017 418.766 537.261 418.766 535.475C418.766 532.736 418.766 532.736 416.746 532.706C413.671 532.676 410.618 532.676 407.542 532.587C406.914 532.557 406.218 532.319 405.657 531.932C400.583 528.122 395.532 524.252 390.459 520.442C389.023 519.341 387.608 518.388 385.88 517.942C382.849 517.168 379.909 515.709 376.968 514.459C376.609 514.31 376.362 513.685 375.868 512.971C375.531 512.971 374.88 512.971 374.162 512.971C374.094 512.346 374.027 511.84 373.96 511.125C372.186 511.125 370.413 511.125 368.482 511.125C368.482 507.732 368.482 504.517 368.482 501.302C368.482 501.124 368.572 500.796 368.64 500.796C370.189 500.439 369.493 498.742 369.807 497.224C370.907 497.224 372.074 497.165 373.241 497.254C373.443 497.284 373.713 497.82 373.803 498.207C374.903 502.344 377.013 505.202 380.088 506.72C383.388 508.357 386.598 507.791 389.494 505.261C393.198 502.046 394.769 497.254 394.724 491.658C396.341 491.539 397.934 491.598 399.483 491.301C402.042 490.795 404.04 488.8 405.522 486.062C409.383 478.947 408.552 469.601 404.467 463.231C403.816 462.218 402.985 461.445 402.177 460.492C402.514 460.313 402.851 460.254 402.963 460.046C403.232 459.48 403.659 458.736 403.546 458.26C403.434 457.813 402.716 457.396 402.267 457.367C401.728 457.337 401.055 457.545 400.696 457.992C399.798 459.093 398.855 458.587 397.912 458.379C393.961 457.486 389.92 459.867 387.765 464.332C387.361 465.195 387.159 466.416 386.104 466.445C385.992 466.445 385.857 466.981 385.768 467.279C385.565 468.083 385.386 468.886 385.206 469.72C384.466 469.839 383.478 469.154 383.253 470.791C383.253 470.881 382.984 470.91 382.849 470.94C381.525 471.149 380.178 471.357 378.764 471.595C378.405 469.035 376.968 470.285 375.845 470.017C375.733 470.464 375.643 470.851 375.441 471.655C375.15 470.791 374.925 470.226 374.835 469.928C377.484 467.1 380.47 464.124 383.253 460.879C386.665 456.89 389.269 451.949 391.626 446.799C392.031 445.936 391.559 442.721 390.841 442.007C389.539 440.727 388.82 439.09 388.641 436.917C388.596 436.321 388.147 435.607 387.743 435.25C386.396 434.029 385.004 432.839 383.568 431.797C383.119 431.469 382.468 431.35 381.929 431.469C381.076 431.618 380.268 432.035 379.437 432.362C377.215 433.196 375.868 432.333 374.925 429.386C373.758 429.654 372.433 430.309 371.603 428.225C373.488 428.284 374.454 426.558 375.599 424.921C376.743 423.284 378.135 421.765 379.662 420.843C381.817 419.533 384.129 418.432 386.463 417.955C388.08 417.628 389.853 418.312 391.492 418.908C392.569 419.295 393.4 418.878 394.275 418.372C394.545 418.223 394.702 417.419 394.702 416.913C394.702 416.199 394.5 415.455 394.365 414.621C397.036 413.282 400.112 412.984 401.998 409.591C402.244 409.591 402.604 409.68 402.895 409.561C404.804 408.817 406.689 408.043 408.575 407.239C409.203 406.971 409.45 406.436 409.293 405.543C408.373 400.333 407.565 395.094 406.51 389.915C406.263 388.695 405.208 387.831 404.602 386.7C403.569 384.706 402.357 384.349 400.696 385.361C399.034 386.343 397.239 386.938 395.532 387.802C395.106 388.01 394.792 388.575 394.275 389.111C394.141 388.754 393.894 388.129 393.602 387.385C392.502 387.563 391.335 388.218 390.235 387.087C390.1 386.938 389.674 387.236 389.404 387.385C387.788 388.248 386.172 389.141 384.421 390.123C384.174 388.516 383.927 386.938 383.68 385.361C383.298 382.95 382.804 382.592 381.053 383.366C375.441 385.837 369.852 388.308 364.24 390.778C362.736 391.433 361.232 392.088 359.75 392.773C359.481 392.892 359.077 393.07 359.009 393.308C358.762 394.32 359.368 395.333 358.762 396.523C358.044 397.952 359.481 398.22 360.02 398.964C360.064 399.024 360.087 399.113 360.132 399.262C359.773 399.589 359.413 399.917 358.875 400.393C359.346 400.482 359.638 400.542 359.907 400.601C359.93 400.72 359.975 400.839 359.997 400.958C359.66 401.197 359.324 401.524 358.964 401.643C358.246 401.881 357.954 402.268 358.201 403.31C358.448 404.292 358.762 404.471 359.526 404.173C360.222 403.876 361.007 403.905 362.085 403.757C361.658 404.53 361.411 405.007 361.322 405.126C360.581 405.066 360.087 405.037 359.593 405.007C359.548 405.185 359.526 405.334 359.481 405.513C359.75 405.751 360.02 405.989 360.379 406.287C359.952 407.001 359.571 407.864 359.032 408.46C358.538 409.025 357.864 409.323 357.281 409.502C356.675 409.502 356.046 409.561 355.44 409.472C355.126 409.412 354.789 409.174 354.542 408.906C353.958 408.162 353.33 408.013 352.769 408.757C351.938 409.859 351.018 409.263 350.142 409.204C349.693 409.174 349.222 409.085 348.773 409.025C348.706 409.025 348.616 409.115 348.549 409.085C346.618 408.281 345.406 410.543 343.812 411.109C343.498 411.228 343.071 411.228 342.802 411.049C341.522 410.097 341.073 410.186 340.22 411.585C339.637 411.526 339.053 411.288 338.559 411.436C335.933 412.3 333.306 413.222 330.702 414.205C329.849 414.532 329.064 415.157 328.21 415.455C327.357 415.753 326.437 415.812 325.539 415.991C325.135 416.08 324.731 416.11 324.327 416.288C322.823 416.913 321.364 417.628 319.86 418.223C317.39 419.176 314.921 420.098 312.452 420.962C311.487 421.319 309.376 419.563 308.972 418.193C308.568 416.765 307.693 416.318 306.638 416.854C305.875 417.241 305.066 417.509 304.213 417.866C304.213 418.283 304.213 418.699 304.213 419.503C302.822 419.86 301.407 420.307 299.971 420.515C299.679 420.545 299.342 419.741 298.983 419.235C296.693 419.146 294.202 419.057 291.732 418.908C289.555 418.789 287.332 418.938 285.267 417.568C284.279 416.913 283.628 417.777 283.853 419.265C285.604 431.172 287.377 443.078 289.128 455.015C289.308 456.295 289.734 456.98 290.722 457.307C296.536 459.391 302.305 461.593 308.097 463.737C309.623 464.302 309.646 464.272 310.05 462.278C310.117 461.921 310.342 461.593 310.521 461.296C311.711 459.301 312.923 457.367 314.068 455.342C314.45 454.658 314.629 453.794 315.033 452.634C316.156 451.83 317.592 450.788 319.097 449.687C319.433 450.907 320.107 450.877 321.027 450.49C324.843 448.883 328.659 447.365 332.498 445.817C332.857 445.668 333.194 445.549 333.598 445.4C333.89 446.442 333.688 446.948 332.88 447.246C330.725 448.049 328.592 448.972 326.437 449.836C324.933 450.461 324.911 450.431 325.225 452.574C324.866 452.753 324.507 452.961 324.102 453.199C324.102 453.408 324.058 453.675 324.102 453.884C324.686 456.176 324.372 458.289 323.496 460.373C322.868 461.861 323.631 464.63 324.664 465.582C329.019 469.601 333.867 472.131 338.986 473.768C339.839 474.036 340.086 474.542 340.086 475.673C340.108 482.013 340.22 488.383 340.22 494.724C340.22 496.153 340.602 496.599 341.545 496.778C343.251 497.105 344.934 497.581 346.618 498.058C346.887 498.117 347.314 498.564 347.291 498.742C347.112 500.26 347.853 500.618 348.795 500.796C348.795 504.011 348.795 507.196 348.795 510.351C348.795 510.589 348.773 510.976 348.683 511.036C347.583 511.602 348.122 512.882 347.987 513.864C347.808 515.174 348.279 515.62 349.222 515.65C354.273 515.709 359.324 515.828 364.352 515.918C366.327 515.948 368.303 515.918 370.458 515.918C370.458 523.032 370.458 530.206 370.458 537.588C371.535 537.588 372.478 537.677 373.376 537.528C373.646 537.499 374.027 536.874 374.05 536.516C374.139 535.207 374.072 533.867 374.072 532.498C374.341 532.409 374.476 532.319 374.611 532.319C376.407 532.17 376.541 532.17 376.362 529.849C376.227 528.033 377.125 527.944 377.933 527.408C378.854 526.783 379.123 527.705 379.527 528.36C380.223 529.462 380.784 530.771 381.592 531.664C384.712 535.177 387.025 539.582 389.494 543.809C396.453 555.627 403.255 567.563 410.124 579.47C410.214 579.619 410.258 579.797 410.371 580.035C409.967 580.393 409.607 580.72 409.226 581.018C400.269 588.459 391.29 595.901 382.333 603.402C381.278 604.295 380.245 604.742 378.988 604.682C378.18 604.652 377.215 604.117 376.586 605.456C376.519 605.635 376.092 605.516 375.823 605.516C374.656 605.516 373.488 605.635 372.344 605.486C371.333 605.337 370.682 606.081 369.942 606.706C369.762 606.855 369.605 607.272 369.56 607.57C369.335 608.939 370.57 611.201 371.625 611.439C372.568 611.648 373.533 611.826 374.499 612.273C374.027 612.392 373.533 612.511 373.062 612.66C372.299 612.898 371.895 613.612 371.984 614.624C372.164 617.006 374.027 619.179 375.868 619.179C376.833 619.179 377.776 619.179 378.741 619.179C378.786 619.328 378.809 619.476 378.854 619.625C378.562 619.834 378.27 620.131 377.956 620.25C372.927 621.917 370.009 626.233 368.931 632.812C368.415 635.937 368.909 639.033 369.74 641.98C370.256 643.826 370.817 645.641 371.423 647.665C369.178 647.665 366.934 647.665 364.711 647.665C342.083 647.725 319.456 647.785 296.806 647.874C292.204 647.904 287.602 647.993 283 648.052C283 650.642 283 653.202 283 655.792C299.881 655.792 316.762 655.792 333.688 655.792C333.553 657.161 333.374 658.441 333.284 659.721C333.239 660.674 332.969 660.971 332.251 660.971C315.842 661.031 299.41 661.09 283 661.15C283 664.127 283 667.103 283 670.08C299.365 670.08 315.729 670.08 332.161 670.08C332.161 671.39 332.161 672.67 332.161 673.95C334.249 673.95 336.359 673.95 338.447 673.95C338.626 672.61 338.828 671.271 339.03 669.842C339.39 669.842 339.771 669.842 340.13 669.842C365.34 669.723 390.549 669.633 415.758 669.455C417.419 669.455 418.609 669.871 419.44 671.866C419.687 672.431 420.113 673.295 420.472 673.295C422.582 673.444 424.693 673.354 426.915 673.354C426.848 671.896 426.78 670.705 426.713 669.455C427.095 669.455 427.544 669.455 427.993 669.455C452.192 669.365 476.391 669.276 500.59 669.098C502.296 669.098 503.8 669.455 505.214 670.794C506.112 671.658 507.1 672.729 508.132 672.908C510.175 673.235 512.285 672.997 514.553 672.997C514.418 671.568 514.306 670.378 514.193 669.098C514.014 669.157 514.126 669.098 514.238 669.098C518.795 669.068 523.352 669.008 527.932 669.008C528.291 669.008 528.672 669.157 528.987 669.395C530.648 670.497 532.309 671.658 533.97 672.789C533.97 668.621 533.97 664.454 533.97 660.287C532.444 660.257 530.917 660.227 529.391 660.197C528.111 660.168 526.719 660.614 525.597 660.048C522.948 658.709 520.412 656.863 517.763 655.196C517.92 655.018 517.987 654.929 518.032 654.929C523.33 654.929 528.65 654.929 533.948 654.929C533.97 652.22 533.97 649.541 533.97 646.862ZM476.548 522.496C476.548 523.211 476.548 523.746 476.548 524.282C476.66 533.302 476.772 542.321 476.885 551.34C476.997 561.104 477.109 570.867 477.176 580.631C477.176 581.047 476.907 581.464 476.75 581.881C476.593 581.494 476.278 581.077 476.278 580.69C476.278 579.827 475.987 579.5 475.425 579.47C474.595 579.44 474.325 578.815 474.191 577.803C473.921 575.719 473.517 573.636 473.181 571.552C472.777 568.843 472.103 566.134 472.058 563.396C471.811 550.626 471.721 537.826 471.587 525.026C471.587 524.491 471.587 523.955 471.587 523.359C473.248 523.062 474.797 522.794 476.548 522.496ZM409.877 647.487C406.555 647.487 403.524 647.517 400.516 647.457C400.247 647.457 399.82 646.921 399.753 646.564C399.012 642.159 396.879 638.795 394.859 635.372C393.916 633.794 393.041 632.127 392.143 630.52C391.11 628.645 390.19 626.65 389.023 624.953C388.192 623.733 388.012 622.542 388.237 620.965C393.108 620.965 397.957 620.965 402.918 620.965C402.918 623.346 402.963 625.668 402.895 627.99C402.873 629.061 403.412 630.49 402.132 631.085C402.042 631.145 401.975 631.532 401.998 631.77C402.042 634.479 402.087 637.217 402.155 639.926C402.177 640.73 402.491 641.027 403.098 640.998C403.771 640.938 404.444 640.938 405.118 640.998C405.432 641.027 405.814 641.147 406.016 641.414C407.273 643.29 408.463 645.254 409.877 647.487ZM417.083 655.226C420.36 655.226 423.301 655.226 426.242 655.226C438.251 655.197 450.239 655.167 462.248 655.137C462.608 655.137 463.101 655.137 463.281 655.435C464.269 656.983 465.189 658.649 466.132 660.287C466.02 660.316 465.93 660.406 465.818 660.406C450.935 660.465 436.051 660.525 421.168 660.584C420.876 660.584 420.472 660.435 420.293 660.168C419.26 658.649 418.295 657.102 417.083 655.226ZM389.314 470.553C388.192 468.767 389.067 467.398 389.741 465.969C392.098 460.968 397.261 459.659 400.808 463.171C405.14 467.457 406.801 475.167 404.691 481.745C404.265 483.055 403.569 484.246 403.098 485.228C401.391 483.025 399.843 481.001 398.271 478.947C399.147 477.34 399.506 475.316 398.473 473.708C397.643 472.369 396.363 471.029 395.151 470.672C393.31 470.166 391.312 470.553 389.314 470.553ZM374.835 660.793C362.96 660.793 351.22 660.793 339.412 660.793C339.502 659.007 339.592 657.369 339.681 655.583C350.883 655.583 362.017 655.583 373.062 655.583C373.623 657.28 374.184 658.947 374.835 660.793ZM481.644 581.881C481.846 571.254 482.048 560.866 482.25 550.358C482.452 550.477 482.564 550.507 482.631 550.596C483.327 551.34 484.046 551.4 484.584 550.388C485.145 549.346 484.584 548.75 484.001 547.947C483.305 547.024 482.542 545.685 482.474 544.464C482.272 540.922 482.407 537.38 482.407 533.778C483.552 533.689 484.337 533.599 485.235 533.54C485.415 549.733 485.617 565.866 485.796 581.851C484.315 581.881 483.058 581.881 481.644 581.881ZM396.879 603.73C396.857 603.64 396.834 603.551 396.834 603.462C403.187 598.818 409.518 594.204 416.05 589.442C416.05 594.413 416.05 599.027 416.05 603.73C409.63 603.73 403.255 603.73 396.879 603.73ZM363.432 427.302C361.187 428.582 359.032 429.773 356.922 431.053C356.473 431.321 356.136 431.916 355.732 432.333C355.53 432.541 355.305 432.72 355.081 432.809C352.118 434.029 349.155 435.25 346.191 436.411C345.922 436.53 345.496 436.5 345.294 436.292C344.373 435.339 343.52 434.267 342.734 433.374C343.363 432.868 344.104 432.273 345.024 431.559C345.608 431.916 346.573 431.856 346.887 430.725C347.493 428.403 349.11 428.552 350.187 428.642C351.916 428.79 352.701 427.123 353.734 426.171C354.654 425.337 355.216 424.028 356.585 424.147C356.922 424.177 357.348 423.194 357.707 422.629C357.887 422.331 357.954 421.825 358.156 421.587C358.628 421.051 359.144 420.575 359.638 420.098C359.907 419.86 360.334 419.95 360.715 419.831C361.95 419.444 362.511 419.86 362.421 421.527C362.287 423.611 362.691 425.457 363.432 427.302ZM509.951 654.988C509.749 656.357 510.4 656.834 511.14 657.31C512.442 658.114 513.7 659.036 514.979 659.9C512.353 660.257 509.794 660.019 507.257 660.316C503.261 660.763 499.647 659.781 496.414 656.596C496.078 656.268 495.696 656.06 495.337 655.792C495.112 655.613 494.91 655.375 494.529 655.018C499.804 654.988 504.833 654.988 509.951 654.988ZM391.986 495.557C391.447 498.951 390.122 501.332 388.147 502.999C386.396 504.487 384.421 504.934 382.355 504.458C381.839 504.338 381.188 504.219 381.547 503.029C381.974 501.57 382.355 500.052 382.602 498.534C382.782 497.522 383.096 497.165 383.859 497.135C384.421 497.105 384.959 496.688 385.521 496.421C386.396 495.944 387.249 495.111 388.147 495.051C389.337 494.932 390.594 495.349 391.986 495.557ZM410.191 655.316C411.134 657.34 411.875 658.888 412.66 660.584C407.812 660.584 403.03 660.584 398.249 660.584C398.675 659.185 399.169 657.846 399.461 656.447C399.663 655.524 400 655.316 400.651 655.345C402.02 655.375 403.412 655.345 404.781 655.316C406.712 655.316 408.642 655.316 410.191 655.316ZM430.35 543.541C430.956 547.113 429.968 550.596 431.113 554.019C431.607 555.508 431.203 557.561 431.203 559.347C429.407 555.895 427.768 552.412 426.264 548.84C425.635 547.351 424.85 546.22 423.682 545.506C422.897 545.03 422.178 544.375 421.438 543.779C421.46 543.69 421.505 543.601 421.527 543.541C424.468 543.541 427.431 543.541 430.35 543.541ZM381.974 387.474C382.176 388.754 382.355 389.796 382.557 390.987C377.529 393.16 372.59 395.303 367.585 397.476C367.382 396.226 367.203 395.184 367.023 394.023C372.007 391.82 376.923 389.677 381.974 387.474ZM479.174 529.968C479.174 527.527 479.152 525.265 479.197 523.002C479.197 522.615 479.556 522.02 479.803 521.96C481.486 521.603 483.192 521.335 485.011 521.038C485.011 524.223 485.011 527.289 485.011 530.384C483.125 530.265 481.24 530.117 479.174 529.968ZM449.677 641.563C449.633 641.712 449.588 641.861 449.52 642.01C449.475 642.04 449.453 642.069 449.408 642.069C439.643 642.099 429.901 642.159 420.136 642.159C419.911 642.159 419.687 641.772 419.462 641.534C419.709 641.325 419.934 640.968 420.181 640.968C429.676 640.908 439.172 640.908 448.667 640.908C449.004 640.879 449.341 641.325 449.677 641.563ZM473.809 628.287C473.742 628.347 473.652 628.436 473.585 628.496C471.542 624.328 467.928 623.316 464.74 620.727C467.95 620.727 470.846 620.727 473.809 620.727C473.809 623.316 473.809 625.817 473.809 628.287ZM350.299 510.679C352.836 507.94 355.216 505.351 357.752 502.642C357.752 505.47 357.752 507.97 357.752 510.679C355.305 510.679 352.903 510.679 350.299 510.679ZM349.873 509.726C349.873 506.571 349.873 503.832 349.873 500.975C352.14 501.124 354.34 501.243 356.787 501.392C354.43 504.249 352.252 506.839 349.873 509.726ZM367.338 500.915C367.338 503.803 367.338 506.601 367.338 509.488C365.317 506.601 363.364 503.832 361.591 501.302C363.162 501.213 365.227 501.064 367.338 500.915ZM382.782 487.312C383.253 486.984 383.366 486.836 383.478 486.806C384.802 486.389 386.216 486.389 387.294 484.99C387.451 484.811 388.035 484.931 388.259 485.169C389.606 486.687 390.908 488.264 392.188 489.902C392.39 490.14 392.502 490.676 392.457 491.033C392.435 491.241 392.008 491.539 391.784 491.539C391.155 491.509 390.527 491.36 389.92 491.182C389.292 491.003 388.663 490.795 388.08 490.467C387.294 489.991 386.576 489.306 385.79 488.83C384.892 488.294 383.972 487.907 382.782 487.312ZM359.615 510.679C359.615 508.178 359.615 505.857 359.615 503.326C362.085 505.827 364.442 508.208 366.866 510.679C364.285 510.679 361.972 510.679 359.615 510.679ZM392.637 483.591C393.759 483.234 394.837 482.906 395.914 482.579C396.049 482.549 396.228 482.46 396.296 482.549C397.351 483.829 398.406 485.109 399.394 486.478C399.775 487.014 399.64 487.729 399.034 487.997C397.441 488.622 395.892 488.383 394.365 487.58C394.186 487.49 394.006 487.223 393.916 486.984C393.49 485.883 393.086 484.782 392.637 483.591ZM357.101 437.423C356.248 437.78 355.485 438.078 354.744 438.405C352.275 439.387 349.828 440.429 347.359 441.352C347.089 441.441 346.708 441.084 346.393 440.905C346.551 440.608 346.663 440.102 346.865 440.012C350.053 438.673 353.263 437.393 356.495 436.083C356.697 436.53 356.877 436.917 357.101 437.423ZM424.064 603.64C422.627 603.64 421.438 603.64 420.203 603.64C420.203 601.438 420.203 599.354 420.203 596.913C421.55 599.294 422.762 601.378 424.064 603.64ZM379.976 497.433C379.482 499.129 379.056 500.707 378.607 502.255C378.427 502.285 378.27 502.314 378.09 502.344C377.305 500.856 376.519 499.338 375.733 497.849C375.823 497.73 375.913 497.581 376.003 497.462C377.215 497.433 378.427 497.433 379.976 497.433ZM361.232 397.059C361.232 396.88 361.232 396.702 361.254 396.523C362.511 395.987 363.791 395.422 365.407 394.707C365.227 396.017 365.093 396.97 364.981 397.863C364.442 397.684 364.06 397.535 363.656 397.476C362.826 397.327 362.017 397.208 361.232 397.059ZM455.177 620.756C455.2 620.846 455.222 620.905 455.245 620.994C454.481 621.56 453.718 622.126 452.865 622.78C452.865 621.977 452.865 621.411 452.865 620.756C453.696 620.756 454.436 620.756 455.177 620.756ZM479.735 537.886C479.646 537.886 479.556 537.886 479.444 537.915C479.444 536.516 479.444 535.117 479.444 533.718C479.533 533.718 479.623 533.718 479.735 533.718C479.735 535.088 479.735 536.487 479.735 537.886Z" fill="#963045"/>
</mask>
<g mask="url(#mask1_148_2096)">
<rect width="161.756" height="181" transform="matrix(-1 0 0 1 429.661 364)" fill="#191626"/>
</g>
</g>
<g opacity="0.4" clip-path="url(#clip1_148_2096)">
<path d="M366.999 876C320.358 876 273.718 876 227.078 876C226.399 872.487 226.357 868.804 224.364 865.587C222.711 868.931 221.142 872.233 222.414 876C206.174 876 189.893 876 173.653 876C172.042 871.682 170.558 867.322 168.693 863.089C167.421 860.168 165.767 857.417 164.071 854.708C163.096 853.099 161.442 853.057 160.213 854.496C157.796 857.375 157.329 860.973 157.457 864.486C157.584 868.338 158.347 872.148 158.813 875.958C144.948 875.958 131.126 875.958 117.261 875.958C117.77 870.158 118.236 864.359 118.745 858.518C119 855.597 119.212 852.634 119.466 849.713C119.254 849.671 119 849.586 118.788 849.544C118.194 850.898 117.431 852.253 117.007 853.692C114.632 861.1 112.385 868.55 110.053 875.958C94.365 875.958 78.6769 875.958 62.9888 875.958C61.8864 874.815 60.784 873.714 59.6816 872.571C59.512 872.698 59.3424 872.783 59.1728 872.91C59.1728 873.926 59.1728 874.942 59.1728 876C0.95723 876 -57.2583 876 -115.474 876C-115.474 875.661 -115.431 875.323 -115.431 874.942C-115.771 867.661 -116.152 860.338 -116.364 853.057C-116.449 850.136 -115.643 847.004 -116.407 844.337C-117.212 841.416 -116.958 838.58 -117.212 835.702C-117.212 835.49 -117.255 835.278 -117.212 835.067C-116.958 833.204 -117.382 831.469 -118.908 830.326C-122.3 827.87 -121.834 824.865 -120.604 821.479C-119.459 818.346 -118.103 815.002 -118.06 811.785C-117.891 796.715 -118.357 781.688 -121.071 766.788C-121.834 762.64 -122.555 758.491 -123.063 754.343C-123.445 751.168 -123.445 747.951 -123.7 744.734C-123.784 743.633 -124.039 742.533 -124.293 741.432C-124.802 739.189 -125.608 736.987 -125.82 734.744C-126.074 732.373 -125.735 729.961 -125.777 727.59C-125.777 726.786 -126.116 725.982 -126.286 725.177C-127.558 727.505 -129.254 727.844 -131.332 727.294C-133.579 726.701 -135.784 726.659 -137.946 727.759C-139.133 728.352 -139.854 729.156 -139.515 730.596C-138.328 735.717 -137.14 740.839 -135.996 746.004C-134.384 753.242 -132.604 760.481 -131.247 767.804C-129.593 776.651 -128.406 785.54 -126.837 794.387C-126.328 797.393 -126.201 800.567 -124.039 803.065C-123.572 803.615 -123.487 804.504 -123.233 805.266C-124.293 805.605 -125.353 806.24 -126.413 806.197C-128.533 806.155 -130.696 805.816 -133.07 805.562C-132.434 809.245 -131.713 812.462 -131.374 815.722C-130.865 820.632 -129.975 820.166 -134.215 821.817C-135.529 822.325 -135.868 823.13 -135.317 824.442C-134.384 826.601 -133.536 828.802 -132.604 830.961C-130.314 836.083 -128.024 841.12 -124.675 845.734C-123.063 847.893 -121.749 850.814 -121.622 853.438C-121.24 861.057 -120.562 868.55 -118.993 876C-140.066 876 -161.097 876 -182.169 876C-182.169 791.085 -182.169 706.129 -182.169 621.214C-180.389 621.553 -179.668 622.357 -179.922 624.431C-180.177 626.717 -179.71 629.088 -179.541 631.5C-177.209 631.543 -176.954 632.813 -177.336 634.633C-177.675 636.411 -177.887 638.231 -178.014 640.051C-178.226 642.464 -177.378 643.522 -175.046 644.199C-173.477 644.665 -171.951 645.173 -170.425 645.681C-168.559 646.358 -167.075 647.459 -166.439 649.448C-165.337 652.877 -164.149 656.221 -163.174 659.692C-162.793 660.962 -162.199 661.513 -160.969 661.894C-157.959 662.782 -154.991 663.925 -151.938 664.814C-149.733 665.449 -149.012 666.931 -149.309 668.963C-149.606 671.079 -150.2 673.196 -147.147 674C-148.122 675.736 -148.716 677.471 -149.818 678.614C-152.15 681.069 -152.108 683.821 -151.684 686.826C-151.302 689.747 -150.92 690.085 -148.037 689.281C-147.613 689.154 -147.232 688.773 -146.85 688.519C-145.069 687.376 -143.416 685.81 -141.465 685.175C-138.709 684.286 -136.632 682.466 -134.3 680.984C-133.494 680.477 -132.731 679.842 -132.095 679.164C-130.865 677.852 -129.72 676.413 -128.533 675.058C-128.279 674.762 -127.855 674.508 -127.728 674.127C-126.328 670.36 -124.76 666.592 -123.615 662.74C-122.809 660.073 -122.3 657.28 -122.088 654.486C-121.961 653.046 -122.724 651.565 -123.191 650.126C-123.572 648.856 -124.039 647.586 -124.59 646.401C-124.972 645.596 -125.735 644.961 -126.159 644.199C-127.77 641.109 -129.381 637.977 -130.908 634.844C-131.289 634.083 -131.162 633.109 -131.289 632.22C-130.229 632.178 -128.872 631.712 -128.152 632.178C-126.752 633.109 -125.608 634.506 -124.505 635.86C-123.657 636.919 -123.063 638.146 -122.088 639.839C-121.622 638.697 -121.283 638.104 -121.198 637.511C-120.731 634.675 -122.215 632.855 -124.463 631.458C-126.116 630.442 -127.176 629.172 -127.388 627.14C-127.558 625.32 -128.067 623.585 -128.321 621.764C-128.83 618.42 -126.074 615.076 -123.063 615.119C-120.816 615.161 -118.527 615.838 -116.364 614.526C-115.983 614.314 -115.219 614.484 -114.753 614.738C-113.269 615.542 -111.87 616.473 -110.259 617.447C-111.149 614.695 -112.039 612.325 -112.633 609.912C-112.803 609.15 -112.506 607.753 -111.912 607.372C-108.52 605.256 -105.934 601.827 -101.694 601.065C-101.439 601.023 -101.227 600.769 -101.058 600.557C-99.0226 598.271 -97.6657 598.102 -95.5033 600.303C-92.2385 603.647 -90.7969 607.965 -89.9489 612.452C-89.8217 613.171 -90.2881 614.103 -90.7121 614.78C-93.6377 619.309 -95.6305 624.22 -96.8177 629.426C-98.3866 636.199 -98.7682 643.057 -98.5138 649.999C-98.3866 653.512 -99.1922 656.772 -100.21 660.116C-100.888 662.401 -100.676 664.941 -100.888 667.65C-98.641 665.238 -96.7753 663.29 -94.9097 661.343C-94.3585 660.793 -93.6377 660.412 -93.1713 659.819C-90.5001 656.391 -86.7265 656.01 -82.8257 656.01C-81.7233 656.01 -80.5785 656.137 -79.5184 656.391C-77.9496 656.772 -76.3384 657.28 -74.8544 657.872C-74.0912 658.168 -73.54 658.973 -72.7768 659.269C-69.0032 660.793 -66.5864 663.502 -65.2296 667.269C-64.2544 670.106 -63.2791 672.899 -62.1343 676.286C-61.1591 674.974 -60.3535 674 -59.6751 672.899C-57.8519 669.852 -56.2407 666.635 -54.2479 663.671C-52.6791 661.301 -51.8311 661.343 -49.5839 663.121C-47.6335 661.47 -46.319 662.359 -45.4286 664.179C-44.3262 664.179 -43.4358 664.179 -42.3758 664.179C-45.0471 659.354 -45.5983 654.147 -46.1495 648.898C-46.4887 645.808 -47.2943 642.76 -48.0999 639.712C-48.4815 638.231 -49.4143 636.919 -50.0503 635.522C-52.1703 631.077 -54.3327 626.675 -58.9119 624.05C-60.7775 622.992 -62.94 621.637 -63.788 619.86C-65.6112 615.965 -65.908 611.647 -64.9752 607.33C-64.8904 606.906 -64.4664 606.441 -64.0848 606.272C-62.0071 605.298 -59.5479 605.637 -57.5551 604.282C-57.3007 604.113 -56.7495 604.494 -56.3679 604.494C-55.8591 604.494 -55.2231 604.536 -54.7991 604.324C-53.2303 603.393 -52.0431 603.943 -50.7711 604.917C-49.8383 605.594 -48.7359 606.06 -47.6759 606.61C-47.5487 606.441 -47.3791 606.272 -47.2519 606.102C-48.0575 604.324 -48.9479 602.631 -49.5839 600.811C-50.5167 598.271 -51.3647 595.689 -52.0855 593.065C-52.2127 592.641 -51.6191 591.625 -51.2375 591.583C-49.7959 591.329 -50.0927 590.525 -50.1775 589.551C-50.5591 586.207 -49.9231 585.191 -47.1671 584.514C-47.2095 584.09 -47.4215 583.625 -47.3367 583.286C-47.0399 582.397 -46.5735 581.551 -46.1919 580.662C-45.4286 581.212 -44.3262 581.635 -43.9446 582.397C-43.2662 583.667 -42.9694 585.149 -42.6302 586.588C-42.1638 588.451 -41.8246 590.313 -41.443 592.176C-41.2734 592.133 -41.1038 592.133 -40.9342 592.091C-41.019 591.16 -41.1462 590.186 -41.1462 589.255C-41.1886 586.8 -41.2734 584.344 -41.1462 581.932C-41.1038 581.339 -40.383 580.281 -40.0014 580.281C-39.323 580.281 -38.3478 580.831 -38.051 581.424C-37.5422 582.482 -37.3726 583.71 -37.203 584.895C-36.6094 588.704 -36.1006 592.557 -35.4646 596.324C-35.3374 597.044 -34.659 597.636 -34.235 598.271C-33.8958 597.679 -33.4294 597.086 -33.2174 596.451C-32.6238 594.758 -32.2422 592.938 -31.479 591.329C-31.2246 590.779 -30.0798 590.694 -29.359 590.398C-29.147 591.033 -28.8078 591.625 -28.7654 592.26C-28.5957 597.848 -30.2494 603.054 -32.1574 608.176C-32.7086 609.658 -33.2598 611.267 -33.387 612.833C-33.8534 619.352 -34.1502 625.913 -34.5742 632.432C-34.7438 634.929 -33.8534 637.003 -32.4966 639.12C-29.8254 643.141 -27.4086 647.29 -24.9493 651.438C-24.0165 653.046 -23.3381 654.74 -22.7021 656.052C-19.1829 655.078 -15.7485 656.01 -12.3989 655.544C-8.71004 655.036 -5.65723 656.348 -2.51961 658.549C-2.09561 655.967 -2.22281 653.639 -2.09561 651.353C-1.92601 648.983 -1.502 646.655 -1.1628 644.284C-0.993195 643.057 -0.48439 641.871 -0.569199 640.686C-0.696396 638.739 -1.29001 636.834 0.236404 635.056C0.533203 634.717 0.278824 633.871 0.194016 633.236C-0.22998 630.315 -0.781189 627.394 -0.993195 624.474C-1.0356 623.627 -0.229996 622.145 0.490814 621.891C1.80522 621.468 2.01723 622.865 2.27162 623.881C2.65323 625.447 3.03482 626.971 3.45883 628.58C5.40924 627.987 6.97806 627.902 7.52925 629.596C8.71646 629.85 9.86127 629.765 10.4549 630.273C11.1333 630.865 11.3453 632.051 11.9389 633.321C13.7621 628.876 15.8821 624.939 15.6277 620.537C15.3733 616.769 14.3981 613.087 13.8469 609.362C13.7197 608.388 13.6349 607.203 14.0165 606.356C14.9917 604.197 16.2213 602.166 17.4509 600.134C18.0021 599.245 18.5957 598.144 19.4437 597.763C23.3022 595.985 27.2454 594.419 31.3582 592.684C30.9766 591.625 30.595 590.228 30.0014 588.874C27.7966 583.794 29.2806 579.138 31.655 574.651C31.9518 574.058 32.927 573.508 33.6478 573.423C36.0646 573.169 38.4814 573.296 40.8983 573.085C45.0959 572.704 46.1983 573.635 46.2831 577.91C46.3255 580.535 45.9863 583.159 46.3679 585.699C46.7071 587.731 47.8519 589.636 48.7847 591.498C49.3359 592.641 50.5231 593.53 50.9047 594.673C51.6679 597.171 53.4063 598.991 55.3143 600.345C56.7984 601.404 57.2647 602.504 57.8159 604.113C58.2399 605.383 60.148 606.145 60.8264 607.414C62.6072 610.97 63.116 614.907 65.6176 618.336C68.6704 622.526 68.7552 627.987 67.9496 633.194C67.6952 634.929 67.992 636.368 68.7552 638.019C71.172 643.438 73.8857 648.856 75.412 654.57C77.9561 663.968 79.6945 673.577 81.7297 683.143C82.8321 688.35 83.9769 693.599 84.7825 698.848C85.0369 700.668 85.4185 702.107 86.9449 702.996C88.8105 704.097 90.2945 706.044 93.093 705.028C95.1706 704.266 96.697 705.748 97.8842 707.314C98.5626 708.203 99.1138 709.176 99.9194 709.981C100.301 710.362 101.276 710.743 101.658 710.531C102.082 710.319 102.167 709.388 102.336 708.795C102.379 708.668 102.251 708.541 102.251 708.372C101.658 703.208 101.276 697.959 96.7818 694.318C96.6122 694.192 96.485 693.98 96.485 693.768C96.1882 691.482 95.7218 689.197 95.7218 686.911C95.7218 683.863 96.273 680.815 96.273 677.767C96.273 671.799 97.333 666.423 102.93 662.994C103.82 662.444 104.711 661.978 105.347 661.597C104.795 656.645 104.244 651.988 103.82 647.332C103.566 644.496 102.93 641.829 101.403 639.374C99.7074 636.622 98.3506 633.702 96.7818 630.865C95.849 629.215 94.8738 627.606 93.7714 626.082C92.7962 624.728 93.1778 623.288 94.7466 622.865C95.213 622.738 95.6794 622.696 96.273 622.611C95.425 620.452 96.2306 619.098 98.0962 618.209C99.6226 617.447 101.149 616.685 102.675 615.923C102.633 615.542 102.506 614.738 102.421 613.976C103.354 613.849 104.541 613.341 105.219 613.722C106.449 614.399 107.721 615.415 108.315 616.642C109.29 618.717 109.714 621.045 110.435 623.246C110.774 624.347 111.325 625.405 111.749 626.463C112.47 625.066 112.555 623.839 112.979 622.696C113.106 622.315 114.081 622.23 114.675 621.976C115.099 623.669 116.837 624.897 115.989 627.056C114.929 629.638 114.081 632.347 113.275 635.014C113.106 635.522 113.487 636.199 113.615 636.792C115.226 633.956 115.226 633.956 118.66 633.067C119.084 632.94 119.466 632.559 119.848 632.262C121.247 631.289 125.275 630.865 126.377 631.924C128.116 633.617 129.812 635.395 131.168 637.384C132.398 639.204 132.822 641.702 134.221 643.311C137.528 647.12 141.175 650.676 144.779 654.232C146.051 655.502 147.577 656.475 148.68 657.28C159.958 646.316 171.152 642.379 183.575 655.883C183.575 650.93 184.042 646.612 183.448 642.422C182.812 637.892 182.261 633.236 179.547 629.257C179.208 628.791 179.038 628.029 179.081 627.479C179.42 624.601 179.844 621.764 180.268 618.886C178.105 616.515 175.307 614.103 173.314 611.14C170.134 606.356 169.413 601.065 171.364 595.435C172.805 591.287 176.706 589.763 180.31 592.26C180.989 592.726 181.752 593.065 182.557 593.276C185.483 593.996 186.755 595.435 186.713 598.44C186.67 599.964 186.374 601.531 186.246 603.054C186.204 603.647 186.119 604.409 186.416 604.79C188.621 607.457 189.766 610.632 190.656 613.849C191.08 615.457 192.055 615.881 193.836 615.923C193.836 611.901 193.878 607.965 193.794 604.028C193.751 602.335 194.472 601.785 196.083 601.869C203.546 602.25 211.05 602.589 218.513 602.927C230.555 603.52 242.639 604.113 254.68 604.621C256.249 604.705 256.758 605.213 256.715 606.737C256.631 609.573 256.673 612.452 256.673 615.288C257.564 614.568 258.242 613.595 258.624 612.494C259.09 611.267 259.344 609.912 259.556 608.642C259.726 607.584 259.768 606.441 259.641 605.383C259.259 602.335 258.581 599.287 258.411 596.239C258.327 594.419 258.751 592.472 260.743 591.414C261.634 590.948 262.44 590.271 263.33 589.72C263.839 589.424 264.432 589.128 265.026 589.001C267.273 588.493 269.648 588.281 271.81 587.562C275.244 586.461 276.432 586.969 277.237 590.609C279.23 590.101 279.696 590.821 279.357 592.811C279.103 594.165 279.569 595.647 279.696 596.747C282.113 595.562 284.403 594.292 286.82 593.318C288.261 592.726 289.915 592.514 291.484 592.26C293.052 592.006 294.706 591.625 296.275 591.795C298.268 592.006 300.091 593.065 302.296 592.26C303.101 591.964 304.373 592.938 305.391 593.403C306.027 593.699 306.536 594.207 307.172 594.419C308.656 594.885 310.182 595.223 311.709 595.647C312.175 594.419 312.09 594.504 310.733 592.726C310.267 592.091 310.267 591.117 310.097 590.271C310.903 590.228 311.836 589.89 312.557 590.144C315.397 591.244 317.009 594.123 316.627 597.213C316.33 599.499 316.373 601.658 318.535 603.097C321.461 600.303 324.81 601.954 328.457 601.361C328.796 600.091 329.135 598.313 329.814 596.62C330.11 595.901 331.213 594.842 331.679 594.969C334.138 595.562 335.58 594.08 337.276 592.853C338.972 591.625 340.753 590.525 342.661 589.636C343.254 589.382 344.357 590.017 345.12 590.44C345.968 590.948 346.731 591.583 347.452 592.26C348.385 593.149 349.402 594.038 350.123 595.139C350.632 595.901 350.759 596.917 350.886 597.848C351.056 599.16 351.565 600.726 351.056 601.742C350.335 603.181 348.724 604.07 346.646 603.224C346.18 605.34 345.629 607.372 345.247 609.446C344.187 615.034 344.611 620.664 345.29 626.251C345.374 626.886 345.968 627.521 346.434 628.072C347.113 628.918 347.876 629.638 348.512 630.484C349.19 631.416 349.699 632.432 350.293 633.363C353.473 630.611 356.356 628.114 359.409 625.447C358.476 624.177 357.628 622.907 356.61 621.764C354.703 619.563 354.83 618.547 356.95 617.531C356.95 616.177 356.568 614.78 357.077 613.891C357.416 613.298 359.027 613.425 360.045 613.256C360.045 613.298 360.003 613.087 359.875 612.96C358.603 611.986 358.179 610.843 359.409 609.616C360.766 608.261 361.953 608.981 363.013 610.124C363.479 610.632 363.903 611.224 364.327 611.817C364.667 610.886 364.667 610.208 364.412 609.573C363.564 607.118 362.547 604.748 361.741 602.292C361.529 601.658 361.826 600.811 361.911 600.091C362.716 600.261 363.734 600.218 364.327 600.726C365.048 601.319 365.557 602.25 365.939 603.139C367.253 606.018 368.525 608.896 369.712 611.817C371.62 616.388 373.443 621.045 375.394 625.616C375.606 626.124 376.115 626.59 376.581 626.929C378.998 628.791 381.669 630.442 383.874 632.559C386.545 635.141 387.859 638.485 387.563 642.295C387.393 644.538 386.884 646.782 386.969 648.983C387.011 650.464 387.478 652.242 388.368 653.343C391.421 656.983 394.856 660.37 397.993 663.925C399.223 665.322 400.113 667.015 401.173 668.624C403.505 666.761 403.844 664.391 403.505 661.767C403.166 658.888 402.657 655.967 402.7 653.089C402.784 647.417 405.201 642.972 410.544 640.517C411.816 639.924 413.215 639.628 414.444 638.993C414.953 638.739 415.462 637.935 415.504 637.384C415.547 635.987 415.377 634.59 415.208 633.194C414.953 630.95 414.741 628.664 414.36 626.421C414.19 625.362 413.808 624.347 415.25 624.177C416.734 624.008 416.904 623.034 417.243 621.891C417.582 620.875 418.133 619.733 418.939 619.098C420.889 617.574 421.44 615.457 419.999 613.468C418.557 611.478 417.073 609.489 415.759 607.414C415.335 606.78 415.462 605.806 415.292 605.002C416.225 605.002 417.37 604.663 417.964 605.086C419.236 605.933 420.296 607.118 421.271 608.346C423.094 610.632 424.832 613.044 426.952 615.923C428.479 614.568 429.836 613.425 431.15 612.198C432.083 611.351 432.719 610.124 433.779 609.489C435.772 608.346 437.722 606.864 440.393 608.388C441.708 609.108 443.234 609.319 444.379 610.547C445.057 611.309 446.202 611.647 447.389 612.282C447.983 612.875 449.17 613.552 449.085 614.06C448.831 615.627 448.322 617.277 447.517 618.674C446.033 621.341 446.202 623.034 448.789 624.77C451.078 626.294 453.453 627.775 455.827 629.215C457.014 629.934 457.82 631.458 459.685 630.611C461.042 629.976 462.654 629.765 464.01 629.13C465.791 628.326 467.445 627.31 469.31 626.251C469.098 623.627 472.321 623.881 473.466 622.145C473.932 622.484 474.398 622.738 474.822 623.119C475.246 623.5 475.586 623.966 476.222 624.728C476.222 622.526 476.179 621.087 476.222 619.606C476.434 614.907 476.561 610.208 476.985 605.552C477.154 603.774 477.96 602.039 478.723 600.388C478.978 599.837 480.038 599.626 480.716 599.245C481.013 599.88 481.394 600.515 481.564 601.15C481.649 601.573 481.394 602.123 481.352 602.589C481.055 604.79 480.801 606.991 480.546 608.896C482.794 609.997 484.193 606.526 486.313 608.642C487.585 609.912 489.154 610.928 490.765 612.155C490.977 611.267 491.189 610.462 491.358 609.7C491.782 607.922 491.952 606.06 492.673 604.409C493.054 603.52 494.284 602.97 495.132 602.292C495.386 603.224 495.938 604.155 495.895 605.044C495.768 607.795 495.302 610.505 495.217 613.214C495.174 614.103 495.514 615.415 496.15 615.796C499.245 617.658 498.779 621.553 500.983 624.008C502.086 625.236 502.764 626.59 504.418 627.31C505.351 627.733 506.411 628.664 506.75 629.596C508.149 633.194 507.725 636.919 506.962 640.644C506.283 643.903 508.319 647.332 511.838 648.517C511.499 644.623 511.329 640.855 510.863 637.13C510.608 635.225 509.972 633.278 509.124 631.543C507.004 627.225 504.206 623.119 505.732 617.912C506.199 616.388 506.707 614.865 507.301 613.383C507.682 612.409 508.234 611.563 508.743 610.632C509.506 611.267 510.269 611.944 511.032 612.579C511.117 612.663 511.287 612.621 511.626 612.706C511.923 611.732 512.219 610.759 512.559 609.785C513.746 606.441 514.806 603.012 516.247 599.753C516.587 598.906 518.113 597.975 518.961 598.102C520.615 598.356 520.36 599.964 520.106 601.234C519.597 603.478 519.131 605.764 518.41 607.965C517.816 609.743 517.223 611.267 519.724 612.028C520.106 612.155 520.233 612.833 520.572 613.171C521.123 613.806 521.759 614.441 522.353 615.034C524.643 617.32 527.95 619.098 527.356 622.95C526.932 625.659 526.084 628.41 524.897 630.908C524.091 632.643 523.371 634.125 524.049 636.03C524.261 636.622 524.303 637.257 524.388 637.892C525.448 644.326 526.551 650.718 527.653 657.407C529.688 656.772 531.172 656.179 532.741 655.883C534.819 655.459 535.582 654.189 535.794 652.2C536.091 649.829 536.43 647.459 537.108 645.173C538.465 640.644 541.136 637.511 546.224 636.749C549.998 636.157 553.687 635.437 557.884 637.003C557.884 634.379 557.884 632.262 557.884 630.146C557.884 629.807 557.8 629.384 557.969 629.13C559.538 626.929 561.064 624.685 562.76 622.569C563.184 622.061 564.244 621.637 564.923 621.764C567.128 622.188 568.484 621.68 568.951 619.563C569.375 617.616 569.29 615.542 569.629 613.552C569.756 612.79 570.562 612.155 571.029 611.478C571.622 611.901 572.258 612.325 572.809 612.79C573.021 612.96 573.106 613.256 573.106 613.256C574.166 612.833 575.311 611.986 576.074 612.282C576.753 612.536 577.049 613.933 577.389 614.907C577.728 615.796 577.643 617.15 578.237 617.574C579.89 618.717 579.297 619.563 578.364 620.622C577.982 621.045 577.685 621.553 577.473 622.061C576.032 626.082 574.463 630.061 573.233 634.167C572.64 636.157 572.385 638.316 572.343 640.39C572.3 643.734 574.124 645.85 577.389 646.697C578.957 647.12 580.484 647.586 582.01 648.052C584.13 648.686 585.529 650.083 586.674 652.031C589.049 656.137 589.133 660.624 589.557 665.068C589.642 665.83 589.769 666.931 590.321 667.269C591.847 668.285 593.585 669.005 595.366 669.852C596.596 666.465 597.783 663.333 598.843 660.116C599.182 659.1 599.31 657.83 598.97 656.899C597.698 653.512 596.172 650.21 594.73 646.824C594.349 645.935 593.925 645.004 593.67 644.072C593.246 642.676 593.967 641.956 595.281 641.702C597.274 641.321 598.25 642.718 599.14 644.072C599.861 645.131 600.412 646.316 601.175 647.755C601.684 645.766 602.108 644.199 602.489 642.633C599.013 641.067 598.207 639.162 599.013 635.141C599.182 634.379 599.267 633.448 599.013 632.728C598.037 630.019 598.122 629.765 600.115 629.003C600.921 627.818 601.345 626.971 601.981 626.378C602.108 626.251 603.083 627.056 603.677 627.437C604.737 628.114 605.839 629.469 606.772 629.384C609.57 629.088 612.666 630.103 615.082 627.437C616.524 625.87 618.517 624.389 620.552 623.796C623.266 622.992 624.622 621.468 624.834 618.886C625.131 615.288 625.216 611.647 625.47 608.007C625.598 606.06 625.386 603.816 626.276 602.335C627.548 600.261 629.71 598.737 631.491 597.001C631.491 613.51 631.491 630.019 631.491 646.528C630.516 646.401 629.583 646.274 628.523 646.147C627.845 649.618 627.209 653.046 626.53 656.518C626.7 656.602 626.87 656.687 627.039 656.772C628.523 654.062 630.007 651.353 631.449 648.686C631.449 724.458 631.449 800.229 631.449 876C544.401 876 457.353 876 370.306 876C367.889 867.534 365.557 859.026 363.055 850.56C362.207 847.681 360.893 844.972 359.791 842.178C359.451 842.22 359.154 842.263 358.815 842.305C358.434 844.93 357.077 847.893 357.84 850.136C361.317 858.729 363.013 867.746 366.999 876ZM287.668 646.358C289.448 645.427 291.738 643.438 294.282 643.014C296.869 642.591 299.752 643.649 302.677 644.072C302.762 643.861 303.017 643.438 303.144 642.972C304.416 638.908 305.688 634.802 306.96 630.738C307.341 629.469 308.062 628.283 308.317 627.013C308.613 625.236 308.274 623.373 308.783 621.68C309.546 618.971 308.741 616.981 306.917 615.034C305.73 613.764 304.67 612.325 303.907 610.801C303.313 609.616 302.72 609.235 301.448 609.531C300.43 609.785 299.37 609.87 298.353 609.827C296.614 609.7 294.918 609.404 293.222 609.192C292.756 611.986 292.713 612.028 290.424 611.267C286.141 616.346 282.58 621.764 281.562 628.241C282.961 629.215 284.233 630.146 285.717 631.162C286.353 630.357 286.947 629.511 287.668 628.791C288.431 627.987 289.449 626.844 290.466 627.987C291.145 628.707 291.314 630.061 291.314 631.119C291.314 631.924 290.593 632.728 290.212 633.532C290.466 633.49 290.72 633.49 290.975 633.448C291.187 634.252 291.781 635.183 291.569 635.818C290.297 639.585 288.855 643.268 287.668 646.358ZM43.4847 657.534C43.3575 656.348 43.0607 654.994 43.1455 653.681C43.3575 649.279 43.4847 644.834 44.0359 640.474C44.9263 633.236 43.8663 626.167 42.5519 619.098C42.4247 618.463 41.9159 617.616 41.3647 617.447C38.9054 616.727 37.379 614.949 35.8102 613.087C35.259 612.409 34.3686 611.732 33.563 611.605C33.1814 611.563 32.5878 612.748 31.9518 613.552C31.5278 613.595 30.807 613.637 29.8318 613.722C28.6446 616.896 27.8814 620.368 26.1006 623.288C24.3197 626.251 24.1926 629.384 23.4718 632.516C23.3869 632.897 23.8109 633.659 24.1926 633.913C25.9734 635.141 27.8814 636.157 29.6198 637.469C34.1566 640.94 37.5486 645.046 36.4038 651.353C36.2766 652.031 36.0222 652.75 36.0646 653.427C36.107 653.935 36.4038 654.655 36.7854 654.824C38.9054 655.756 41.0679 656.602 43.4847 657.534ZM114.675 642.633C114.378 642.887 114.081 643.141 113.827 643.395C114.378 648.602 116.456 653.343 118.703 658.041C119.466 659.65 120.611 660.539 122.18 661.386C126.208 663.46 130.448 665.407 132.016 670.275C132.992 673.323 132.822 676.37 132.101 679.418C131.974 679.926 132.144 680.561 132.271 681.069C132.78 682.762 133.5 684.413 133.924 686.106C134.348 687.757 134.645 689.281 136.723 689.831C137.656 690.085 138.334 691.186 139.097 691.948C140.412 693.176 141.599 694.572 143.083 695.504C144.143 696.139 145.457 695.969 146.136 694.318C146.856 692.498 147.959 690.847 148.892 689.112C149.697 687.63 149.57 686.403 148.044 685.387C147.408 684.964 146.729 684.159 146.644 683.44C146.305 681.45 146.305 679.376 146.093 677.344C146.051 676.751 145.966 676.074 145.627 675.609C141.472 669.936 137.401 664.179 132.949 658.761C130.617 655.925 127.607 653.639 124.724 651.311C122.646 649.66 120.187 648.559 118.109 646.909C116.795 645.766 115.819 644.072 114.675 642.633ZM-39.8742 671.418C-41.2734 673.069 -42.291 674.423 -43.4782 675.651C-44.6654 676.921 -45.8103 678.318 -47.2519 679.207C-50.8135 681.45 -54.5447 683.44 -58.1911 685.514C-61.6255 687.503 -62.2191 688.943 -61.4135 692.752C-61.2439 693.514 -61.3711 694.403 -61.4983 695.165C-62.0919 697.917 -62.728 700.668 -63.364 703.419C-59.5903 704.308 -58.1063 703.8 -55.4775 701.557C-53.5271 699.906 -52.4671 697.324 -49.7535 696.52C-49.2447 696.35 -48.9479 695.461 -48.5663 694.869C-48.1423 694.234 -47.7183 693.599 -47.2943 693.006C-46.6158 691.99 -45.7679 691.017 -45.2166 689.916C-43.351 685.895 -41.9942 681.619 -39.7046 677.894C-38.263 675.693 -38.6022 674.085 -39.8742 671.418ZM333.502 650.464C333.672 650.422 333.884 650.38 334.054 650.337C334.096 649.66 334.266 649.025 334.223 648.348C334.011 645.427 333.545 642.506 333.46 639.543C333.375 635.31 331.086 632.347 328.075 628.876C327.736 630.908 326.973 632.559 327.354 633.829C328.584 638.146 330.195 642.337 331.679 646.528C332.273 647.925 332.951 649.194 333.502 650.464ZM446.414 628.072C445.481 626.463 444.718 626.548 443.701 627.648C442.556 628.876 441.157 629.85 439.969 630.992C438.019 632.855 436.323 634.929 435.984 638.443C438.952 636.961 442.174 640.093 444.549 636.834C442.895 634.337 443.065 633.786 445.693 632.22C444.421 630.696 444.973 629.299 446.414 628.072ZM275.499 607.203C272.234 609.616 271.513 612.79 271.344 616.219C271.259 617.574 271.259 618.928 271.089 620.241C270.835 622.357 270.496 624.431 270.199 626.548C270.496 626.59 270.792 626.632 271.047 626.632C274.736 620.875 276.856 614.653 275.499 607.203ZM178.19 695.419C184.084 693.133 184.805 691.609 183.024 685.175C181.921 685.852 180.353 686.276 180.098 687.122C179.208 689.704 178.869 692.371 178.19 695.419ZM280.587 653.3C284.021 653.089 283.428 649.11 285.76 648.009C283.046 649.702 278.128 647.84 277.661 653.046C278.594 653.47 279.442 653.851 280.375 654.274C280.502 653.851 280.544 653.47 280.587 653.3ZM249.889 652.877C249.719 652.623 249.55 652.369 249.38 652.115C247.048 652.115 244.674 652.115 242.13 652.115C242.893 653.893 243.614 655.586 244.462 657.576C246.455 655.84 248.151 654.359 249.889 652.877ZM315.397 655.756C314.677 652.412 314.041 649.406 313.32 646.062C311.157 650.337 311.539 652.073 315.397 655.756Z" fill="#090919"/>
</g>
<path opacity="0.3" d="M191.916 448.271L205.041 478.282L237.673 481.122L213.188 502.879L220.57 534.792L192.311 518.228L164.242 535.111L171.263 503.116L146.532 481.638L179.13 478.428L191.916 448.271Z" fill="#090919"/>
</g>
<defs>
<linearGradient id="paint0_linear_148_2096" x1="194.531" y1="128.105" x2="196.303" y2="1186.22" gradientUnits="userSpaceOnUse">
<stop offset="0.145833" stop-color="#090919"/>
<stop offset="0.482055" stop-color="#F54B64"/>
<stop offset="0.671875" stop-color="#F44962"/>
<stop offset="1" stop-color="#EF3D57"/>
</linearGradient>
<clipPath id="clip0_148_2096">
<rect width="375" height="841" fill="white"/>
</clipPath>
<clipPath id="clip1_148_2096">
<rect width="814" height="303" fill="white" transform="translate(-182 573)"/>
</clipPath>
</defs>
</svg>
