<svg width="321" height="234" viewBox="0 0 321 234" fill="none" xmlns="http://www.w3.org/2000/svg">
<g opacity="0.1">
<path d="M311.791 76.6005C311.998 72.4544 311.48 68.4118 310.236 64.6803L317.388 59.1866L310.547 47.681L302.566 51.9308C299.871 49.1321 296.657 46.8517 293.029 45.1932L294.584 36.4863L281.213 33.7913L278.207 42.1873C274.061 42.2909 270.018 43.1202 266.183 44.5713L261.208 37.7301L249.184 45.4006L252.812 53.071C249.806 55.9733 247.318 59.3939 245.348 63.1255L236.745 62.1926L233.117 75.7713L241.306 78.259C241.099 82.4052 241.617 86.4477 242.861 90.1793L235.605 95.6729L242.446 107.179L250.427 102.929C253.123 105.727 256.336 108.008 259.964 109.666L258.409 118.373L271.78 121.068L274.786 112.672C278.932 112.569 282.975 111.739 286.81 110.288L291.786 117.129L303.81 109.459L300.182 101.789C303.188 98.8862 305.675 95.4656 307.645 91.7341L316.248 92.667L319.876 79.0882L311.791 76.6005ZM296.243 81.3686C293.237 92.356 282.042 99.5082 271.262 97.3314C260.482 95.1547 254.055 84.3746 257.061 73.3872C260.067 62.2962 271.262 55.1441 282.042 57.4245C292.822 59.6012 299.249 70.3813 296.243 81.3686Z" fill="#C5D4E6"/>
<path d="M272.298 121.691L257.994 118.788L259.549 109.978C256.128 108.319 253.122 106.246 250.427 103.551L242.342 107.801L234.983 95.466L242.239 89.9723C241.098 86.3444 240.684 82.5092 240.787 78.5703L232.495 76.0826L236.434 61.571L245.141 62.5039C247.007 58.9796 249.391 55.6627 252.293 52.864L248.562 45.09L261.311 36.9013L266.286 43.8461C270.018 42.4986 273.853 41.6694 277.792 41.5657L280.902 33.066L295.206 35.9684L293.651 44.779C297.072 46.3338 300.078 48.5106 302.773 51.2056L310.858 46.9557L318.217 59.2906L310.962 64.7843C312.102 68.4122 312.516 72.2474 312.413 76.0826L320.705 78.5703L316.766 93.0819L308.059 92.1491C306.193 95.6733 303.809 98.9903 300.907 101.789L304.639 109.563L291.889 117.752L286.81 110.807C283.078 112.154 279.243 112.984 275.304 113.087L272.298 121.691ZM259.238 117.959L271.677 120.447L274.682 112.154H274.993C279.036 112.051 282.975 111.325 286.81 109.77L287.225 109.667L292.096 116.404L303.291 109.252L299.663 101.685L299.974 101.478C302.98 98.5756 305.468 95.2587 307.334 91.5271L307.541 91.2162L316.041 92.1491L319.461 79.5032L311.376 77.1192V76.7046C311.583 72.662 311.065 68.7232 309.925 64.9916L309.821 64.6806L316.973 59.2906L310.651 48.6142L302.773 52.7604L302.462 52.4494C299.767 49.6507 296.554 47.3703 293.029 45.8155L292.615 45.6082L294.17 37.0049L281.731 34.5172L278.725 42.8096H278.414C274.475 42.9132 270.433 43.6388 266.597 45.09L266.183 45.1936L261.311 38.4561L250.116 45.6082L253.744 53.175L253.433 53.3823C250.427 56.2846 247.94 59.6016 246.074 63.3331L245.867 63.6441L237.367 62.7112L233.946 75.357L242.031 77.7411V78.1557C241.824 82.1982 242.342 86.1371 243.482 89.8687L243.586 90.1796L236.434 95.5697L242.757 106.246L250.635 102.1L250.946 102.411C253.641 105.21 256.854 107.49 260.378 109.045L260.793 109.252L259.238 117.959ZM275.201 98.2647C273.853 98.2647 272.506 98.161 271.158 97.8501C265.872 96.8135 261.518 93.7039 258.72 89.2467C255.817 84.5823 254.988 78.8813 256.543 73.284C259.549 61.9856 271.055 54.6262 282.146 56.9066C287.432 57.9431 291.785 61.0527 294.584 65.5099C297.486 70.1743 298.316 75.8753 296.761 81.4727C294.066 91.4235 284.944 98.2647 275.201 98.2647ZM278.103 57.5285C268.878 57.5285 260.171 64.0587 257.58 73.4913C256.128 78.7776 256.854 84.1677 259.653 88.6248C262.244 92.8746 266.494 95.777 271.469 96.8135C282.042 98.9903 292.926 91.9417 295.828 81.1617C297.279 75.8753 296.554 70.4853 293.755 66.0281C291.164 61.7783 286.914 58.876 281.938 57.8394C280.591 57.6321 279.347 57.5285 278.103 57.5285Z" fill="#2B273B"/>
<path d="M237.265 42.7057C237.369 39.6997 236.954 36.901 236.021 34.206L241.101 30.2671L236.125 22.0784L230.528 25.1881C228.558 23.2186 226.278 21.5601 223.583 20.4199L224.619 14.2007L215.083 12.3349L213.01 18.3469C210.108 18.4505 207.206 19.0724 204.407 20.109L200.779 15.2372L192.279 20.8346L194.974 26.3282C192.901 28.4013 191.139 30.889 189.688 33.5841L183.469 32.9621L180.981 42.7057L186.889 44.3641C186.786 47.3701 187.2 50.1688 188.133 52.8638L183.054 56.8027L188.029 64.9914L193.73 61.8817C195.7 63.8512 197.98 65.5096 200.675 66.6498L199.639 72.8691L209.175 74.7349L211.248 68.7229C214.254 68.6193 217.053 67.9973 219.851 66.9608L223.479 71.8326L231.979 66.2352L229.284 60.7415C231.357 58.6684 233.223 56.1807 234.57 53.4857L240.79 54.1076L243.277 44.3641L237.265 42.7057ZM226.174 46.2299C224.205 54.1076 216.223 59.394 208.449 57.9429C200.675 56.4917 196.011 48.8213 197.98 40.9435C199.95 33.0658 207.931 27.7794 215.705 29.2306C223.583 30.6817 228.247 38.3522 226.174 46.2299Z" fill="#96999E"/>
<path d="M209.487 75.4604L199.018 73.4909L200.055 67.168C197.671 66.0278 195.494 64.5767 193.628 62.7109L187.927 65.8205L182.433 56.8026L187.616 52.76C186.787 50.1687 186.476 47.5773 186.476 44.7787L180.464 43.1202L183.159 32.4438L189.378 33.0657C190.622 30.578 192.28 28.2976 194.25 26.2245L191.555 20.6272L200.884 14.5116L204.512 19.487C207.103 18.4504 209.798 17.9322 212.597 17.8285L214.67 11.7129L225.139 13.6823L224.102 20.0052C226.486 21.1454 228.663 22.5966 230.529 24.4624L236.23 21.3528L241.724 30.3707L236.541 34.4132C237.37 37.0046 237.681 39.5959 237.681 42.3946L243.693 44.0531L240.998 54.7295L234.779 54.1076C233.535 56.5953 231.876 58.8757 229.907 60.9487L232.602 66.4424L223.273 72.558L219.542 67.5826C216.95 68.6192 214.255 69.1374 211.457 69.2411L209.487 75.4604ZM200.158 72.6617L208.762 74.3202L210.835 68.3082H211.146C214.048 68.2046 216.847 67.5826 219.542 66.5461L219.956 66.4424L223.48 71.2105L231.255 66.1315L228.56 60.7414L228.87 60.4305C230.944 58.3574 232.706 55.8697 234.053 53.2783L234.261 52.9674L240.376 53.5893L242.657 44.7787L236.852 43.1202V42.7056C236.956 39.9069 236.541 37.0046 235.712 34.4132L235.608 34.1023L240.583 30.1634L236.126 22.8039L230.529 25.8099L230.218 25.4989C228.249 23.5295 225.968 21.9747 223.48 20.8345L223.066 20.6272L224.102 14.5116L215.499 12.8531L213.426 18.865H213.115C210.316 18.9687 207.414 19.5906 204.719 20.6272L204.304 20.7308L200.78 15.9627L193.006 21.0418L195.701 26.4318L195.39 26.7428C193.317 28.8159 191.555 31.3036 190.207 33.8949L190 34.2059L183.884 33.584L181.604 42.3946L187.409 44.0531V44.4677C187.305 47.37 187.72 50.1687 188.549 52.76L188.653 53.071L183.574 57.0099L188.134 64.3693L193.732 61.3634L194.043 61.6743C196.012 63.6438 198.292 65.1986 200.78 66.3388L201.195 66.5461L200.158 72.6617ZM211.146 58.6683C210.213 58.6683 209.28 58.5647 208.451 58.461C204.615 57.7355 201.402 55.5587 199.329 52.3454C197.152 48.9248 196.53 44.8823 197.567 40.8398C199.64 32.6511 207.829 27.2611 215.914 28.8159C219.749 29.5415 222.962 31.7182 225.035 34.9315C227.212 38.3521 227.834 42.3946 226.797 46.4371C224.828 53.5893 218.194 58.6683 211.146 58.6683ZM213.115 29.5415C206.481 29.5415 200.262 34.3096 198.5 41.0471C197.567 44.7787 198.085 48.6139 200.055 51.7235C201.92 54.7295 204.926 56.6989 208.451 57.4245C215.914 58.8757 223.688 53.7966 225.554 46.1262C226.486 42.3946 225.968 38.5594 223.999 35.4498C222.133 32.4438 219.127 30.4743 215.603 29.7488C214.773 29.6451 213.944 29.5415 213.115 29.5415Z" fill="#2B273B"/>
<path d="M172.066 49.443C171.34 47.5772 170.304 45.9187 168.956 44.4676L171.237 40.6324L165.743 36.9008L162.841 40.3214C161.079 39.5958 159.109 39.2848 157.036 39.2848L156 35.1387L149.262 36.5898L149.469 40.8397C147.603 41.6689 145.841 42.9127 144.287 44.2603L140.659 42.1872L136.616 47.9918L139.829 50.6868C139 52.5526 138.482 54.522 138.378 56.5951L134.128 57.839L135.061 64.5765L139.415 64.0583C140.14 65.924 141.177 67.5825 142.524 69.0337L140.244 72.8689L145.738 76.6004L148.64 73.1798C150.506 73.9054 152.372 74.2164 154.445 74.2164L155.481 78.3626L162.219 76.9114L162.011 72.6616C163.877 71.8323 165.639 70.5885 167.194 69.241L170.822 71.3141L174.865 65.5094L171.651 62.8144C172.481 60.9486 172.999 58.9792 173.102 56.9061L177.352 55.6622L176.419 48.9247L172.066 49.443ZM165.743 54.6257C166.572 60.0157 162.737 65.4058 157.243 66.6496C151.75 67.7898 146.671 64.3692 145.841 58.9792C145.012 53.5892 148.847 48.1991 154.341 46.9553C159.835 45.7114 165.017 49.132 165.743 54.6257Z" fill="#C5D4E6"/>
<path d="M155.066 78.9846L154.029 74.7348C152.267 74.7348 150.505 74.3202 148.846 73.8019L145.944 77.3261L139.725 73.0763L142.109 69.1374C140.969 67.7899 140.036 66.3388 139.31 64.6803L134.853 65.1986L133.713 57.5281L137.963 56.1806C138.17 54.3148 138.585 52.5527 139.31 50.7906L135.993 48.0956L140.658 41.5654L144.389 43.6384C145.84 42.3946 147.395 41.358 149.054 40.5288L148.846 36.1753L156.517 34.5168L157.553 38.7667C159.316 38.7667 161.078 39.1813 162.736 39.6996L165.638 36.1753L171.858 40.4252L169.474 44.364C170.614 45.7115 171.547 47.1627 172.272 48.8212L176.729 48.3029L177.87 55.9733L173.62 57.3208C173.413 59.1866 172.998 60.9487 172.272 62.7109L175.589 65.4059L170.925 71.9361L167.193 69.863C165.742 71.1069 164.187 72.1434 162.529 72.9727L162.736 77.3261L155.066 78.9846ZM148.535 72.4544L148.846 72.558C150.609 73.2836 152.578 73.5946 154.444 73.5946H154.858L155.791 77.6371L161.596 76.3932L161.389 72.1434L161.7 72.0398C163.565 71.2105 165.224 70.0703 166.675 68.7228L166.986 68.5155L170.614 70.4849L174.138 65.5095L171.028 62.9182L171.236 62.6072C172.065 60.7414 172.48 58.8756 172.687 56.9062V56.5952L176.833 55.3514L176.004 49.6504L171.754 50.1687L171.65 49.7541C170.925 47.9919 169.992 46.3335 168.644 44.986L168.437 44.675L170.614 40.9434L165.949 37.7301L163.151 41.0471L162.84 40.9434C161.078 40.2178 159.108 39.9069 157.242 39.9069H156.828L155.895 35.8644L150.09 37.1082L150.298 41.358L149.987 41.4617C148.121 42.2909 146.462 43.4311 145.011 44.7786L144.7 44.986L141.072 43.0165L137.548 47.9919L140.761 50.5833L140.554 50.8943C139.725 52.76 139.31 54.7295 139.103 56.5952V56.9062L134.957 58.1501L135.786 63.8511L140.036 63.3328L140.139 63.7474C140.865 65.5095 141.798 67.168 143.145 68.5155L143.456 68.8265L141.176 72.558L145.84 75.7713L148.535 72.4544ZM155.066 67.3753C152.993 67.3753 151.023 66.7534 149.365 65.6132C147.188 64.0584 145.737 61.6743 145.322 58.9793C144.493 53.2783 148.432 47.681 154.236 46.4371C157.035 45.8152 159.937 46.3335 162.218 47.9919C164.395 49.5467 165.846 51.9308 166.26 54.6258C167.09 60.3268 163.047 65.9241 157.346 67.168C156.621 67.2716 155.895 67.3753 155.066 67.3753ZM156.517 47.1627C155.791 47.1627 155.169 47.2663 154.444 47.37C149.261 48.5102 145.633 53.5893 146.359 58.772C146.67 61.2597 148.017 63.3328 149.987 64.6803C152.06 66.1315 154.547 66.5461 157.139 66.0278C162.322 64.8876 165.949 59.8085 165.224 54.6258C164.913 52.1381 163.565 50.065 161.596 48.7175C160.145 47.681 158.383 47.1627 156.517 47.1627Z" fill="#2B273B"/>
<path d="M127.805 25.2915C126.768 22.5965 125.214 20.1088 123.348 18.0357L126.665 12.4384L118.58 6.94469L114.33 12.0238C111.635 10.9872 108.836 10.4689 105.83 10.4689L104.379 4.35333L94.4281 6.53008L94.8428 12.853C92.0441 14.0969 89.4527 15.859 87.276 17.9321L81.886 14.9261L75.874 23.4257L80.6421 27.3646C79.3982 30.1633 78.6727 33.0656 78.4654 36.0716L72.2461 37.9374L73.6972 47.7845L80.0202 46.9553C81.0567 49.6503 82.6115 52.138 84.4773 54.2111L81.1604 59.8085L89.2454 65.3021L93.4953 60.2231C96.1903 61.2596 99.0926 61.7779 101.995 61.7779L103.446 67.8935L113.397 65.7168L112.982 59.3938C115.781 58.15 118.372 56.3879 120.549 54.3148L125.939 57.3207L131.951 48.8211L127.183 44.8822C128.427 42.0835 129.152 39.1812 129.36 36.1752L135.579 34.3095L134.128 24.4623L127.805 25.2915ZM118.58 32.8583C119.72 40.8397 114.122 48.7174 106.037 50.4796C97.9524 52.2417 90.4893 47.1626 89.3491 39.1812C88.2089 31.1998 93.8062 23.3221 101.891 21.56C109.873 19.7978 117.439 24.8769 118.58 32.8583Z" fill="#96999E"/>
<path d="M103.034 68.4119L101.583 62.1926C98.8879 62.089 96.1929 61.6743 93.6015 60.7415L89.3517 65.8205L80.5411 59.8086L83.9617 54.1076C82.1996 52.1381 80.7484 49.8577 79.7119 47.37L73.2853 48.1993L71.7305 37.4192L78.0534 35.5534C78.2607 32.7548 78.9863 30.0597 80.1265 27.3647L75.2547 23.4259L81.7849 14.2006L87.2786 17.2066C89.4554 15.2372 91.8394 13.6823 94.4308 12.4385L94.0162 6.01192L104.9 3.62787L106.351 9.84713C109.046 9.95079 111.741 10.3654 114.332 11.2983L118.582 6.21923L127.393 12.2312L123.972 17.9322C125.734 19.9016 127.186 22.182 128.118 24.6697L134.545 23.8405L136.1 34.6205L129.777 36.4863C129.57 39.285 128.844 41.98 127.704 44.675L132.472 48.6139L125.942 57.8391L120.448 54.8332C118.271 56.8026 115.887 58.3574 113.296 59.6013L113.711 66.0278L103.034 68.4119ZM93.2906 59.4976L93.6015 59.6013C96.2966 60.6378 99.0952 61.1561 101.998 61.1561H102.412L103.863 67.168L112.881 65.1986L112.57 58.9793L112.881 58.8757C115.576 57.6318 118.064 55.9734 120.344 53.9003L120.655 53.6929L125.942 56.5953L131.435 48.9248L126.771 45.0896L126.978 44.7787C128.222 42.0837 128.844 39.1813 129.155 36.279V35.968L135.271 34.1023L133.923 25.188L127.704 26.0172L127.6 25.6026C126.564 23.0112 125.112 20.6272 123.247 18.5541L123.039 18.2431L126.356 12.7495L119.101 7.8777L114.954 12.8531L114.643 12.7495C111.948 11.7129 109.15 11.1946 106.247 11.1946H105.833L104.382 5.18268L95.3637 7.15212L95.6746 13.3714L95.3637 13.475C92.6687 14.7189 90.1809 16.3774 87.9006 18.4504L87.5896 18.6578L82.3032 15.7554L76.8095 23.4259L81.474 27.2611L81.2667 27.572C80.0228 30.2671 79.4009 33.1694 79.0899 36.0717V36.3827L72.9743 38.2484L74.3218 47.1627L80.5411 46.3335L80.6447 46.7481C81.6813 49.4431 83.1325 51.8272 85.1019 53.7966L85.4129 54.1076L82.0959 59.7049L89.3517 64.5767L93.2906 59.4976ZM102.827 51.3089C99.9245 51.3089 97.0221 50.4797 94.6381 48.7175C91.4248 46.5408 89.3517 43.1202 88.7298 39.1813C87.4859 30.889 93.2906 22.8039 101.583 20.9382C105.729 20.0053 109.772 20.8345 113.089 23.1149C116.302 25.2916 118.375 28.7122 118.997 32.6511C120.241 40.9435 114.436 49.0285 106.04 50.8943C105.107 51.2052 103.967 51.3089 102.827 51.3089ZM105.004 21.7674C103.967 21.7674 102.93 21.871 101.894 22.0784C94.1198 23.7368 88.6261 31.4072 89.7663 39.0777C90.2846 42.7056 92.254 45.9189 95.1564 47.992C98.266 50.1687 101.998 50.7906 105.833 49.9614C113.607 48.3029 119.101 40.6325 117.96 32.9621C117.442 29.3342 115.473 26.1209 112.57 24.0478C110.394 22.493 107.699 21.7674 105.004 21.7674Z" fill="#2B273B"/>
<path d="M270.019 12.8527C269.501 11.6088 268.775 10.4686 267.946 9.53575L269.501 6.94439L265.769 4.45668L263.8 6.73708C262.556 6.32246 261.209 6.0115 259.861 6.0115L259.239 3.21283L254.678 4.24937L254.886 7.1517C253.642 7.77362 252.398 8.49921 251.361 9.43209L248.874 8.08459L246.075 12.0235L248.252 13.7856C247.733 15.0294 247.319 16.3769 247.215 17.8281L244.417 18.6573L245.038 23.2181L247.941 22.8035C248.459 24.0474 249.185 25.1876 250.014 26.1205L248.459 28.7118L252.191 31.1995L254.16 28.9191C255.404 29.3337 256.751 29.6447 258.099 29.6447L258.721 32.4434L263.282 31.4068L263.074 28.5045C264.318 27.8826 265.562 27.157 266.599 26.2241L269.086 27.5716L271.885 23.6328L269.708 21.8706C270.226 20.6268 270.641 19.2793 270.745 17.8281L273.543 16.9989L272.921 12.4381L270.019 12.8527ZM265.769 16.3769C266.288 20.1085 263.696 23.7364 259.965 24.462C256.233 25.2912 252.813 22.9072 252.294 19.2793C251.776 15.5477 254.367 11.9198 258.099 11.1942C261.83 10.365 265.251 12.749 265.769 16.3769Z" fill="#DBE0E6"/>
<path d="M258.41 33.065L257.684 30.1627C256.544 30.1627 255.404 29.9554 254.368 29.5408L252.398 31.9248L247.941 28.9188L249.496 26.2238C248.77 25.3946 248.148 24.4617 247.734 23.4251L244.728 23.8398L243.898 18.3461L246.801 17.4132C246.904 16.273 247.215 15.0291 247.63 13.9926L245.35 12.1268L248.667 7.46236L251.258 8.91353C252.191 8.08429 253.227 7.46236 254.264 6.94409L254.057 3.93811L259.55 2.79791L260.276 5.70024C261.416 5.70024 262.556 5.90755 263.593 6.32217L265.562 3.93811L270.019 6.94409L268.465 9.63911C269.19 10.4683 269.812 11.4012 270.227 12.4378L273.233 12.0232L274.062 17.5168L271.16 18.4497C271.056 19.5899 270.745 20.8338 270.33 21.8703L272.611 23.7361L269.294 28.4006L266.702 26.9494C265.77 27.7786 264.733 28.4006 263.696 28.9188L263.904 31.9248L258.41 33.065ZM254.057 28.2969L254.368 28.4006C255.611 28.8152 256.855 29.1261 258.099 29.1261H258.514L259.136 31.8212L262.764 30.9919L262.556 28.1933L262.867 28.0896C264.111 27.5713 265.251 26.7421 266.184 25.8092L266.495 25.6019L268.879 26.9494L271.056 23.8398L268.983 22.0776L269.19 21.7667C269.708 20.5228 270.019 19.279 270.123 17.9315V17.6205L272.922 16.7913L272.507 13.0597L269.708 13.3707L269.605 12.9561C269.19 11.8159 268.465 10.6757 267.635 9.74276L267.428 9.4318L268.879 6.94409L265.977 4.97466L264.111 7.25506L263.8 7.1514C262.556 6.73678 261.312 6.42582 260.069 6.42582H259.654L259.032 3.7308L255.404 4.56004L255.611 7.35871L255.3 7.46236C254.057 7.98063 252.916 8.70622 251.984 9.63911L251.673 9.84642L249.288 8.49891L247.112 11.6085L249.185 13.3707L248.977 13.6816C248.459 14.9255 248.148 16.1693 248.045 17.5168V17.8278L245.246 18.657L245.764 22.285L248.563 21.8703L248.667 22.285C249.081 23.4251 249.807 24.5653 250.636 25.4982L250.947 25.8092L249.496 28.2969L252.398 30.2663L254.057 28.2969ZM258.514 25.1873C257.063 25.1873 255.715 24.7727 254.575 23.9434C253.02 22.9069 251.983 21.2484 251.776 19.3826C251.154 15.4438 253.953 11.5049 257.892 10.6757C259.861 10.261 261.831 10.6757 263.385 11.7122C264.94 12.7487 265.977 14.4072 266.184 16.273C266.806 20.2119 264.007 24.1507 260.069 24.98C259.654 25.0836 259.032 25.1873 258.514 25.1873ZM259.55 11.5049C259.136 11.5049 258.617 11.5049 258.203 11.6085C254.782 12.3341 252.398 15.7547 252.813 19.1753C253.02 20.8338 253.849 22.1813 255.197 23.1142C256.544 24.0471 258.203 24.358 259.861 24.0471C263.282 23.3215 265.666 19.9009 265.251 16.4803C265.044 14.8218 264.215 13.4743 262.867 12.5414C261.934 11.9195 260.794 11.5049 259.55 11.5049Z" fill="#2B273B"/>
<path d="M68.6196 12.6457C67.9977 11.0909 67.1685 9.74341 66.0283 8.49956L67.894 5.28627L63.3332 2.17664L60.9492 5.07897C59.3944 4.45704 57.7359 4.14608 56.0774 4.14608L55.2482 0.621826L49.6509 1.86568L49.8582 5.49358C48.3034 6.21917 46.8522 7.15205 45.5047 8.39591L42.3951 6.73744L38.9745 11.6092L41.6695 13.7859C40.9439 15.3408 40.5293 16.9992 40.4256 18.7614L36.9014 19.7979L37.7306 25.3952L41.3585 24.9806C41.9804 26.5354 42.8097 27.9866 43.9499 29.1268L42.0841 32.3401L46.6449 35.4497L49.0289 32.5474C50.5838 33.1693 52.2422 33.4803 53.9007 33.4803L54.7299 37.0045L60.4309 35.7607L60.2236 32.1328C61.7784 31.4072 63.2296 30.4743 64.5771 29.2304L67.6867 30.8889L71.1073 26.0172L68.4123 23.8404C69.1379 22.2856 69.5525 20.6271 69.6562 18.865L73.1804 17.8285L72.3512 12.2311L68.6196 12.6457ZM63.3332 16.9992C63.9552 21.56 60.8455 26.0172 56.1811 27.0537C51.6203 28.0902 47.2668 25.1879 46.6449 20.6271C46.023 16.0663 49.1326 11.6092 53.797 10.5726C58.4615 9.53611 62.7113 12.4384 63.3332 16.9992Z" fill="#DBE0E6"/>
<path d="M54.3145 37.5229L53.4853 33.895C52.0341 33.895 50.583 33.584 49.2355 33.0658L46.7478 36.0717L41.3577 32.4438L43.3272 29.1269C42.3943 28.0904 41.6687 26.8465 41.0468 25.499L37.3152 26.0173L36.3823 19.487L40.0102 18.3468C40.1139 16.792 40.5285 15.3409 41.1504 13.8897L38.2481 11.6093L42.187 6.01196L45.4003 7.77408C46.5405 6.73754 47.888 5.9083 49.2355 5.18272L49.0282 1.45116L55.6621 0L56.4913 3.62791C57.9424 3.62791 59.3936 3.93887 60.7411 4.45714L63.2288 1.45116L68.6189 5.07907L66.6494 8.39601C67.5823 9.43255 68.3079 10.6764 68.9298 12.0239L72.6614 11.5056L73.5943 18.0359L69.9664 19.1761C69.8627 20.7309 69.4481 22.182 68.8262 23.6332L71.6248 25.9136L67.686 31.5109L64.4727 29.7488C63.3325 30.7854 61.985 31.6146 60.6375 32.3402L60.8448 36.0717L54.3145 37.5229ZM48.9245 31.9256L49.2355 32.0292C50.6866 32.5475 52.3451 32.8585 53.8999 32.8585H54.3145L55.1438 36.2791L59.9119 35.2425L59.7046 31.7183L60.0155 31.6146C61.5704 30.889 62.9179 29.9561 64.1617 28.8159L64.4727 28.6086L67.4787 30.2671L70.381 26.2246L67.7896 24.0478L67.9969 23.7369C68.7225 22.182 69.0335 20.6272 69.2408 18.9688V18.6578L72.6614 17.6213L71.9358 12.9568L68.4115 13.3714L68.3079 12.9568C67.686 11.5056 66.8567 10.1581 65.8202 9.01793L65.6129 8.70697L67.4787 5.59734L63.6434 3.00598L61.2594 5.80465L60.9484 5.701C59.4973 5.18272 57.8388 4.87176 56.284 4.87176H55.8694L55.0401 1.45116L50.272 2.48771L50.4793 6.01196L50.1684 6.11561C48.6136 6.84119 47.266 7.77408 46.0222 8.91428L45.7112 9.12159L42.7053 7.46312L39.8029 11.5056L42.4979 13.6824L42.2906 13.9934C41.5651 15.5482 41.2541 17.103 41.0468 18.7615V19.0724L37.6262 20.109L38.3518 24.7734L41.876 24.3588L41.9797 24.7734C42.6016 26.2246 43.4308 27.5721 44.4674 28.7123L44.7783 29.0232L42.9126 32.1329L46.7478 34.7242L48.9245 31.9256ZM54.4182 27.7794C52.6561 27.7794 50.9976 27.2611 49.6501 26.3282C47.7843 24.9807 46.5405 23.0113 46.2295 20.7309C45.5039 15.9628 48.9245 11.091 53.7963 10.0545C56.1803 9.53621 58.5644 9.95082 60.5338 11.2983C62.3996 12.6458 63.6434 14.6153 63.9544 16.8957C64.68 21.6638 61.2594 26.5355 56.3876 27.5721C55.6621 27.6757 55.0401 27.7794 54.4182 27.7794ZM55.6621 10.8837C55.1438 10.8837 54.5219 10.9874 54.0036 11.091C49.6501 12.0239 46.6441 16.2737 47.266 20.5236C47.577 22.5967 48.6136 24.2551 50.272 25.3953C51.9305 26.5355 54.1072 26.9502 56.1803 26.5355C60.5338 25.6026 63.5398 21.3528 62.9179 17.103C62.6069 15.0299 61.5704 13.3714 59.9119 12.2312C58.5644 11.2983 57.1132 10.8837 55.6621 10.8837Z" fill="#2B273B"/>
<path d="M71.5222 67.6861C70.1747 64.1619 68.2052 61.0522 65.8212 58.4609L70.071 51.3087L59.8092 44.3639L54.4192 50.7905C50.9986 49.5466 47.3707 48.821 43.5355 48.821L41.6697 41.0469L28.9202 43.6383L29.3348 51.7233C25.7069 53.2782 22.4936 55.5586 19.695 58.1499L12.8538 54.3147L5.18335 65.0948L11.299 70.0702C9.74415 73.5944 8.81126 77.326 8.50029 81.1612L0.622559 83.5453L2.48834 96.0874L10.5734 95.0509C11.9209 98.5751 13.8903 101.685 16.378 104.276L12.1282 111.428L22.39 118.373L27.78 111.947C31.2006 113.19 34.8285 113.916 38.6637 113.916L40.5295 121.69L53.1754 118.995L52.7607 110.91C56.3886 109.252 59.6019 107.075 62.4006 104.483L69.3455 108.319L77.0159 97.5386L71.0039 92.5632C72.5587 89.0389 73.4916 85.3074 73.8026 81.4722L81.6803 79.0881L79.8145 66.5459L71.5222 67.6861ZM59.6019 77.4296C61.0531 87.5878 54.0046 97.7459 43.6391 99.9227C33.3774 102.099 23.7375 95.6728 22.2863 85.5147C20.8352 75.2529 27.9873 65.0948 38.2491 62.918C48.6146 60.7413 58.1508 67.1679 59.6019 77.4296Z" fill="#C5D4E6"/>
<path d="M40.0106 122.519L38.1448 114.642C34.6206 114.538 31.0963 113.916 27.7794 112.776L22.2857 119.306L11.2983 111.739L15.6518 104.484C13.3714 101.892 11.5056 98.9898 10.1581 95.6729L1.96944 96.7094L0 83.2344L7.98139 80.8503C8.29235 77.2224 9.12159 73.6982 10.5728 70.2776L4.45714 65.1985L12.6458 53.5892L19.5907 57.4244C22.3894 54.9367 25.499 52.8636 28.8159 51.3088L28.2977 43.1201L41.8764 40.2178L43.7422 48.0955C47.2664 48.1992 50.7907 48.8211 54.1076 49.9613L59.6013 43.4311L70.6923 50.8942L66.3388 58.15C68.6192 60.7414 70.485 63.6437 71.7289 66.857L79.9176 65.8204L81.887 79.2955L73.9056 81.6796C73.5946 85.3075 72.6618 88.8317 71.3142 92.2523L77.4299 97.3314L69.2412 108.941L62.2963 105.105C59.4976 107.593 56.4917 109.666 53.0711 111.221L53.5893 119.41L40.0106 122.519ZM27.4684 111.532L27.7794 111.636C31.2 112.88 34.8279 113.605 38.4558 113.605H38.8704L40.7362 121.276L52.4491 118.788L52.0345 110.806L52.3455 110.703C55.8697 109.148 58.9794 106.971 61.8817 104.38L62.1927 104.173L69.0338 107.904L76.186 97.8497L70.174 92.9779L70.3814 92.6669C71.9362 89.1427 72.8691 85.5148 73.0764 81.7832V81.4722L80.8505 79.0882L79.192 67.4789L71.2106 68.5154L71.1069 68.1008C69.7594 64.6802 67.8936 61.6742 65.4059 58.9792L65.1986 58.6683L69.4485 51.5161L60.0159 45.0895L54.7295 51.4125L54.4186 51.3088C50.998 50.0649 47.3701 49.3394 43.7422 49.3394H43.3275L41.4618 41.6689L29.7488 44.1566L30.1634 52.138L29.8525 52.2417C26.4319 53.7965 23.2186 55.9733 20.3163 58.5646L20.0053 58.7719L13.1641 55.0404L6.01196 65.0948L12.0239 69.9666L11.8166 70.2776C10.2618 73.8018 9.3289 77.4297 9.12159 81.1613V81.4722L1.34751 83.8563L3.00598 95.4656L10.9874 94.4291L11.091 94.8437C12.4385 98.2643 14.3043 101.27 16.792 103.965L17.103 104.276L12.8531 111.428L22.2857 117.855L27.4684 111.532ZM39.596 100.856C35.8644 100.856 32.2365 99.7154 29.2306 97.6423C25.188 94.8437 22.493 90.4902 21.7674 85.5148C20.2126 75.0457 27.5721 64.6802 38.1448 62.3998C43.3275 61.2596 48.5103 62.2962 52.7601 65.1985C56.8026 67.9972 59.4976 72.3507 60.2232 77.3261C61.778 87.7952 54.4186 98.1606 43.8458 100.441C42.3947 100.648 41.0472 100.856 39.596 100.856ZM42.3947 63.0218C41.0472 63.0218 39.8033 63.1254 38.4558 63.4364C28.4013 65.6131 21.4565 75.4603 22.9076 85.3075C23.6332 89.9719 26.1209 94.1181 29.9561 96.7094C33.895 99.4045 38.7668 100.337 43.7422 99.3008C53.7966 97.1241 60.7415 87.2769 59.2903 77.4297C58.5648 72.7653 56.077 68.6191 52.2418 66.0277C49.2359 64.0583 45.9189 63.0218 42.3947 63.0218Z" fill="#2B273B"/>
</g>
<g clip-path="url(#clip0_886_10820)">
<path d="M56.748 159.966C56.748 160.591 56.4561 160.841 55.8306 160.758C55.9557 160.257 56.2476 159.966 56.748 159.966Z" fill="#FED633"/>
<path d="M49.6591 166.596C49.4923 166.721 49.3255 166.888 49.1587 167.013C49.1587 166.68 49.3255 166.555 49.6591 166.596Z" fill="#FED633"/>
<path d="M290.198 143.451C282.108 139.865 274.101 136.028 266.094 132.275C259.339 129.106 252.583 125.895 245.785 122.725C241.907 120.89 238.029 119.014 234.109 117.262C232.274 116.428 231.732 115.01 231.565 113.175C230.439 100.706 229.355 88.2373 228.104 75.7682C227.895 73.8082 228.354 71.3895 226.477 69.9716C224.225 68.3035 221.515 67.7197 218.762 68.4286C216.635 68.9707 214.55 69.8048 212.507 70.5971C204.917 73.4329 197.369 76.3521 189.779 79.1461C184.274 81.1895 178.811 83.3998 173.306 85.4015C167.552 87.5283 161.713 89.5717 156.042 91.9488C154.999 92.3658 153.915 92.4075 152.789 92.4909C149.786 92.6994 146.909 91.5735 143.906 91.6986C143.656 91.6569 143.364 91.6152 143.114 91.5735C139.528 90.5726 135.816 90.1556 132.104 89.6551C126.35 88.8628 120.636 87.8202 114.881 86.9445C106.207 85.5683 97.5332 84.2338 88.8174 82.941C84.4386 82.3155 80.1016 81.2729 75.6394 81.5232C72.3032 81.7317 70.4683 83.6083 70.4683 86.9028C70.4683 93.4918 70.4683 100.081 70.4266 106.67C70.4266 108.004 70.6768 109.255 71.2606 110.465C74.7636 117.763 78.0998 125.144 81.7697 132.358C82.979 134.777 83.4377 136.57 81.1024 138.322C81.6862 138.322 82.1867 138.197 82.6454 137.947C82.2284 138.197 81.6862 138.322 81.1024 138.322C80.8939 138.405 80.6854 138.447 80.4769 138.53C79.5594 139.156 78.7254 139.865 78.2666 140.907L78.1832 140.949C76.3483 141.825 74.8887 143.159 73.6794 144.786C73.5543 144.786 73.5126 144.827 73.4709 144.953C72.1364 145.787 70.927 146.787 70.0513 148.164C69.2172 148.372 68.7585 148.998 68.3415 149.665L68.2581 149.748C68.133 149.873 68.0495 149.957 67.9244 150.082L67.841 150.124C67.2155 150.207 66.7985 150.457 66.8402 151.166C66.7568 151.208 66.7151 151.25 66.7568 151.375C66.4232 151.416 66.0895 151.5 65.9227 151.875L65.881 151.917C64.8385 152.376 64.0461 153.126 63.4206 154.085C62.7116 154.461 62.2529 155.086 61.7942 155.67C60.7099 156.129 59.7508 156.629 59.292 157.797C59.1669 159.131 58.458 159.882 57.0818 159.84C56.9984 159.84 56.915 159.882 56.8733 159.965C56.8733 160.591 56.5814 160.841 55.9558 160.758C55.5805 160.883 55.2886 161.175 55.1635 161.55C55.2886 162.843 54.8299 163.468 53.4537 163.218H53.412C53.4537 164.428 52.8282 164.97 51.6188 164.845C50.6179 165.053 50.5345 166.179 49.7422 166.638C49.5754 166.763 49.4086 166.93 49.2417 167.055C48.6162 167.68 48.4911 168.473 48.4911 169.348C48.366 175.646 48.3243 181.984 48.2826 188.281C48.2409 192.285 49.1583 193.536 52.995 194.62C53.9958 194.912 55.0384 194.87 56.0809 194.912C59.1252 194.996 62.2112 195.162 65.2555 195.121C70.093 195.079 74.9304 195.996 79.7679 194.662C81.1024 194.287 82.6037 194.453 84.0216 195.162C84.939 195.621 86.2318 195.746 87.2744 195.621C89.6514 195.287 91.945 195.663 94.3221 195.83C105.248 196.664 116.258 196.58 127.225 196.997C129.436 197.081 131.479 197.414 133.439 198.415C133.606 198.582 133.731 198.707 133.898 198.874C134.231 199.583 134.773 200 135.566 200.125C135.691 200.25 135.858 200.375 135.983 200.5C136.191 201.084 136.608 201.376 137.234 201.418L137.317 201.501H137.442C137.651 201.918 137.943 202.252 138.443 202.252C138.735 202.502 139.027 202.752 139.319 203.002C140.362 203.795 141.321 204.754 142.655 205.129L142.78 205.213H142.947C144.115 206.672 145.491 207.84 147.242 208.507L147.326 208.59H147.451C148.494 210.217 150.203 210.968 151.83 211.802C152.205 212.469 152.664 213.011 153.498 213.053C154.54 213.803 155.249 215.054 156.709 215.221L156.751 215.263C157.251 216.097 158.002 216.556 158.919 216.806C159.086 217.39 159.545 217.682 160.087 217.807C160.254 218.265 160.546 218.474 161.046 218.516C161.213 218.849 161.463 218.974 161.838 218.933C162.672 220.309 164.257 220.643 165.425 221.518L165.466 221.56C165.758 222.144 166.134 222.603 166.843 222.644C167.635 223.77 168.803 224.354 170.054 224.813L170.095 224.854C170.971 225.688 171.597 226.898 173.056 226.898C173.223 227.023 173.348 227.106 173.515 227.231C174.266 228.483 175.558 229.15 176.81 229.817C177.018 230.401 177.477 230.651 178.102 230.651C178.186 230.776 178.311 230.818 178.478 230.818C178.686 231.485 179.145 231.819 179.854 231.735C179.937 231.819 180.021 231.86 180.146 231.86C183.107 234.238 189.153 233.654 191.405 230.651C192.448 229.275 193.365 227.815 194.283 226.356C196.702 222.603 199.412 219.058 201.331 214.971L201.414 214.888C202.54 214.22 203.165 213.219 203.332 211.968V211.927C205.834 208.757 208.253 205.546 209.921 201.876C211.881 199.75 213.383 197.289 214.842 194.829C216.886 191.284 219.263 188.532 223.766 188.073C226.644 187.781 229.646 187.364 232.357 186.113C232.607 186.071 232.899 186.029 233.15 185.988C233.775 185.904 234.401 185.904 234.984 185.779C239.572 184.778 244.117 183.611 248.746 182.693C256.211 181.234 263.592 179.357 271.015 177.731C276.562 176.521 282.108 175.437 287.655 174.186C289.698 173.727 291.908 173.394 293.368 171.6L293.451 171.517C294.244 171.142 294.118 170.349 294.16 169.682C294.702 163.177 294.202 156.629 294.452 150.124C294.536 146.787 293.201 144.786 290.198 143.451ZM80.2267 140.073C80.3518 139.823 80.4352 139.531 80.4352 139.156C80.4352 139.49 80.3935 139.823 80.2267 140.073Z" fill="url(#paint0_linear_886_10820)"/>
<g filter="url(#filter0_d_886_10820)">
<path d="M130.501 171.35C129 170.516 74.7631 169.96 48.282 169.891C47.726 175.243 47.9484 190.659 48.2821 191.159C49.7416 195.121 53.4252 194.982 55.1628 194.912C81.2269 195.329 127.332 197.164 126.331 196.997C129.166 197.164 133.212 198.874 134.88 199.708C150.032 210.898 179.436 231.694 179.436 232.027C187.943 234.696 188.402 232.861 191.738 230.568C198.619 219.447 212.214 198.707 212.381 199.708C218.553 190.367 219.471 191.784 222.663 189.282C244.974 183.931 289.637 173.435 289.804 174.269C293.284 173.227 294.113 172.254 294.391 171.35C294.391 163.774 294.743 149.039 294.118 146.954C293.617 150.457 290.365 152.167 287.719 153.001L215.717 167.18C207.794 179.691 190.446 206.505 191.113 207.006C186.943 211.802 183.029 209.856 180.597 207.631C164.611 195.607 132.002 172.184 130.501 171.35Z" fill="#EA3550"/>
</g>
<path d="M83.9376 147.163L64.1289 143.201L69.5502 142.159L85.3972 146.537L87.8993 150.29L92.2781 152.793L99.3675 154.044V162.176L103.746 165.929L104.789 168.014L104.372 168.848L103.121 170.308L101.244 196L98.5 195.5L101.244 170.308L103.121 168.431L102.495 166.346L97.6994 162.801V155.295L91.444 153.835L86.4397 150.916L83.9376 147.163Z" fill="#090919" stroke="#090919" stroke-width="2.60684"/>
<path d="M234.671 175.452L222.506 189.355V190.224L225.547 189.355L236.409 175.017L235.106 168.5L238.581 164.59L238.147 162.418L233.802 150.252L238.147 141.997L245.967 137.653V133.308L252.05 128.963L252.485 126.791L252.919 125.487L250.312 124.184V128.094L244.664 132.439V137.218L236.843 140.694L232.064 150.252L236.843 164.155L233.368 168.066L234.671 175.452Z" fill="#090919" stroke="#090919" stroke-width="2.60684"/>
<path d="M291.353 175.972L223.809 191.522L234.013 177.43L232.556 169.169L236.443 165.282L235.957 161.88C254.422 158.317 291.353 151.287 291.353 151.676C294.074 151.287 296.374 147.302 297.184 145.359C297.346 154.267 297.67 172.279 297.67 173.056C297.281 174.611 293.296 175.648 291.353 175.972Z" fill="#090919"/>
<path d="M290.381 152.162C273.426 155.584 240.01 162.292 236.697 162.819L230.612 149.246L235.472 140.985L244.704 136.126L245.19 131.267L251.507 125.922L251.993 123.006L293.782 141.957C297.281 142.346 297.508 145.359 297.184 146.816C296.795 149.149 292.487 151.352 290.381 152.162Z" fill="#090919"/>
<path d="M72.4346 144.604L48.8394 169.539C48.5481 176.34 48.0529 189.85 48.4025 189.487C48.752 194.202 52.0437 195.985 53.6458 196.288L100.836 196.741V169.992L103.895 166.819L96.9037 163.192V155.485L89.9125 154.125L86.8539 151.858L83.7952 147.324L72.4346 144.604Z" fill="#090919" stroke="#090919" stroke-width="2.60684"/>
</g>
<g filter="url(#filter1_d_886_10820)">
<path d="M295.744 177.351L234 182.657L244.799 171.459L244.543 163.964L248.472 161.009L248.467 157.937C265.261 157.095 298.836 155.497 298.787 155.842C301.245 155.838 303.78 152.599 304.741 150.98C303.768 158.887 301.799 174.873 301.702 175.561C301.163 176.889 297.505 177.308 295.744 177.351Z" fill="#EA3550"/>
<path d="M297.866 156.15C282.427 157.056 252.004 158.809 249.004 158.861L245.318 146.082L250.654 139.378L259.437 136.232L260.475 131.991L266.737 128.051L267.533 125.53L302.155 147.542C305.204 148.325 305.027 151.02 304.558 152.27C303.922 154.286 299.831 155.697 297.866 156.15Z" fill="#FE7274"/>
</g>
<g filter="url(#filter2_d_886_10820)">
<path d="M45.6128 196.774L43.8742 175.987L97.5 168.5L99.0002 196C83.3838 197.052 51.7327 200.152 52.1146 200.462C49.3853 201.097 46.6428 198.268 45.6128 196.774Z" fill="#EA3550"/>
</g>
<path d="M44.3053 173.425L65.0392 150.182L76.7197 151.11L79.809 155.087L86.2901 157.42L91.6673 157.717L92.4242 164.949L97.6723 168.27L95.736 171.053C78.726 173.12 44.5119 177.102 43.7356 176.495C42.9593 175.888 43.792 174.196 44.3053 173.425Z" fill="url(#paint1_linear_886_10820)"/>
<defs>
<filter id="filter0_d_886_10820" x="44.4676" y="146.954" width="253.498" height="93.3453" filterUnits="userSpaceOnUse" color-interpolation-filters="sRGB">
<feFlood flood-opacity="0" result="BackgroundImageFix"/>
<feColorMatrix in="SourceAlpha" type="matrix" values="0 0 0 0 0 0 0 0 0 0 0 0 0 0 0 0 0 0 127 0" result="hardAlpha"/>
<feOffset dy="3.47579"/>
<feGaussianBlur stdDeviation="1.73789"/>
<feComposite in2="hardAlpha" operator="out"/>
<feColorMatrix type="matrix" values="0 0 0 0 0 0 0 0 0 0 0 0 0 0 0 0 0 0 0.25 0"/>
<feBlend mode="normal" in2="BackgroundImageFix" result="effect1_dropShadow_886_10820"/>
<feBlend mode="normal" in="SourceGraphic" in2="effect1_dropShadow_886_10820" result="shape"/>
</filter>
<filter id="filter1_d_886_10820" x="230.524" y="125.53" width="77.7743" height="64.078" filterUnits="userSpaceOnUse" color-interpolation-filters="sRGB">
<feFlood flood-opacity="0" result="BackgroundImageFix"/>
<feColorMatrix in="SourceAlpha" type="matrix" values="0 0 0 0 0 0 0 0 0 0 0 0 0 0 0 0 0 0 127 0" result="hardAlpha"/>
<feOffset dy="3.47579"/>
<feGaussianBlur stdDeviation="1.73789"/>
<feComposite in2="hardAlpha" operator="out"/>
<feColorMatrix type="matrix" values="0 0 0 0 0 0 0 0 0 0 0 0 0 0 0 0 0 0 0.25 0"/>
<feBlend mode="normal" in2="BackgroundImageFix" result="effect1_dropShadow_886_10820"/>
<feBlend mode="normal" in="SourceGraphic" in2="effect1_dropShadow_886_10820" result="shape"/>
</filter>
<filter id="filter2_d_886_10820" x="40.3982" y="168.5" width="62.0776" height="39.0046" filterUnits="userSpaceOnUse" color-interpolation-filters="sRGB">
<feFlood flood-opacity="0" result="BackgroundImageFix"/>
<feColorMatrix in="SourceAlpha" type="matrix" values="0 0 0 0 0 0 0 0 0 0 0 0 0 0 0 0 0 0 127 0" result="hardAlpha"/>
<feOffset dy="3.47579"/>
<feGaussianBlur stdDeviation="1.73789"/>
<feComposite in2="hardAlpha" operator="out"/>
<feColorMatrix type="matrix" values="0 0 0 0 0 0 0 0 0 0 0 0 0 0 0 0 0 0 0.25 0"/>
<feBlend mode="normal" in2="BackgroundImageFix" result="effect1_dropShadow_886_10820"/>
<feBlend mode="normal" in="SourceGraphic" in2="effect1_dropShadow_886_10820" result="shape"/>
</filter>
<linearGradient id="paint0_linear_886_10820" x1="45.7805" y1="74.8091" x2="229.271" y2="171.142" gradientUnits="userSpaceOnUse">
<stop stop-color="#FF4A65"/>
<stop offset="0.822985" stop-color="#FE7274"/>
</linearGradient>
<linearGradient id="paint1_linear_886_10820" x1="44.5926" y1="174.255" x2="88.804" y2="153.141" gradientUnits="userSpaceOnUse">
<stop stop-color="#FE5669"/>
<stop offset="1" stop-color="#FE5D6C"/>
</linearGradient>
<clipPath id="clip0_886_10820">
<rect width="246.128" height="165.1" fill="white" transform="translate(48.2822 68.1367)"/>
</clipPath>
</defs>
</svg>
