<svg width="90" height="16" viewBox="0 0 90 16" fill="none" xmlns="http://www.w3.org/2000/svg">
<g clip-path="url(#clip0_201_1762)">
<path d="M62.5748 12.4156C60.4866 12.4156 58.8707 11.3324 58.8374 9.4549H60.9987C61.0585 10.2492 61.5906 10.781 62.5282 10.781C63.4792 10.781 64.0444 10.2821 64.0444 9.57306C64.0444 7.41979 58.8507 8.71963 58.864 5.11553C58.864 3.32333 60.3337 2.24013 62.4152 2.24013C64.4767 2.24013 65.8932 3.27737 66.0195 5.07614H63.7984C63.7518 4.41966 63.2198 3.9076 62.3553 3.89447C61.564 3.86821 60.9721 4.24897 60.9721 5.06301C60.9721 7.05873 66.1326 5.9427 66.1326 9.44833C66.1392 11.0042 64.8691 12.4156 62.5748 12.4156Z" fill="white"/>
<path d="M71.7653 4.22269C73.8135 4.22269 75.4162 5.80482 75.4162 8.26663C75.4162 10.7285 73.8135 12.3697 71.7653 12.3697C70.5084 12.3697 69.6173 11.7591 69.1252 11.1158V16H67.1035V4.35398H69.1252V5.49627C69.5973 4.82009 70.5217 4.22269 71.7653 4.22269ZM71.2266 5.9755C70.1426 5.9755 69.1185 6.80267 69.1185 8.29946C69.1185 9.79624 70.1426 10.6234 71.2266 10.6234C72.3239 10.6234 73.348 9.76998 73.348 8.2732C73.348 6.77641 72.3239 5.9755 71.2266 5.9755Z" fill="white"/>
<path d="M80.3173 12.3697C78.0097 12.3697 76.2673 10.7744 76.2673 8.29948C76.2673 5.80484 78.0695 4.22928 80.3771 4.22928C82.6847 4.22928 84.4869 5.81141 84.4869 8.29948C84.4869 10.7744 82.6382 12.3697 80.3173 12.3697ZM80.3173 10.63C81.3813 10.63 82.4054 9.86192 82.4054 8.29292C82.4054 6.71079 81.4079 5.95583 80.3439 5.95583C79.2798 5.95583 78.3089 6.71079 78.3089 8.29292C78.3156 9.86192 79.2333 10.63 80.3173 10.63Z" fill="white"/>
<path d="M86.1761 5.98867H85.2251V4.35402H86.1761V2.40426H88.211V4.35402H89.9999V5.98867H88.211V9.80284C88.211 10.328 88.4305 10.5578 89.0622 10.5578H89.9999V12.2384H88.7297C87.2002 12.2384 86.1761 11.595 86.1761 9.78971V5.98867Z" fill="white"/>
<path d="M24.5561 2.17442C26.7839 2.17442 28.5927 3.34953 29.2644 5.37807H26.9501C26.478 4.42617 25.6135 3.96006 24.5361 3.96006C22.7805 3.96006 21.5369 5.22051 21.5369 7.23592C21.5369 9.2382 22.7872 10.5118 24.5361 10.5118C25.6135 10.5118 26.478 10.0457 26.9501 9.08064H29.2644C28.5861 11.1223 26.7772 12.2843 24.5561 12.2843C21.6699 12.2843 19.4688 10.1967 19.4688 7.23592C19.4688 4.27517 21.6633 2.17442 24.5561 2.17442Z" fill="white"/>
<path d="M33.8597 12.3303C31.5455 12.3303 29.8696 10.7416 29.8696 8.27318C29.8696 5.79167 31.5056 4.2161 33.8597 4.2161C36.1606 4.2161 37.7833 5.75884 37.7833 8.10249C37.7833 8.35852 37.77 8.61455 37.7234 8.87058H31.9046C32.0043 10.0326 32.809 10.6825 33.8132 10.6825C34.6777 10.6825 35.1498 10.2558 35.4092 9.73057H37.5771C37.1515 11.1814 35.8281 12.3303 33.8597 12.3303ZM31.9245 7.53792H35.7018C35.6752 6.50067 34.8373 5.85075 33.8065 5.85075C32.8422 5.85075 32.0775 6.46128 31.9245 7.53792Z" fill="white"/>
<path d="M38.6411 1.70838H40.6495V12.199H38.6411V1.70838Z" fill="white"/>
<path d="M45.5106 12.3303C43.1963 12.3303 41.5205 10.7416 41.5205 8.27318C41.5205 5.79167 43.1564 4.2161 45.5106 4.2161C47.8115 4.2161 49.4341 5.75884 49.4341 8.10249C49.4341 8.35852 49.4208 8.61455 49.3743 8.87058H43.5554C43.6552 10.0326 44.4599 10.6825 45.464 10.6825C46.3285 10.6825 46.8007 10.2558 47.0601 9.73057H49.228C48.8024 11.1814 47.479 12.3303 45.5106 12.3303ZM43.5687 7.53792H47.346C47.3194 6.50067 46.4815 5.85075 45.4507 5.85075C44.4931 5.85075 43.7283 6.46128 43.5687 7.53792Z" fill="white"/>
<path d="M54.9338 4.21615C56.9754 4.21615 58.5648 5.79172 58.5648 8.24041C58.5648 10.6957 56.9687 12.3237 54.9338 12.3237C53.6836 12.3237 52.7924 11.7592 52.307 11.0764V12.199H50.292V1.70838H52.3003V5.4963C52.7924 4.77417 53.7235 4.21615 54.9338 4.21615ZM54.4018 5.9624C53.3244 5.9624 52.307 6.78301 52.307 8.27323C52.307 9.76345 53.3244 10.5841 54.4018 10.5841C55.4924 10.5841 56.5165 9.73063 56.5165 8.24697C56.5099 6.75675 55.4924 5.9624 54.4018 5.9624Z" fill="white"/>
</g>
<path d="M7.40996 14.6279C3.08738 14.5951 -0.0847264 11.1223 0.00172516 7.11115C0.0881767 3.14598 3.50634 -0.0773643 7.52301 0.00141393C11.7259 0.086757 14.9578 3.42827 14.8182 7.60351C14.6918 11.4111 11.533 14.6279 7.40996 14.6279ZM12.4707 7.31466C9.5646 6.85512 7.93532 5.24673 7.40996 2.39758C6.89125 5.25986 5.23537 6.84855 2.34922 7.31466C5.27527 7.7742 6.8979 9.40228 7.41661 12.2186C7.92867 9.38258 9.5646 7.78732 12.4707 7.31466Z" fill="white"/>
<defs>
<clipPath id="clip0_201_1762">
<rect width="87.7882" height="15.9985" fill="white" transform="translate(2.21191 0.00146484)"/>
</clipPath>
</defs>
</svg>
