<svg width="165" height="29" viewBox="0 0 165 29" fill="none" xmlns="http://www.w3.org/2000/svg">
<path d="M114.721 22.5032C110.892 22.5032 107.93 20.5399 107.869 17.1368H111.831C111.941 18.5766 112.916 19.5404 114.635 19.5404C116.379 19.5404 117.415 18.6361 117.415 17.351C117.415 13.4482 107.893 15.8042 107.918 9.27173C107.918 6.02336 110.612 4.06006 114.428 4.06006C118.208 4.06006 120.804 5.94007 121.036 9.20034H116.964C116.879 8.01046 115.903 7.08235 114.318 7.05855C112.868 7.01096 111.782 7.70109 111.782 9.17654C111.782 12.7938 121.243 10.771 121.243 17.1249C121.256 19.9449 118.927 22.5032 114.721 22.5032Z" fill="#FC4964"/>
<path d="M131.57 7.65332C135.325 7.65332 138.263 10.5209 138.263 14.983C138.263 19.445 135.325 22.4197 131.57 22.4197C129.266 22.4197 127.632 21.3131 126.73 20.147V28.9997H123.023V7.8913H126.73V9.96168C127.595 8.73611 129.29 7.65332 131.57 7.65332ZM130.582 10.8303C128.595 10.8303 126.718 12.3295 126.718 15.0425C126.718 17.7554 128.595 19.2546 130.582 19.2546C132.594 19.2546 134.472 17.7078 134.472 14.9949C134.472 12.2819 132.594 10.8303 130.582 10.8303Z" fill="#FC4964"/>
<path d="M147.249 22.42C143.018 22.42 139.824 19.5286 139.824 15.0428C139.824 10.5212 143.128 7.66553 147.358 7.66553C151.589 7.66553 154.893 10.5331 154.893 15.0428C154.893 19.5286 151.504 22.42 147.249 22.42ZM147.249 19.2668C149.199 19.2668 151.077 17.8747 151.077 15.0309C151.077 12.1633 149.248 10.7949 147.297 10.7949C145.347 10.7949 143.567 12.1633 143.567 15.0309C143.579 17.8747 145.261 19.2668 147.249 19.2668Z" fill="#FC4964"/>
<path d="M157.99 10.8542H156.246V7.89136H157.99V4.35742H161.72V7.89136H165V10.8542H161.72V17.7674C161.72 18.7193 162.123 19.1357 163.281 19.1357H165V22.1818H162.671C159.867 22.1818 157.99 21.0157 157.99 17.7436V10.8542Z" fill="#FC4964"/>
<path d="M45.0197 3.94092C49.104 3.94092 52.4201 6.0708 53.6515 9.74753H49.4088C48.5431 8.0222 46.9582 7.17739 44.9831 7.17739C41.7644 7.17739 39.4846 9.46196 39.4846 13.1149C39.4846 16.744 41.7766 19.0524 44.9831 19.0524C46.9582 19.0524 48.5431 18.2076 49.4088 16.4584H53.6515C52.408 20.159 49.0918 22.2651 45.0197 22.2651C39.7284 22.2651 35.6929 18.4812 35.6929 13.1149C35.6929 7.74853 39.7162 3.94092 45.0197 3.94092Z" fill="white"/>
<path d="M62.0761 22.3485C57.8333 22.3485 54.761 19.469 54.761 14.9951C54.761 10.4973 57.7602 7.6416 62.0761 7.6416C66.2945 7.6416 69.2693 10.4378 69.2693 14.6857C69.2693 15.1497 69.245 15.6138 69.1596 16.0778H58.4917C58.6746 18.1839 60.1498 19.3619 61.9908 19.3619C63.5757 19.3619 64.4413 18.5885 64.9168 17.6366H68.8914C68.1111 20.2662 65.6849 22.3485 62.0761 22.3485ZM58.5283 13.6624H65.4533C65.4045 11.7824 63.8683 10.6044 61.9786 10.6044C60.2108 10.6044 58.8087 11.711 58.5283 13.6624Z" fill="white"/>
<path d="M70.842 3.09619H74.524V22.1105H70.842V3.09619Z" fill="white"/>
<path d="M83.4362 22.3485C79.1934 22.3485 76.1211 19.469 76.1211 14.9951C76.1211 10.4973 79.1203 7.6416 83.4362 7.6416C87.6546 7.6416 90.6294 10.4378 90.6294 14.6857C90.6294 15.1497 90.6051 15.6138 90.5197 16.0778H79.8518C80.0347 18.1839 81.5099 19.3619 83.3509 19.3619C84.9358 19.3619 85.8015 18.5885 86.2769 17.6366H90.2515C89.4712 20.2662 87.045 22.3485 83.4362 22.3485ZM79.8762 13.6624H86.8012C86.7524 11.7824 85.2162 10.6044 83.3265 10.6044C81.5709 10.6044 80.1688 11.711 79.8762 13.6624Z" fill="white"/>
<path d="M100.712 7.64153C104.455 7.64153 107.369 10.4972 107.369 14.9355C107.369 19.3856 104.443 22.3365 100.712 22.3365C98.4203 22.3365 96.7865 21.3132 95.8965 20.0758V22.1105H92.2024V3.09619H95.8843V9.96179C96.7865 8.65293 98.4934 7.64153 100.712 7.64153ZM99.737 10.8066C97.7619 10.8066 95.8965 12.294 95.8965 14.995C95.8965 17.696 97.7619 19.1834 99.737 19.1834C101.736 19.1834 103.614 17.6365 103.614 14.9474C103.602 12.2464 101.736 10.8066 99.737 10.8066Z" fill="white"/>
<path d="M13.5849 26.5131C5.6602 26.4536 -0.155332 20.1591 0.0031628 12.889C0.161657 5.70208 6.42829 -0.140223 13.7922 0.00256274C21.4975 0.157247 27.4227 6.21373 27.1667 13.7814C26.935 20.6827 21.1439 26.5131 13.5849 26.5131ZM22.863 13.2578C17.5351 12.4249 14.5481 9.5097 13.5849 4.34562C12.634 9.53349 9.59818 12.413 4.3069 13.2578C9.67133 14.0907 12.6462 17.0416 13.5971 22.1462C14.5359 17.0059 17.5351 14.1145 22.863 13.2578Z" fill="#FC4964"/>
<path d="M22.8632 13.2579C17.5353 14.1265 14.5239 17.006 13.5973 22.1463C12.6342 17.0417 9.65937 14.0908 4.30713 13.2579C9.59841 12.4131 12.6342 9.53357 13.5852 4.3457C14.5605 9.50978 17.5353 12.425 22.8632 13.2579Z" fill="white"/>
</svg>
