<svg width="123" height="25" viewBox="0 0 123 25" fill="none" xmlns="http://www.w3.org/2000/svg">
<g clip-path="url(#clip0_201_881)">
<path d="M84.9449 19.0731C82.1103 19.0731 79.9166 17.5835 79.8715 15.0017H82.8054C82.8866 16.094 83.6088 16.8252 84.8817 16.8252C86.1726 16.8252 86.94 16.1391 86.94 15.1642C86.94 12.2031 79.8895 13.9906 79.9076 9.03449C79.9076 6.56998 81.9026 5.08044 84.7282 5.08044C87.5268 5.08044 89.4496 6.50679 89.6212 8.98032H86.606C86.5428 8.07757 85.8206 7.37343 84.647 7.35537C83.5727 7.31926 82.7693 7.84286 82.7693 8.96227C82.7693 11.7066 89.7746 10.1719 89.7746 14.9926C89.7836 17.1321 88.0594 19.0731 84.9449 19.0731Z" fill="#FC4964"/>
<path d="M97.4209 7.8067C100.201 7.8067 102.377 9.98233 102.377 13.3676C102.377 16.7529 100.201 19.0098 97.4209 19.0098C95.7147 19.0098 94.505 18.1703 93.837 17.2856V24.002H91.0927V7.98725H93.837V9.55803C94.478 8.6282 95.7328 7.8067 97.4209 7.8067ZM96.6897 10.217C95.2182 10.217 93.828 11.3545 93.828 13.4128C93.828 15.471 95.2182 16.6085 96.6897 16.6085C98.1792 16.6085 99.5695 15.4349 99.5695 13.3767C99.5695 11.3184 98.1792 10.217 96.6897 10.217Z" fill="#FC4964"/>
<path d="M109.03 19.0098C105.898 19.0098 103.532 16.8161 103.532 13.4128C103.532 9.98233 105.979 7.81573 109.111 7.81573C112.244 7.81573 114.69 9.99136 114.69 13.4128C114.69 16.8161 112.181 19.0098 109.03 19.0098ZM109.03 16.6175C110.475 16.6175 111.865 15.5613 111.865 13.4038C111.865 11.2281 110.511 10.19 109.066 10.19C107.622 10.19 106.304 11.2281 106.304 13.4038C106.313 15.5613 107.559 16.6175 109.03 16.6175Z" fill="#FC4964"/>
<path d="M116.983 10.2351H115.693V7.98726H116.983V5.30609H119.746V7.98726H122.174V10.2351H119.746V15.4801C119.746 16.2023 120.044 16.5182 120.901 16.5182H122.174V18.8293H120.45C118.374 18.8293 116.983 17.9446 116.983 15.462V10.2351Z" fill="#FC4964"/>
<path d="M33.3347 4.99005C36.359 4.99005 38.8144 6.60597 39.7262 9.39547H36.5846C35.9437 8.08648 34.7701 7.44553 33.3077 7.44553C30.9244 7.44553 29.2363 9.17881 29.2363 11.9502C29.2363 14.7036 30.9334 16.455 33.3077 16.455C34.7701 16.455 35.9437 15.814 36.5846 14.487H39.7262C38.8054 17.2945 36.3499 18.8924 33.3347 18.8924C29.4168 18.8924 26.4287 16.0216 26.4287 11.9502C26.4287 7.87885 29.4078 4.99005 33.3347 4.99005Z" fill="white"/>
<path d="M45.9642 18.9556C42.8227 18.9556 40.5477 16.7709 40.5477 13.3766C40.5477 9.96421 42.7685 7.79761 45.9642 7.79761C49.0877 7.79761 51.2904 9.91907 51.2904 13.1419C51.2904 13.494 51.2724 13.846 51.2092 14.1981H43.3101C43.4456 15.796 44.5379 16.6897 45.901 16.6897C47.0746 16.6897 47.7156 16.1029 48.0676 15.3807H51.0106C50.4328 17.3758 48.6364 18.9556 45.9642 18.9556ZM43.3372 12.3655H48.4648C48.4287 10.9392 47.2913 10.0455 45.892 10.0455C44.583 10.0455 43.5449 10.885 43.3372 12.3655Z" fill="white"/>
<path d="M52.4548 4.34918H55.1811V18.7751H52.4548V4.34918Z" fill="white"/>
<path d="M61.7804 18.9556C58.6388 18.9556 56.3639 16.7709 56.3639 13.3766C56.3639 9.96421 58.5847 7.79761 61.7804 7.79761C64.9039 7.79761 67.1066 9.91907 67.1066 13.1419C67.1066 13.494 67.0886 13.846 67.0254 14.1981H59.1263C59.2617 15.796 60.354 16.6897 61.7172 16.6897C62.8908 16.6897 63.5317 16.1029 63.8838 15.3807H66.8268C66.249 17.3758 64.4525 18.9556 61.7804 18.9556ZM59.1444 12.3655H64.272C64.2359 10.9392 63.0984 10.0455 61.6991 10.0455C60.3992 10.0455 59.361 10.885 59.1444 12.3655Z" fill="white"/>
<path d="M74.5723 7.79768C77.3437 7.79768 79.5013 9.96428 79.5013 13.3315C79.5013 16.7078 77.3347 18.9466 74.5723 18.9466C72.8751 18.9466 71.6655 18.1703 71.0064 17.2314V18.7751H68.2711V4.34918H70.9974V9.55805C71.6655 8.56502 72.9293 7.79768 74.5723 7.79768ZM73.8501 10.199C72.3877 10.199 71.0064 11.3274 71.0064 13.3767C71.0064 15.4259 72.3877 16.5544 73.8501 16.5544C75.3306 16.5544 76.7208 15.3808 76.7208 13.3406C76.7118 11.2913 75.3306 10.199 73.8501 10.199Z" fill="white"/>
</g>
<path d="M10.059 20.1152C4.1911 20.0701 -0.115016 15.2945 0.0023419 9.77872C0.119699 4.32611 4.75983 -0.106386 10.2124 0.00194433C15.9178 0.119302 20.3052 4.7143 20.1156 10.4558C19.9441 15.6917 15.656 20.1152 10.059 20.1152ZM16.9289 10.0586C12.9839 9.42665 10.7721 7.21491 10.059 3.29698C9.35483 7.23297 7.10698 9.41762 3.18905 10.0586C7.16114 10.6905 9.36385 12.9293 10.068 16.8021C10.7631 12.9022 12.9839 10.7086 16.9289 10.0586Z" fill="#FC4964"/>
<path d="M16.9291 10.0587C12.984 10.7177 10.7542 12.9024 10.0682 16.8022C9.35499 12.9295 7.15228 10.6906 3.18921 10.0587C7.10714 9.41776 9.35499 7.23311 10.0591 3.29712C10.7813 7.21505 12.984 9.42679 16.9291 10.0587Z" fill="white"/>
<defs>
<clipPath id="clip0_201_881">
<rect width="119.172" height="22" fill="white" transform="translate(3.00244 2.00195)"/>
</clipPath>
</defs>
</svg>
