<svg width="178" height="32" viewBox="0 0 178 32" fill="none" xmlns="http://www.w3.org/2000/svg">
<g clip-path="url(#clip0_199_5343)">
<path d="M123.267 24.6894C119.153 24.6894 115.97 22.5556 115.905 18.857H120.162C120.28 20.4218 121.328 21.4693 123.175 21.4693C125.049 21.4693 126.162 20.4865 126.162 19.0898C126.162 14.8481 115.931 17.4086 115.957 10.3089C115.957 6.7784 118.852 4.64459 122.953 4.64459C127.014 4.64459 129.804 6.68788 130.053 10.2313H125.677C125.586 8.93807 124.538 7.92936 122.835 7.9035C121.276 7.85177 120.11 8.60183 120.11 10.2054C120.11 14.1368 130.276 11.9383 130.276 18.8441C130.289 21.909 127.786 24.6894 123.267 24.6894Z" fill="white"/>
<path d="M141.371 8.55014C145.406 8.55014 148.563 11.6668 148.563 16.5164C148.563 21.3659 145.406 24.599 141.371 24.599C138.895 24.599 137.14 23.3963 136.171 22.1289V31.7504H132.188V8.80878H136.171V11.059C137.101 9.72697 138.922 8.55014 141.371 8.55014ZM140.31 12.003C138.175 12.003 136.157 13.6325 136.157 16.581C136.157 19.5295 138.175 21.159 140.31 21.159C142.472 21.159 144.489 19.4778 144.489 16.5293C144.489 13.5808 142.472 12.003 140.31 12.003Z" fill="white"/>
<path d="M158.218 24.599C153.672 24.599 150.24 21.4565 150.24 16.5811C150.24 11.6668 153.79 8.56313 158.336 8.56313C162.882 8.56313 166.432 11.6798 166.432 16.5811C166.432 21.4565 162.79 24.599 158.218 24.599ZM158.218 21.172C160.314 21.172 162.331 19.6589 162.331 16.5681C162.331 13.4515 160.366 11.9643 158.27 11.9643C156.174 11.9643 154.262 13.4515 154.262 16.5681C154.275 19.6589 156.083 21.172 158.218 21.172Z" fill="white"/>
<path d="M169.759 12.0289H167.886V8.80875H169.759V4.9679H173.768V8.80875H177.292V12.0289H173.768V19.5424C173.768 20.577 174.2 21.0296 175.445 21.0296H177.292V24.3403H174.79C171.777 24.3403 169.759 23.0729 169.759 19.5166V12.0289Z" fill="white"/>
<path d="M48.3733 4.51521C52.7618 4.51521 56.3251 6.83007 57.6482 10.8261H53.0893C52.1592 8.95095 50.4562 8.03276 48.334 8.03276C44.8756 8.03276 42.4258 10.5157 42.4258 14.4859C42.4258 18.4302 44.8887 20.9391 48.334 20.9391C50.4562 20.9391 52.1592 20.0209 53.0893 18.1199H57.6482C56.312 22.1418 52.7487 24.4307 48.3733 24.4307C42.6878 24.4307 38.3517 20.3183 38.3517 14.4859C38.3517 8.65351 42.6747 4.51521 48.3733 4.51521Z" fill="white"/>
<path d="M66.7005 24.5213C62.1416 24.5213 58.8404 21.3917 58.8404 16.5292C58.8404 11.6409 62.063 8.53716 66.7005 8.53716C71.2331 8.53716 74.4296 11.5762 74.4296 16.193C74.4296 16.6973 74.4034 17.2017 74.3117 17.7061H62.849C63.0455 19.9951 64.6307 21.2753 66.6088 21.2753C68.3118 21.2753 69.2419 20.4347 69.7528 19.4002H74.0235C73.185 22.2582 70.5781 24.5213 66.7005 24.5213ZM62.8883 15.0808H70.3292C70.2768 13.0375 68.6262 11.7573 66.5957 11.7573C64.6962 11.7573 63.1896 12.96 62.8883 15.0808Z" fill="white"/>
<path d="M76.1193 3.59711H80.0756V24.2627H76.1193V3.59711Z" fill="white"/>
<path d="M89.6518 24.5213C85.0929 24.5213 81.7917 21.3917 81.7917 16.5292C81.7917 11.6409 85.0143 8.53716 89.6518 8.53716C94.1844 8.53716 97.3809 11.5762 97.3809 16.193C97.3809 16.6973 97.3547 17.2017 97.263 17.7061H85.8003C85.9968 19.9951 87.582 21.2753 89.5601 21.2753C91.2631 21.2753 92.1932 20.4347 92.7041 19.4002H96.9748C96.1363 22.2582 93.5294 24.5213 89.6518 24.5213ZM85.8265 15.0808H93.2674C93.215 13.0375 91.5644 11.7573 89.5339 11.7573C87.6475 11.7573 86.1409 12.96 85.8265 15.0808Z" fill="white"/>
<path d="M108.215 8.53719C112.237 8.53719 115.367 11.6409 115.367 16.4646C115.367 21.3012 112.223 24.5084 108.215 24.5084C105.752 24.5084 103.997 23.3963 103.04 22.0513V24.2627H99.0709V3.59711H103.027V11.059C103.997 9.63643 105.831 8.53719 108.215 8.53719ZM107.167 11.9772C105.045 11.9772 103.04 13.5937 103.04 16.5293C103.04 19.4649 105.045 21.0814 107.167 21.0814C109.315 21.0814 111.333 19.4002 111.333 16.4775C111.32 13.5419 109.315 11.9772 107.167 11.9772Z" fill="white"/>
</g>
<path d="M14.597 29.0475C6.08187 28.9828 -0.166903 22.1417 0.00339842 14.2401C0.1737 6.4291 6.90718 0.0794108 14.8197 0.234597C23.099 0.402715 29.4656 6.98519 29.1905 15.21C28.9416 22.7107 22.7191 29.0475 14.597 29.0475ZM24.5662 14.641C18.8414 13.7358 15.6319 10.5674 14.597 4.95484C13.5752 10.5933 10.3132 13.7228 4.62775 14.641C10.3918 15.5463 13.5883 18.7535 14.6101 24.3014C15.6188 18.7147 18.8414 15.5721 24.5662 14.641Z" fill="white"/>
<defs>
<clipPath id="clip0_199_5343">
<rect width="172.935" height="31.5157" fill="white" transform="translate(4.35693 0.23468)"/>
</clipPath>
</defs>
</svg>
