<svg width="13" height="10" viewBox="0 0 13 10" fill="none" xmlns="http://www.w3.org/2000/svg">
<g clip-path="url(#clip0_295_15959)">
<path d="M0 0H13V9.75H0V0Z" fill="#012169"/>
<path d="M1.52344 0L6.47969 3.67656L11.4156 0H13V1.25937L8.125 4.89531L13 8.51094V9.75H11.375L6.5 6.11406L1.64531 9.75H0V8.53125L4.85469 4.91562L0 1.3V0H1.52344Z" fill="white"/>
<path d="M8.6125 5.70781L13 8.9375V9.75L7.49531 5.70781H8.6125ZM4.875 6.11406L4.99687 6.825L1.09687 9.75H0L4.875 6.11406ZM13 0V0.0609375L7.94219 3.87969L7.98281 2.98594L11.9844 0H13ZM0 0L4.85469 3.575H3.63594L0 0.853125V0Z" fill="#C8102E"/>
<path d="M4.89531 0V9.75H8.14531V0H4.89531ZM0 3.25V6.5H13V3.25H0Z" fill="white"/>
<path d="M0 3.92031V5.87031H13V3.92031H0ZM5.54531 0V9.75H7.49531V0H5.54531Z" fill="#C8102E"/>
</g>
<defs>
<clipPath id="clip0_295_15959">
<rect width="13" height="9.75" fill="white"/>
</clipPath>
</defs>
</svg>
